<?xml version="1.0" encoding="utf-8"?>
<!-- Generator: Adobe Illustrator 19.0.0, SVG Export Plug-In . SVG Version: 6.00 Build 0)  -->
<svg version="1.1" id="Layer_1" xmlns="http://www.w3.org/2000/svg" xmlns:xlink="http://www.w3.org/1999/xlink" x="0px" y="0px"
	 viewBox="0 0 47.9 121.6" style="enable-background:new 0 0 47.9 121.6;" xml:space="preserve">
<style type="text/css">
	.st0{fill:none;}
	.st1{fill:#222;}
</style>
<g id="XMLID_228_">
	<path id="XMLID_229_" class="st0" d="M39.4,100.4c0.1-0.9-0.1-1.7-0.6-2.3c-0.4-0.5-1.1-0.9-1.9-1c-0.1,2.7-0.3,5-0.3,5.7
		C37.7,102.4,39.2,101.6,39.4,100.4z"/>
	<path id="XMLID_254_" class="st0" d="M38.2,95.6c0,0.2,0.1,0.3,0.1,0.4c0.6,0.3,1.1,0.6,1.5,1.1c0.8,0.9,1.1,2.2,0.9,3.4
		c-0.3,2-2.3,3-3.5,3.4c-0.1,0.2-0.1,0.4-0.1,0.5c0,0.1,0.1,0.2,0.2,0.3c1.8-0.5,2.8-1.7,3.3-2.4c0.9-1.5,1.1-3.2,0.6-4.6
		c-0.6-1.4-1.8-2.3-2.9-2.7C38.2,95.2,38.1,95.3,38.2,95.6z"/>
	<path id="XMLID_255_" class="st0" d="M11.3,85c0,0.1,0.3,0.5,1.4,0.9c0.5,0.2,1.2,0.3,2.1,0.4c1.1-0.3,5.3-1.1,8.6-1.2
		c3.8,0,6.1,0.9,7.2,1.5c3-0.4,4.6-1.3,4.9-1.8c0,0-0.1,0-0.1,0c0,0-0.1,0-0.1-0.1c-2.1-0.9-8.6-2.2-13.5-2.1
		c-5.8,0.1-9.4,1.1-10.6,1.9C11.3,84.7,11.3,84.8,11.3,85z"/>
	<path id="XMLID_258_" class="st0" d="M25.2,88.3c-5,0-10.8-0.4-12.9-1.1c-0.6-0.2-1-0.4-1.4-0.6c0,1.2,0,3,0,5
		c0.1,0.2,0.3,0.4,0.6,0.7c0.1,0.1,0.2,0.3,0.4,0.4c0.1,0.1,0,0.1,0.1,0.1c0,0,0.1,0.1,0.2,0.1c0.3,0.1,0.8,0.2,1.2,0.2
		c0.2,0,0.4,0,0.7,0c0.2,0,0.5,0,0.7,0c0.5,0,1,0.1,1.3,0.3c0.4,0.1,0.7,0.3,0.9,0.5c0.2,0.2,0.3,0.3,0.3,0.3
		c0.1,0.2,0.1,0.4-0.1,0.5c-0.1,0.1-0.2,0.1-0.3,0.1l-0.1,0c0,0-0.1,0-0.3-0.1c-0.2-0.1-0.4-0.1-0.7-0.2c-0.3,0-0.7-0.1-1.1-0.1
		c-0.2,0-0.4,0-0.7,0c-0.1,0-0.1,0-0.2,0l0.1,0.2l0.1,0.1c0,0,0,0,0,0l0.1,0.1c0,0.1,0.1,0.2,0.1,0.3c0.1,0.2,0.1,0.4,0.1,0.4v0
		c0,0.3-0.2,0.5-0.5,0.5c0,0,0,0,0,0c0,0-0.2,0-0.4-0.1c-0.1-0.1-0.2-0.1-0.4-0.3c-0.1-0.1-0.1-0.1-0.2-0.2c0,0-0.1-0.1-0.1-0.2
		c0,0,0-0.1,0-0.1L12.6,95c0,0-0.1-0.1-0.1-0.2c-0.1-0.1-0.1-0.2-0.2-0.3c-0.1-0.2-0.2-0.3-0.2-0.4c-0.1,0-0.2,0-0.3-0.1
		c-0.1,0-0.3-0.1-0.4-0.2c-0.2-0.1-0.3-0.2-0.4-0.3c0,0,0,0,0,0c0,3.2,0,6.3,0,7.4c0,2.3,0.5,6.5,3.6,8.5l3.4,2.2
		c0.2,0.1,0.3,0.3,0.3,0.5c0.2,1.3,0.7,2.8,1.2,2.8c0,0,0,0,0,0c0.8,0,1-1.6,1-1.6c0-0.1,0-0.2,0.1-0.3c0.1-0.2,0.5-0.7,1-0.7
		c0,0,0,0,0,0c0.2,0,0.6,0.1,0.8,0.6c0.2,0.3,0.2,0.7,0.2,1.1c0,0.7,0.1,1.1,0.3,1.2c0.2,0.1,0.5,0,0.7-0.2c0.4-0.3,0.7-0.9,0.8-1.5
		c0.1-1.1,0.8-1.3,1.1-1.3c0,0,0,0,0,0c0.7,0,1.3,0.8,1.3,1.3c0.1,0.6,0.1,1,1.2,1c0,0,0.4,0,0.9-2.1c0.3-1.2,1.4-1.5,2.3-1.7
		c0.7-0.2,1.4-0.3,1.9-0.8c1-1,1.8-5.1,2-7.6c0.1-1.7,0.7-12.4,0.8-16.3c-1.1,0.8-3,1.4-5.4,1.7C29.2,88.3,27.3,88.3,25.2,88.3z
		 M20.3,104.5c-0.3,2.1-3.1,1.9-3.7,1.5c-0.6-0.4-1.7-1.6-1.9-2.9c-0.3-1.3,1.4-3.1,1.4-3.1C19.5,98.4,20.5,102.5,20.3,104.5z
		 M25.1,109.7c-0.9,0-1.6,0-2.4,0c-0.9,0-1.6-0.6-1.3-1.7c0.3-1.1,2.6-0.9,2.6-0.9c2-0.6,2.4,1.2,2.5,1.6
		C26.5,109.1,26,109.6,25.1,109.7z M30,106.4c-3.8,1.1-4.1-3.1-3.5-5.1c0.6-2,3.3-1.4,3.9-0.9s1.4,1.8,1.4,3.1S30,106.4,30,106.4z"
		/>
</g>
<g id="XMLID_105_">
	<path id="XMLID_106_" class="st1" d="M25.2,121.6C25.2,121.6,25.2,121.6,25.2,121.6C25.1,121.6,25.1,121.6,25.2,121.6L25.2,121.6z"
		/>
	<path id="XMLID_416_" class="st1" d="M46.4,95.8c-0.2-0.8-0.5-1.6-0.8-2.4c-0.2-0.4-0.4-0.8-0.6-1.2c-0.2-0.4-0.5-0.7-0.6-1
		c-0.3-0.6-0.3-1.3-0.3-2.1c0.1-0.8,0.2-1.6,0.3-2.4c0.1-0.8,0.3-1.6,0.3-2.5c0.1-0.9,0.1-1.7-0.2-2.7c-0.1-0.2-0.1-0.3-0.2-0.6
		l-0.3-0.6l-0.3-0.6l-0.4-0.6c-0.5-0.8-1.2-1.4-2-1.9c-1.7-0.9-3.6-0.6-5.1-0.8c-0.7-0.1-1.4-0.3-1.8-0.7c-0.2-0.1-0.5-0.5-0.7-0.8
		c-0.1-0.2-0.3-0.6-0.3-0.8c-0.2-1.2,1-2.4,2.2-3.4c1.2-1,2.6-1.9,3.8-3.2c0.3-0.3,0.6-0.7,0.9-1.1c0.1-0.2,0.2-0.4,0.3-0.7
		c0-0.1,0.1-0.3,0.1-0.4l0.1-0.3c0.2-1.1-0.2-2-0.6-2.8c-0.9-1.6-2.1-2.7-3.3-3.9l-1.8-1.7c-0.6-0.5-1.2-1.1-1.6-1.6
		c-0.4-0.6-0.6-1.3-0.6-1.9c0-0.5,0.3-0.9,0.6-1.3c0.3,0.1,0.6,0.2,1,0.3c0.5,0.1,1.1,0.2,1.8,0.2c0.6,0,1.3,0,2-0.1
		c0.3,0,0.7-0.1,1-0.2c0.2-0.1,0.3-0.1,0.6-0.2l0.5-0.2c0.3-0.1,0.7-0.4,1-0.6c0.3-0.2,0.6-0.5,0.9-0.8c0.5-0.6,0.9-1.3,1.1-2.1
		c0.1-0.4,0.2-0.7,0.2-1.1c0-0.4,0.1-0.7,0-1.1c0-0.7-0.2-1.4-0.4-2c-0.2-0.6-0.4-1.2-0.7-1.7c-0.3-0.5-0.6-0.9-0.9-1.3
		c-0.1-0.2-0.3-0.3-0.4-0.4c0-0.1-0.1-0.2-0.1-0.3c-0.1-0.3-0.1-0.7-0.1-1c0-0.2,0-0.3,0-0.5c0-0.2,0-0.3,0.1-0.5
		c0.3-1.5,1.3-2.5,2.7-3.3c0.7-0.4,1.4-0.9,2.1-1.5c0.7-0.6,1.2-1.4,1.5-2.3c0.6-1.8,0.6-3.5,0.5-5.2c-0.1-1.7-0.6-3.4-1.2-5
		c-0.6-1.6-1.5-3-2.3-4.4c-0.4-0.7-0.7-1.4-0.9-2.1c-0.2-0.7-0.3-1.5-0.4-2.3c-0.1-1.5,0.1-3.1,0.5-4.6c0.2-0.8,0.4-1.5,0.7-2.2
		c0.3-0.7,0.6-1.4,0.9-2.2c0.1-0.2,0-0.5-0.2-0.6c-0.2-0.2-0.6-0.2-0.8,0.1l0,0c-1.1,1.3-1.6,3-2,4.6c-0.4,1.7-0.6,3.4-0.5,5.1
		c0.1,0.9,0.2,1.7,0.4,2.6c0.2,0.8,0.6,1.7,1,2.4c0.8,1.5,1.6,2.9,2.2,4.3c0.6,1.4,1,3,1.1,4.5c0,0.4,0.1,0.8,0.1,1.2l0,0.6l0,0.6
		l0,0.6l-0.1,0.5c0,0.4-0.2,0.7-0.3,1c-0.3,0.7-0.7,1.3-1.2,1.8c-0.5,0.5-1.2,0.9-1.9,1.4c-0.7,0.5-1.4,1-2,1.7
		c-0.2,0.2-0.3,0.4-0.4,0.6c-0.1,0.2-0.3,0.4-0.3,0.6c-0.1,0.2-0.2,0.4-0.3,0.7l-0.2,0.6c-0.1,0.2-0.1,0.5-0.1,0.7
		c0,0.3-0.1,0.5,0,0.7c0,0,0,0,0,0.1c-0.2,0-0.4,0.1-0.5,0.2c-0.2,0.3-0.2,0.7,0.1,1l0,0l0,0c0,0,0.2,0.2,0.7,0.6
		c0,0,0.1,0.1,0.1,0.1c0.2,0.2,0.4,0.4,0.6,0.6c0.2,0.3,0.5,0.6,0.7,1.1c0.2,0.4,0.4,0.9,0.6,1.4c0.2,0.5,0.3,1.1,0.3,1.6
		c0,0.3,0,0.6,0,0.9c-0.1,0.3-0.1,0.6-0.2,0.9c-0.1,0.6-0.4,1.1-0.8,1.5c-0.2,0.2-0.4,0.4-0.6,0.6c0,0,0,0,0,0
		c-0.2,0.1-0.4,0.3-0.7,0.4l-0.5,0.2L39,50.8c-0.3,0.1-0.6,0.2-0.9,0.2c-0.8,0.2-1.7,0.2-2.4,0.2c-0.3,0-0.6-0.1-0.8-0.1
		c-0.6-0.2-1.1-0.4-1.6-0.6c-0.2-0.1-0.4-0.2-0.6-0.3c-0.2-0.1-0.4-0.2-0.6-0.3c-0.1,0-0.2-0.1-0.2-0.1c0,0,0,0,0,0
		c-0.1,0-0.3,0-0.4,0.1c-0.2,0.2-0.3,0.5-0.2,0.7c0,0,0.1,0.1,0.2,0.2c0.1,0.1,0.3,0.3,0.6,0.5c0,0,0.1,0,0.1,0.1
		c-0.4,0.5-0.6,1.1-0.7,1.7c-0.1,1,0.2,2,0.8,2.7c0.6,0.8,1.2,1.3,1.8,1.9l1.8,1.7c1.2,1.1,2.3,2.2,3.1,3.5c0.4,0.6,0.6,1.3,0.5,1.9
		c-0.1,0.6-0.5,1.2-1,1.7c-1.1,1.1-2.4,2-3.7,3.1c-0.6,0.6-1.3,1.1-1.8,1.9c-0.5,0.7-1,1.7-0.8,2.8c0,0.3,0.1,0.5,0.2,0.7
		c0,0.1,0.1,0.2,0.1,0.3l0.1,0.2l0,0.1c0,0,0.1,0.1,0.1,0.1l0,0c0.2,0.3,0.4,0.7,0.9,1c0.8,0.7,1.8,1,2.6,1.1c1.8,0.2,3.3,0,4.6,0.6
		c1.2,0.6,2,2,2.5,3.4c0.2,0.6,0.2,1.4,0.1,2.2c-0.1,0.8-0.2,1.6-0.3,2.4c-0.1,0.8-0.3,1.6-0.3,2.5c-0.1,0.9-0.1,1.8,0.4,2.7
		c0.3,0.5,0.5,0.8,0.7,1.1c0.2,0.3,0.4,0.7,0.5,1c0.3,0.7,0.6,1.5,0.8,2.2c0.4,1.5,0.7,3.1,0.9,4.7c0.2,1.6,0.2,3.2-0.1,4.7
		c-0.2,0.7-0.4,1.4-0.8,1.9c-0.2,0.2-0.4,0.4-0.7,0.6l-1.1,0.5c-0.8,0.4-1.5,0.7-2.2,1.2c-0.7,0.5-1.5,1.1-1.9,2
		c-0.4,0.9-0.4,1.8-0.5,2.6c0,0.8-0.1,1.5-0.4,2c-0.3,0.5-0.9,0.8-1.6,0.9c-0.7,0.1-1.5,0.1-2.3,0c-1.5-0.2-3.6-0.3-5.2,0.8
		c-0.8,0.5-1.4,1.1-2,1.5c-0.6,0.4-1.2,0.6-1.9,0.6l0,0l0,0c-1.8,0.1-3.7,0.1-5.5-0.2c-0.9-0.1-1.8-0.3-2.6-0.7
		c-0.4-0.2-0.7-0.4-1-0.7c-0.4-0.3-0.6-0.6-0.9-0.9c-0.6-0.7-1.1-1.5-1.7-2.3c-0.6-0.8-1.4-1.6-2.5-2c-1-0.4-1.9-0.5-2.7-0.8
		c-0.8-0.3-1.6-0.7-2.2-1.3c-0.6-0.6-0.9-1.3-1.1-2.2c-0.2-0.8-0.2-1.7-0.1-2.6c0.1-1.9,0.4-3.7,0.7-5.6c0.1-0.9,0.3-1.9,0.2-3
		c-0.1-1-0.3-2-0.7-3c-0.2-0.5-0.4-0.9-0.6-1.3c-0.2-0.4-0.4-0.8-0.6-1.3c-0.3-0.8-0.5-1.7-0.6-2.6c-0.1-1.7,0.7-3.3,2.1-4.2
		c0.7-0.5,1.7-1,2.4-1.7c0.8-0.7,1.3-1.7,1.6-2.6c0.4-0.9,0.6-1.8,0.9-2.8c0.3-0.9,0.5-1.8,0.9-2.5c0.4-0.8,1-1.3,1.7-1.5
		c0.8-0.2,1.7-0.1,2.6-0.1c1.9,0.1,3.8,0.2,5.8,0.2c1,0,2-0.1,2.9-0.4c1-0.2,2-0.6,2.9-1.2c0.9-0.6,1.6-1.6,1.7-2.8
		c0-0.3,0.1-0.4,0-0.8c0-0.3-0.1-0.6-0.2-0.9c-0.1-0.3-0.2-0.5-0.3-0.8L28,67.2c-1.3-1.7-3-2.7-4.7-3.7c-1.7-0.9-3.5-1.7-5.3-2.4
		c-1.8-0.6-3.6-1.2-5.3-2c-1.7-0.8-3.1-1.9-4-3.3c-0.4-0.8-0.7-1.6-0.9-2.4c-0.1-0.9-0.2-1.8-0.2-2.7c0-1.8,0.7-3.5,2.2-4.3
		c1.5-0.9,3.3-1.1,5.2-1.3c1.9-0.2,3.8-0.3,5.7-0.8c1-0.2,1.9-0.6,2.8-1.1c0.9-0.5,1.7-1.2,2.3-2.2c0.3-0.4,0.5-0.9,0.7-1.4
		c0.1-0.5,0.3-0.9,0.4-1.4c0.2-1,0.3-2.1-0.1-3.1c-0.3-1.1-1.1-1.9-2-2.5c-0.9-0.6-1.8-0.9-2.8-1.2c-1.9-0.6-3.8-0.8-5.7-1.1
		c-0.5-0.1-1-0.1-1.4-0.3c-0.4-0.1-0.9-0.2-1.3-0.4l-1.3-0.5l-1.2-0.6c-3.2-1.8-5.9-4.6-7.8-7.7c-0.5-0.8-0.9-1.6-1.2-2.4
		C2,17.9,1.9,17.5,1.8,17c-0.1-0.4-0.2-0.9-0.3-1.4c-0.1-0.9-0.2-1.8-0.3-2.8c0-0.9,0-1.8-0.1-2.8l0,0c0-0.2-0.1-0.3-0.3-0.3
		c-0.2-0.1-0.5,0-0.6,0.2C0,11,0,12,0,13c0,1,0.1,1.9,0.3,2.9c0.1,0.5,0.2,1,0.3,1.4c0.1,0.5,0.3,1,0.5,1.4c0.3,0.9,0.8,1.8,1.3,2.6
		c2,3.3,4.8,6.2,8.2,8.2l1.3,0.7l1.4,0.6c0.5,0.2,1,0.3,1.4,0.4c0.5,0.1,0.9,0.2,1.4,0.3c1.9,0.3,3.7,0.5,5.5,1
		c0.9,0.3,1.7,0.6,2.4,1.1c0.7,0.5,1.3,1.1,1.5,1.8c0.2,0.7,0.2,1.6,0,2.5c-0.1,0.4-0.2,0.9-0.3,1.3c-0.1,0.4-0.3,0.8-0.5,1.1
		c-0.9,1.4-2.5,2.3-4.3,2.7c-1.8,0.4-3.6,0.6-5.5,0.8c-1.9,0.2-3.9,0.3-5.7,1.4c-0.9,0.5-1.7,1.4-2.1,2.3c-0.1,0.2-0.2,0.5-0.3,0.7
		c-0.1,0.3-0.2,0.5-0.2,0.8L6.4,50c0,0.3,0,0.5,0,0.7c-0.1,1,0,2,0.2,3c0.2,1,0.5,2,1.1,2.9c1.1,1.8,2.8,3,4.6,3.8
		c1.8,0.9,3.6,1.4,5.4,2c1.8,0.6,3.5,1.4,5.1,2.3c1.6,0.9,3.2,1.9,4.2,3.3l0.3,0.5c0.1,0.2,0.2,0.4,0.2,0.5c0.1,0.2,0.1,0.3,0.1,0.5
		c0,0.1,0,0.2,0,0.3l0,0.4c-0.1,0.7-0.5,1.4-1.2,1.9c-1.4,0.9-3.3,1.2-5.1,1.3c-1.8,0.1-3.7,0-5.6-0.2c-0.9-0.1-2-0.2-3.1,0.1
		c-0.5,0.2-1.1,0.4-1.5,0.8c-0.4,0.4-0.8,0.8-1,1.3c-0.5,0.9-0.8,1.9-1.1,2.8c-0.3,0.9-0.5,1.8-0.9,2.6c-0.3,0.8-0.7,1.6-1.3,2.2
		c-0.6,0.6-1.3,1-2.2,1.5c-0.9,0.5-1.7,1.3-2.2,2.3c-0.5,1-0.7,2.1-0.6,3.1c0.1,1,0.3,2,0.7,3c0.2,0.5,0.4,0.9,0.6,1.3
		c0.2,0.5,0.4,0.8,0.6,1.3c0.3,0.8,0.6,1.7,0.6,2.5c0.1,0.9,0,1.8-0.2,2.7c-0.3,1.8-0.6,3.8-0.8,5.7c-0.1,1,0,2,0.2,3
		c0.2,1,0.7,2,1.5,2.8c1.6,1.6,3.8,1.9,5.4,2.4c1.5,0.5,2.3,2.3,3.6,3.9c0.3,0.4,0.7,0.8,1.1,1.1c0.4,0.4,0.9,0.7,1.4,0.9
		c1,0.4,1.9,0.7,2.9,0.8c1.9,0.3,3.8,0.3,5.8,0.2c0.9,0,1.9-0.3,2.7-0.8c0.8-0.5,1.3-1.1,1.9-1.5c0.6-0.4,1.3-0.6,2-0.7
		c0.4-0.1,0.7,0,1.1,0l1.2,0.1c0.8,0.1,1.7,0.1,2.6,0c0.9-0.1,2-0.6,2.5-1.5c0.5-0.9,0.6-1.9,0.6-2.7c0-0.8,0.1-1.6,0.3-2.2
		c0.5-1.1,2.1-1.9,3.5-2.6l1.1-0.5c0.5-0.2,0.9-0.6,1.2-0.9c0.6-0.8,0.9-1.7,1.1-2.5c0.4-1.7,0.3-3.4,0.2-5.1
		C47.1,99,46.8,97.4,46.4,95.8z"/>
	<path id="XMLID_417_" class="st1" d="M6.9,2.6c0,0,0.1-0.1,0.3-0.1c0.2,0,0.5-0.1,0.8-0.2c0.4-0.1,0.8-0.1,1.2-0.2
		c0.5-0.1,1-0.2,1.6-0.2c0.6,0,1.2-0.1,1.9-0.1c0.7,0,1.4,0.1,2.1,0.2c0.7,0.1,1.5,0.3,2.3,0.4c0.8,0.2,1.5,0.4,2.3,0.7
		c0.7,0.3,1.5,0.6,2.2,0.9c0.4,0.2,0.7,0.3,1.1,0.5L23,4.8L23.3,5l0.5,0.2c0.9,0.3,1.8,0.5,2.6,0.3c0.9-0.2,1.6-0.6,2.1-1.1
		c0.5-0.5,0.9-1,1.2-1.5C30,2.5,30.2,2,30.3,1.6c0.1-0.4,0.1-0.7,0.1-0.9c0-0.2,0.1-0.3,0.1-0.3l0,0c0.1-0.2,0-0.4-0.2-0.4
		c-0.2-0.1-0.4,0-0.4,0.2l0,0c0,0,0,0.1-0.1,0.3c-0.1,0.2-0.3,0.4-0.5,0.7c-0.2,0.3-0.4,0.6-0.6,1c-0.3,0.4-0.6,0.8-1,1.2
		c-0.4,0.3-0.9,0.6-1.4,0.7c-0.5,0.1-1.2,0-1.7-0.2l-0.5-0.3l-0.1-0.1l-0.1,0l-0.3-0.2c-0.4-0.2-0.7-0.4-1.1-0.6
		c-0.8-0.4-1.5-0.7-2.3-1c-0.8-0.3-1.6-0.6-2.4-0.8c-0.8-0.2-1.6-0.4-2.4-0.5c-0.8-0.1-1.6-0.2-2.3-0.2c-0.7,0-1.5,0-2.1,0.1
		C10,0.5,9.4,0.5,8.9,0.6c-0.5,0.1-1,0.3-1.3,0.5C7.3,1.3,7,1.4,6.8,1.5C6.7,1.6,6.6,1.6,6.6,1.6c-0.1,0-0.2,0-0.3,0.1
		C6,1.8,6,2.2,6.1,2.4S6.6,2.8,6.9,2.6z"/>
	<path id="XMLID_418_" class="st1" d="M23.4,11.8c0-0.4-0.2-0.6-0.3-0.7C23,11.1,23,11,23,11s-0.4,0.1-1,0.5c-1.3,0.7-3.4,2.5-3.9,6
		c-0.4,2.7-0.3,4.8,0.3,6.4c0.8,2.2,2.5,3.3,4.7,3.4c0.4,0,0.4-1.3,0.4-1.7c0-0.2-0.1-0.8-0.2-1.4C23.1,23.6,23,23,23,22.6
		c-0.1-0.9-0.1-4.2,0-5.1C23.1,16.5,23.5,12.4,23.4,11.8z"/>
	<path id="XMLID_419_" class="st1" d="M24.9,25.6c-0.2,1,0,1.7,0,1.7c2.3,0,4-1.2,4.8-3.6c0.5-1.6,0.6-3.6,0.2-6.2
		c-0.6-3.6-2.8-5.3-4.1-6c-0.3-0.1-0.6-0.1-0.8,0.1c-0.3,0.4-0.3,1.1-0.2,1.5l0,0c0.2,1,0.4,3.6,0.4,4.9c0,1.1-0.1,4.4-0.3,6.3
		C25,24.9,25,25.4,24.9,25.6z"/>
	<path id="XMLID_422_" class="st1" d="M37.4,85.1c0-0.4-0.3-0.8-0.8-1.1c-0.2-0.2-0.4-0.3-0.7-0.4c0,0,0,0-0.1,0
		c-3.3-1.6-11-2.3-14-2.2c-1,0-8.7,0.3-11.4,2.2c-0.1,0-0.1,0.1-0.2,0.1c0,0-0.1,0-0.1,0.1c0,0,0,0,0,0c-0.4,0.4-0.7,0.8-0.7,1.3
		c0,0.1,0,3.2,0,6.6c0,0,0,0,0,0.1c0,3.8,0,8,0,9.2c0,2.6,0.6,7.3,4.3,9.7l3.1,2c0.2,1.1,0.8,3.6,2.5,3.6c0,0,0,0,0,0
		c0.9,0,1.5-0.6,1.9-1.3c0.1,0.6,0.5,1.3,1.3,1.5c0.2,0,0.3,0.1,0.5,0.1c0.5,0,0.9-0.1,1.3-0.4c0.5-0.4,1-1,1.2-1.6
		c0.2,0.7,0.8,1.5,2.4,1.5c1.6,0,2-2.1,2.3-3.1c0.1-0.3,0.4-0.4,1.3-0.6c0.8-0.2,1.8-0.4,2.5-1.2c0.9-0.9,1.5-2.9,1.9-4.8
		c2.4-0.2,4.4-1.4,5.7-3.3c1.2-1.8,1.4-4.1,0.7-5.9c-1.2-2.8-4.1-3.7-5.3-4C37.3,89.4,37.5,85.8,37.4,85.1z M36.6,102.8
		c0.1-0.7,0.2-3,0.3-5.7c0.7,0.1,1.4,0.4,1.9,1c0.5,0.6,0.7,1.4,0.6,2.3C39.2,101.6,37.7,102.4,36.6,102.8z M21.9,82.8
		c4.9-0.1,11.3,1.1,13.5,2.1c0,0,0.1,0,0.1,0.1c0,0,0.1,0,0.1,0c0,0,0,0,0,0c-0.3,0.4-1.9,1.4-4.9,1.8c-1.1-0.6-3.4-1.5-7.2-1.5
		c-3.2,0-7.4,0.9-8.6,1.2c-0.9-0.1-1.6-0.3-2.1-0.4c-1.2-0.4-1.4-0.8-1.4-0.9c-0.1-0.2,0-0.3,0.1-0.3C12.5,83.9,16.2,82.9,21.9,82.8
		z M33.3,110.2c-0.5,0.5-1.2,0.6-1.9,0.8c-0.9,0.2-2,0.4-2.3,1.7c-0.5,2-0.9,2.1-0.9,2.1c-1.1,0-1.2-0.5-1.2-1
		c-0.1-0.6-0.6-1.3-1.3-1.3c0,0,0,0,0,0c-0.3,0-0.9,0.1-1.1,1.3c-0.1,0.6-0.4,1.2-0.8,1.5c-0.2,0.2-0.5,0.2-0.7,0.2
		c-0.2-0.1-0.3-0.4-0.3-1.2c0-0.4,0-0.8-0.2-1.1c-0.3-0.5-0.7-0.6-0.8-0.6c0,0,0,0,0,0c-0.6,0-0.9,0.5-1,0.7
		c-0.1,0.1-0.1,0.2-0.1,0.3c0,0-0.2,1.6-1,1.6c0,0,0,0,0,0c-0.5,0-1-1.5-1.2-2.8c0-0.2-0.1-0.4-0.3-0.5l-3.4-2.2
		c-3.1-2-3.6-6.2-3.6-8.5c0-1.1,0-4.2,0-7.4c0,0,0,0,0,0c0.1,0.1,0.3,0.2,0.4,0.3c0.2,0.1,0.3,0.1,0.4,0.2c0.1,0,0.2,0,0.3,0.1
		c0,0.1,0.1,0.2,0.2,0.4c0.1,0.1,0.1,0.2,0.2,0.3c0,0.1,0.1,0.1,0.1,0.2l0.1,0.1c0,0,0,0.1,0,0.1c0,0.1,0.1,0.1,0.1,0.2
		c0.1,0.1,0.1,0.2,0.2,0.2c0.1,0.1,0.2,0.2,0.4,0.3c0.2,0.1,0.4,0.1,0.4,0.1c0,0,0,0,0,0c0.3,0,0.5-0.2,0.5-0.5v0c0,0,0-0.2-0.1-0.4
		c0-0.1-0.1-0.2-0.1-0.3l-0.1-0.1c0,0,0,0,0,0l-0.1-0.1L14,94.3c0.1,0,0.1,0,0.2,0c0.2,0,0.5,0,0.7,0c0.4,0,0.8,0.1,1.1,0.1
		c0.3,0.1,0.6,0.1,0.7,0.2c0.2,0.1,0.3,0.1,0.3,0.1l0.1,0c0.1,0,0.2,0,0.3-0.1c0.2-0.1,0.2-0.4,0.1-0.5c0,0-0.1-0.1-0.3-0.3
		c-0.2-0.2-0.5-0.4-0.9-0.5c-0.4-0.1-0.9-0.2-1.3-0.3c-0.3,0-0.5,0-0.7,0c-0.2,0-0.4,0-0.7,0c-0.4,0-0.9-0.1-1.2-0.2
		c-0.1,0-0.2-0.1-0.2-0.1c0,0,0,0-0.1-0.1c-0.1-0.1-0.3-0.3-0.4-0.4c-0.3-0.3-0.5-0.5-0.6-0.7c0-2,0-3.8,0-5
		c0.4,0.2,0.8,0.5,1.4,0.6c2.1,0.7,7.9,1.1,12.9,1.1c2.1,0,4-0.1,5.5-0.2c2.3-0.3,4.3-0.9,5.4-1.7c-0.1,3.9-0.7,14.6-0.8,16.3
		C35,105.2,34.3,109.2,33.3,110.2z M41.2,97.8c0.6,1.4,0.4,3.1-0.6,4.6c-0.5,0.8-1.5,1.9-3.3,2.4c-0.1-0.1-0.1-0.2-0.2-0.3
		c0-0.2,0-0.4,0.1-0.5c1.2-0.5,3.2-1.5,3.5-3.4c0.2-1.3-0.1-2.5-0.9-3.4c-0.4-0.5-0.9-0.9-1.5-1.1c-0.1-0.1-0.1-0.3-0.1-0.4
		c0-0.3,0-0.4,0.1-0.5C39.3,95.5,40.5,96.4,41.2,97.8z"/>
	<path id="XMLID_427_" class="st1" d="M24,107.1c0,0-2.3-0.2-2.6,0.9c-0.3,1.1,0.4,1.7,1.3,1.7c0.9,0,1.5,0.1,2.4,0s1.4-0.6,1.3-1
		C26.3,108.3,26,106.5,24,107.1z"/>
	<path id="XMLID_428_" class="st1" d="M16,100.1c0,0-1.7,1.9-1.4,3.1c0.3,1.3,1.3,2.5,1.9,2.9c0.6,0.4,3.5,0.5,3.7-1.5
		C20.5,102.5,19.5,98.4,16,100.1z"/>
	<path id="XMLID_429_" class="st1" d="M30.4,100.4c-0.6-0.5-3.3-1.1-3.9,0.9c-0.6,2-0.3,6.2,3.5,5.1c0,0,2-1.6,1.9-2.9
		S31,100.9,30.4,100.4z"/>
	<path id="XMLID_430_" class="st1" d="M35.9,32l0.5-3c0.1-0.4-0.2-0.7-0.6-0.8c-0.4-0.1-0.7,0.2-0.8,0.6l-0.5,3
		c-0.1,0.4,0.2,0.7,0.6,0.8c0,0,0.1,0,0.1,0C35.6,32.6,35.9,32.4,35.9,32z"/>
	<path id="XMLID_431_" class="st1" d="M34.1,39.2c0,0,0.1,0,0.1,0c0.3,0,0.6-0.2,0.7-0.6l0.4-2.8c0.1-0.4-0.2-0.7-0.6-0.8
		C34.4,35,34,35.3,34,35.7l-0.4,2.8C33.5,38.8,33.7,39.2,34.1,39.2z"/>
	<path id="XMLID_432_" class="st1" d="M36.1,33.4c0.1,0.3,0.4,0.5,0.7,0.5c0.1,0,0.1,0,0.2,0l2.9-0.9c0.4-0.1,0.6-0.5,0.5-0.9
		c-0.1-0.4-0.5-0.6-0.9-0.5l-2.9,0.9C36.2,32.7,35.9,33.1,36.1,33.4z"/>
	<path id="XMLID_433_" class="st1" d="M33.7,34.1c-0.1-0.4-0.5-0.6-0.9-0.5l-2.7,0.8c-0.4,0.1-0.6,0.5-0.5,0.9
		c0.1,0.3,0.4,0.5,0.7,0.5c0.1,0,0.1,0,0.2,0l2.7-0.8C33.6,34.9,33.8,34.5,33.7,34.1z"/>
	<path id="XMLID_434_" class="st1" d="M38.5,37.2c0.1,0.1,0.3,0.1,0.4,0.1c0.2,0,0.4-0.1,0.6-0.3c0.2-0.3,0.2-0.7-0.2-1l-2.5-1.8
		c-0.3-0.2-0.7-0.2-1,0.2c-0.2,0.3-0.2,0.7,0.2,1L38.5,37.2z"/>
	<path id="XMLID_435_" class="st1" d="M30.6,31.5l2.3,1.6c0.1,0.1,0.3,0.1,0.4,0.1c0.2,0,0.4-0.1,0.6-0.3c0.2-0.3,0.2-0.7-0.2-1
		l-2.3-1.6c-0.3-0.2-0.7-0.2-1,0.2C30.2,30.8,30.3,31.2,30.6,31.5z"/>
	<path id="XMLID_436_" class="st1" d="M33.9,5.7l-1.2,1.4c-0.2,0.3-0.2,0.7,0.1,1c0.1,0.1,0.3,0.2,0.4,0.2c0.2,0,0.4-0.1,0.5-0.3
		l0.7-0.8l0.3,2c0,0.3,0.3,0.6,0.7,0.6c0,0,0.1,0,0.1,0C36,9.8,36.2,9.4,36.2,9l-0.3-2l0.9,0.6c0.1,0.1,0.3,0.1,0.4,0.1
		c0.2,0,0.4-0.1,0.6-0.3c0.2-0.3,0.1-0.7-0.2-1l-1.5-1L37.2,4c0.2-0.3,0.2-0.7-0.1-1c-0.3-0.2-0.7-0.2-1,0.1l-0.7,0.8l-0.4-2.5
		C35,1,34.7,0.8,34.3,0.8c-0.4,0.1-0.6,0.4-0.6,0.8l0.4,2.5l-0.9-0.6c-0.3-0.2-0.8-0.1-1,0.2c-0.2,0.3-0.1,0.7,0.2,1L33.9,5.7z"/>
	<path id="XMLID_437_" class="st1" d="M18.9,55.1c0.2,0,0.4-0.1,0.6-0.3c0.2-0.3,0.1-0.7-0.2-1l-1.5-1.1l1.2-1.4
		c0.2-0.3,0.2-0.7-0.1-1c-0.3-0.2-0.7-0.2-1,0.1l-0.7,0.8l-0.3-2.5c0-0.4-0.4-0.6-0.8-0.6c-0.4,0-0.7,0.4-0.6,0.8l0.3,2.5L15,50.8
		c-0.3-0.2-0.7-0.1-1,0.2c-0.2,0.3-0.1,0.7,0.2,1l1.5,1.1l-1.2,1.4c-0.2,0.3-0.2,0.7,0.1,1c0.1,0.1,0.3,0.2,0.5,0.2
		c0.2,0,0.4-0.1,0.5-0.2l0.7-0.8l0.3,2c0,0.4,0.3,0.6,0.7,0.6c0,0,0.1,0,0.1,0c0.4,0,0.7-0.4,0.6-0.8l-0.3-2l0.9,0.6
		C18.6,55,18.7,55.1,18.9,55.1z"/>
</g>
</svg>
