<?xml version="1.0" encoding="utf-8"?>
<!-- Generator: Adobe Illustrator 19.0.0, SVG Export Plug-In . SVG Version: 6.00 Build 0)  -->
<svg version="1.1" id="Layer_1" xmlns="http://www.w3.org/2000/svg" xmlns:xlink="http://www.w3.org/1999/xlink" x="0px" y="0px"
	 viewBox="0 0 99.3 151.6" style="enable-background:new 0 0 99.3 151.6;" xml:space="preserve">
<style type="text/css">
	.st0{fill:#222;}
</style>
<g id="XMLID_115_">
	<path id="XMLID_488_" class="st0" d="M95.4,116.5c-0.4-0.1-0.7,0.1-0.9,0.5c0,0.1-1.3,2.9-5.2,2.6c-4.8-0.4-7.5,3.8-9,6.4l-0.2,0.3
		c-0.2,0.3-0.1,0.7,0.1,1c0.1,0.1,0.3,0.2,0.5,0.2c0.2,0,0.3,0,0.4-0.1c0,0,2.5-1.7,7.1-2.3c5.7-0.7,7.7-4.4,7.7-7.7
		C96,116.9,95.8,116.6,95.4,116.5z M88.2,123.4c-2.2,0.3-3.9,0.8-5.2,1.3c1.3-1.9,3.2-3.7,5.8-3.7c0.2,0,0.3,0,0.5,0
		c2,0.2,3.5-0.4,4.6-1.1C93,121.8,91,123.1,88.2,123.4z"/>
	<path id="XMLID_491_" class="st0" d="M99.1,61c-0.3-0.3-0.8-0.3-1.1,0c-9,8.4-17.4-0.1-17.7-0.5c-0.3-0.3-0.7-0.3-1-0.1
		c-0.3,0.2-0.4,0.6-0.3,0.9c0,0.1,4.3,11.5-4.5,16.2c-7.6,4.1-16.4-4.2-16.5-4.2c-0.3-0.3-0.8-0.3-1.1,0c-0.3,0.3-0.3,0.8,0,1.1
		c0.1,0.1,0.4,0.4,1,0.9c-1.8,4.1-6.1,3.3-6.3,3.3c-0.2,0-0.3,0-0.5,0.1c-1.4-1-2.4-1.7-2.6-1.7c-0.4-0.2-0.8-0.1-1,0.3
		c-0.2,0.4-0.1,0.8,0.3,1c0.1,0.1,10.5,6.1,8.6,13.3c-1.9,7.2-8.9,7.4-9.2,7.4c-0.4,0-0.8,0.4-0.7,0.8c0,0.3,0.2,0.6,0.5,0.7
		c-2.5,0.6-5.4,1.1-7.5,1.2c-4.3,0.3-15.9,1.3-20.6,0c-2.1-0.6-3.9-1.3-5.2-1.9c-0.9-0.7-1.5-1.5-1.8-2.5c-1-3.3,1.6-7.3,1.6-7.3
		c0.2-0.2,0.2-0.5,0-0.8c-1.3-2.4-5.3-10.6-1.5-15.5c3-3.8,9.7-2.4,11.6-1.9c0.1,0.1,0.1,0.3,0.1,0.3c0.1,0.3,0.4,0.4,0.7,0.4
		c0.1,0,0.2,0,0.3-0.1c0.4-0.2,0.5-0.6,0.3-1c0.1-0.3-0.1-0.7-0.4-0.8c-1-2.3-3.4-8.9-0.7-13.5c3.2-5.3,9.5-4,10.1-3.9
		c1.7,3.1,3.4,5.1,3.6,5.2c0.2,0.2,0.4,0.3,0.6,0.3c0.2,0,0.4-0.1,0.5-0.2c0.3-0.3,0.3-0.8,0.1-1.1c-0.1-0.1-7.1-8-6.3-17
		c0.4-4.9,3.9-7.7,6.9-9.3c1.2-0.5,4.4-1.8,8.5-1.3c0.4,0,0.8-0.3,0.8-0.7c0-0.4-0.3-0.8-0.7-0.8c-1.3-0.1-2.6-0.1-3.7,0
		c-0.2-0.3-1.8-3.2-2.1-7.3c-0.4-5.8,2-10.9,7-15.3c5.6-4.8,11.7-4.6,15.8-3.5C72.1,3.9,77.7,8.9,79,12.4c0.1,0.4,0.6,0.6,1,0.5
		c0.4-0.1,0.6-0.6,0.5-1c-1.5-4-7.3-9.3-14.6-11.2c-4.5-1.2-11.1-1.4-17.2,3.8c-11.1,9.6-7.2,20.5-5.7,23.7c-1,0.3-2.6,0.8-4.3,1.8
		c-0.1,0-0.1,0.1-0.1,0.1c0,0,0,0,0,0c-0.2,0.1-0.3,0.2-0.5,0.3c-4,2.4-6.4,5.9-6.7,10c-0.4,4.2,0.8,8.1,2.2,11.3
		c-2.4-0.2-7.6-0.1-10.6,4.8C20,61,21.7,67,22.9,70.2c-3-0.6-9-1.3-12.1,2.7c-4.2,5.4-0.4,13.7,1.2,16.7c-0.7,1.2-2.6,4.9-1.6,8.2
		c0.1,0.2,0.1,0.4,0.2,0.6c-0.8-0.3-2.8-0.9-3.9,0.1C6.3,99,6.3,99.9,7.6,101c-0.3,0-0.6,0.1-0.7,0.3c-0.1,0.1-1.7,2.6-2.8,4.7
		c-0.1,0.2-0.3,0.5-0.4,0.8c-1.6,2.8-5.9,10.4-2,21c1.1,3,3.3,5.5,6.4,7.6c0,0-0.1,0.1-0.1,0.1c-0.2,0.2-0.4,0.7,0.1,1.4l0.1,0.2
		c0.4,0.7,0.4,0.7,0.3,0.8c-0.1,0.1-0.4,0.2-0.7,0.3c-0.6,0.2-1.3,0.5-1.4,1.2c-0.1,0.7,0.4,1.2,0.6,1.4c0.5,0.5,3.6,1.5,7.8,2.7
		c-0.2,0.1-0.5,0.1-0.7,0.2c-0.5,0-2.1,0-4.3,0.4c-1.9,0.4-2.8,0.8-2.9,1.6c-0.1,0.3-0.1,0.8,0.6,1.3l0.2,0.1
		c0.7,0.4,0.6,0.5,0.6,0.6c0,0.1-0.3,0.4-0.5,0.5c-0.4,0.4-1,1-0.8,1.7c0.1,0.7,0.9,0.9,1.1,1c0.2,0.1,0.5,0.1,1,0.1
		c3.5,0,14.3-1.7,22.9-3.4c2.4,0.5,4.5,0.9,6.2,1.2c1.1,0.2,2.1,0.3,3.1,0.5c0,0,0,0,0,0c0,0,0,0,0,0c3.3,0.5,6,0.9,8.1,1.2
		c3,0.4,5,0.7,5.9,1c0.3,0.1,0.6,0.1,0.9,0.1c0.3,0,0.6-0.1,0.8-0.3c0.4-0.4,0.3-0.9,0.3-1.4c-0.1-0.4-0.1-0.8,0-1.2
		c0.7-1.9-0.4-3.5-0.5-3.6c-0.1-0.2-0.3-0.3-0.5-0.3c-0.1,0-3.8-0.6-8-1.2c0.9-0.2,1.8-0.5,2.5-0.7c0,0,0.1,0,0.1,0
		c3.2-0.8,5.7,0.1,6.1,0.3c0.7,0.3,4.2,0.8,7.8,0.8c1.6,0,3.3-0.1,4.6-0.3c3.2-0.6,4.3-1.3,5.9-2.5c0.8-0.6,1.9-1.3,3.5-2.3
		c0.6-0.3,3.5-0.9,5.7-1.2c4.5-0.8,5.2-0.9,5.2-1.8c0-0.3-0.2-0.8-1-0.9c-1.2-0.2-3.1-0.6-4.8-1c5.3-2,7.3-5.6,7.4-5.8
		c0.2-0.3,0.1-0.7-0.2-0.9c-0.3-0.2-0.7-0.2-1,0c-1.8,1.5-4.8,1.7-8,1.9c-1.1,0.1-2.2,0.2-3.4,0.3c-2.1,0.3-5.8,2-8.8,3.4
		c-1.4,0.7-2.8,1.3-3.3,1.5c-1.6,0.4-2.4-0.1-2.7-0.4c-0.1-0.1-0.1-0.2-0.1-0.3c0.2-0.2,1.3-0.8,2.3-1.2c1.8-0.8,4.2-2,6.8-3.8
		c2.8-2,7.8-8.6,8.9-11c0.1-0.1,0.1-0.1,0.1-0.2l0,0c0.1-0.3,0.2-0.5,0.1-0.6c-0.1-0.3-0.3-0.5-0.6-0.6c-0.5-0.1-0.7,0.2-1,0.8
		c-1.1,1.8-4.9,4.5-10.3,7.2c-0.7,0.4-1.4,0.8-2,1.1c0.8-0.7,1.7-1.5,2.5-2.2c1-0.9,2-1.7,2.9-2.5c2.6-2.4,2.4-5.6,2.3-5.8
		c0-0.4-0.3-0.6-0.7-0.7c-0.3-0.1-0.7,0.2-0.8,0.5c-0.7,2.1-3.2,4-7,5.4c-2,0.7-3.3,1.3-4,1.6c0.8-7.4-2.2-12.6-3.4-14.9
		c-0.2-0.3-0.3-0.6-0.4-0.8c-1.1-2.1-2.7-4.6-2.8-4.7c-0.1-0.2-0.4-0.3-0.6-0.3c1.2-1.1,1.3-2,0.8-2.4c-0.8-0.8-2.2-0.6-3.1-0.4
		c1.7-1.3,3.3-3.2,4.1-6.2c1.3-4.8-1.9-9-4.9-11.8c1.8-0.1,4.7-0.8,6.2-3.9c2.4,1.7,6.3,4,10.6,4c1.8,0,3.6-0.4,5.3-1.3
		c7.4-3.9,6.8-11.8,5.9-15.7c3.3,2.4,10.5,5.9,17.9-1.1C99.4,61.8,99.4,61.4,99.1,61z M55.7,148.2c-0.3,0.7-0.2,1.3-0.1,1.8
		c0,0,0,0,0,0c-1-0.3-3.1-0.6-6.1-1c-2.1-0.3-4.9-0.7-8.2-1.2c-1.2-0.2-2.8-0.6-4.4-1.2c-0.8-0.3-1.7-0.6-2.6-1
		c-2.1-0.9-4.1-1.9-5.9-3c-0.2-0.1-0.5-0.3-0.7-0.4c-0.4-0.3-0.8-0.5-1.3-0.8c-0.3-0.2-0.5-0.3-0.8-0.5c-0.5-0.3-0.9-0.5-1.4-0.8
		c1.3,0.3,2.6,0.7,3.9,1c0.1,0,0.1,0,0.2,0c0.2,0,0.3,0.1,0.5,0.1c1.1,0.3,2.1,0.5,3.1,0.8c2.6,0.6,4.8,1.2,6.4,1.5
		c0.7,0.2,1.6,0.3,2.6,0.5c1.1,0.2,2.4,0.4,3.7,0.6c4.6,0.8,9.7,1.5,11.1,1.7C55.7,146.7,56,147.4,55.7,148.2z M25.5,120.6
		C25.5,120.6,25.5,120.6,25.5,120.6c0,0.2,0,0.4,0,0.6c-2.1,0-4.3-0.6-5.3-0.9c0-1,0.4-2,1.1-2.6c0.6-0.5,1.2-0.8,2-0.8
		c0.1,0,0.3,0,0.4,0C25.6,117.2,25.5,120.6,25.5,120.6z M25.1,122.7c-0.2,0.5-0.6,1-1,1.4c-0.3,0.3-0.8,0.6-1.4,0.5
		c-1-0.2-2-0.6-2.4-2.6C21.5,122.3,23.3,122.7,25.1,122.7z M20.4,130.4c0.5-0.3,1.1-0.4,1.6-0.2c0.4,0.1,0.9,0.3,1.5,0.6
		c-0.1,0.8-0.1,1.8-0.1,2.8c-1.3-0.6-2-1-2-1C19.8,131.5,19.9,130.8,20.4,130.4z M25,134.3c-0.1-0.8,0-1.9,0-3
		c1.6,0.4,3.6,0.8,5.8,0.9c0,1,0,2.3,0,3.5C28.7,135.4,26.6,134.8,25,134.3z M38.8,134.4c0-1.3-0.2-2.8-0.3-3.7
		c1.3-0.5,2.2-0.8,2.7-0.6C42.1,130.4,41.6,132.8,38.8,134.4z M42.5,121.1C42.5,121.1,42.5,121.1,42.5,121.1c0,1.3-0.5,2.7-1.4,3.5
		c-0.3,0.3-0.8,0.6-1.4,0.5c-0.4-0.1-0.8-0.2-1.1-0.4c0.4-0.6,0.9-1.6,0.9-3.2c0-1.7-0.4-3-0.7-3.7c0.4-0.3,0.9-0.4,1.5-0.4
		c0.1,0,0.3,0,0.4,0C42.6,117.7,42.5,121,42.5,121.1z M37,131.2c0.1,1,0.2,2.6,0.2,3.8c-0.8,0.3-1.8,0.5-2.9,0.6
		c-0.7,0.1-1.3,0.1-2,0.1c0-1.2,0-2.6,0-3.6C34.2,132,35.7,131.6,37,131.2z M32.3,127.1c-2.9,0-5.2-1.6-3.7-2.9s3.1-0.7,3.1-0.7
		c2.3-0.2,3.7,1.2,3.7,1.8S35.2,127.1,32.3,127.1z M8.2,139.6c0.4-0.2,0.9-0.3,1.2-0.7c0.9-0.9,0.4-1.9,0-2.5c0.1,0,0.3,0,0.5,0
		c0.2,0,0.5,0.1,0.9,0.2c2.3,0.5,3.8,1.2,3.8,1.2c0.1,0,0.2,0.1,0.2,0.1c0.7,0.1,1.7,0.3,2.9,0.6c0.3,0.2,1.7,0.8,3.4,1.7
		c0.9,0.4,1.8,1,2.8,1.5c0.7,0.4,1.4,0.8,2.1,1.2c0.3,0.2,0.5,0.3,0.8,0.5c1.4,0.9,3,1.8,4.7,2.6c-3.2-0.7-6.7-1.5-10-2.3
		c-1.2-0.3-2.5-0.6-3.6-0.9c-5.1-1.3-9.2-2.5-10-3C8,139.7,8.1,139.7,8.2,139.6z M8.1,102.2c0.2-0.2,0.2-0.5,0-0.8
		c1.7,1.1,4.8,2.3,10.2,3.1c-0.1,0.2,0,0.5,0.1,0.8c1.1,2.4-6.3-0.4-6.3-0.4c-1.2-0.4-3.6-1.6-5-1.4C7.7,102.7,8.1,102.2,8.1,102.2z
		 M8.5,149.5c0.1-0.1,0.1-0.1,0.2-0.2c0.3-0.3,0.7-0.7,0.8-1.1c0.4-1.2-0.4-1.9-1-2.3c0.3-0.1,0.7-0.2,1.4-0.4c2.3-0.5,4-0.4,4-0.4
		c0.1,0,0.2,0,0.3,0c0.8-0.2,2.1-0.5,3.7-0.8c1.5,0.4,3,0.8,4.6,1.1c0.4,0.2,1,0.6,1,0.9c0,0.3,0,0.8-0.5,1.2
		C15.9,148.8,9.6,149.6,8.5,149.5z M44.5,143c-0.2,0-3.9-0.8-3.7-1.6c0.2-0.5,1.4-1.1,2.3-1.4c0.6-0.1,1.1-0.2,1.7-0.4
		c2.4-0.6,4.6-1.3,6.5-2.1c1.6-0.4,2.9-0.8,3.5-0.9c0.3,0.3,0.8,0.8,0.8,1.7c0,0.7,0.3,1.3,0.6,1.7c0,0,0,0,0,0
		c-1,0.2-3,0.7-5.8,1.4c0,0,0,0,0,0c0,0,0,0,0,0c0,0-0.1,0-0.1,0C48.7,142,46.7,142.5,44.5,143z M63.2,123.4c0,0,1-0.6,4.8-2
		c2.3-0.8,4.1-1.8,5.4-2.9c-0.2,0.3-0.5,0.6-0.8,0.9c-0.9,0.8-1.9,1.7-2.9,2.5c-3,2.6-4.9,4.2-5.3,5.4c-0.2,0.6-0.1,1,0.3,1.3
		c0.6,0.5,1.2,0.1,2.5-0.8c0.9-0.6,2.2-1.5,3.7-2.2c1.7-0.9,4.1-2.2,6.3-3.6c-1.6,2.1-3.4,4.3-5,5.4c-2.5,1.7-4.8,2.8-6.6,3.7
		c-1.5,0.7-2.5,1.2-2.8,1.7c-0.4,0.6-0.4,1.4,0.1,2.1c0.6,0.9,2.1,1.6,4.3,1c0.7-0.2,1.9-0.8,3.5-1.6c2.7-1.3,6.4-3,8.3-3.3
		c1.1-0.1,2.2-0.2,3.3-0.3c1.9-0.1,3.8-0.3,5.5-0.7c-1.5,1.3-3.8,2.7-7.2,3.4c-0.4,0.1-0.6,0.4-0.6,0.7s0.2,0.7,0.6,0.8
		c0.2,0,2.7,0.6,5,1.1c-0.5,0.1-1,0.2-1.4,0.3c-3.2,0.6-5.4,1-6.1,1.4c-1.7,1-2.8,1.7-3.6,2.3c-1.6,1.1-2.4,1.7-5.3,2.2
		c-4.1,0.7-10.4,0-11.3-0.3c0,0-0.1,0-0.1,0c0,0-0.4-0.2-1-0.4c0.6-0.1,1.1-0.2,1.4-0.8c0.2-0.5,0-1-0.3-1.4
		c-0.2-0.3-0.4-0.7-0.5-1.2c-0.1-1.7-1.2-2.6-1.6-2.9c3.1-2.1,5.3-4.6,6.4-7.6C62.5,126.2,62.9,124.8,63.2,123.4
		C63.2,123.4,63.2,123.4,63.2,123.4z M55.4,101.5c0,0.2,0,0.4,0.1,0.6c0,0,0.4,0.6,0.9,1.4c-0.8-0.7-0.5,0.7-1.1,1.1
		c-0.8,0.6-3.4,0.8-4.7,1c-1.3,0.2-5.3,0.7-7.2,0.7s-2.9-1.2-2.9-1.2s-0.1-0.1-0.3-0.3C48.6,104.4,53.1,103,55.4,101.5z"/>
	<path id="XMLID_510_" class="st0" d="M44.8,40.4c0,0-2,1.3-1.3,2.6s2.2,1.3,2.5,0C46.3,41.8,45.6,39.7,44.8,40.4z"/>
	<path id="XMLID_511_" class="st0" d="M33.6,91c0.3-1.3-0.4-3.4-1.2-2.6c0,0-2,1.3-1.3,2.6C31.8,92.3,33.3,92.3,33.6,91z"/>
	<path id="XMLID_514_" class="st0" d="M25.4,86.3C25.4,86.3,25.4,86.3,25.4,86.3c0.5,0,0.8-0.3,0.8-0.7c0,0,0.1-1.2,0.9-2.2
		c0.1,0.1,0.3,0.2,0.5,0.3c0.3,0.1,0.6,0.1,0.9,0.1c2,0,3-1.2,3.6-2c0.1-0.1,0.2-0.3,0.3-0.4c1.1-1.2,1.5-5,1.2-7
		c-0.3-2.1-0.7-2.9-1.4-3c-0.3,0-0.8,0.1-1,0.9L31,72.7c-0.2,0.8-0.4,1.6-1.7,2.4c-0.3,0.2-0.5,0.4-0.7,0.5
		c-0.9,0.6-1.2,0.8-2.4,2.1c-1.5,1.6-0.6,3.9-0.2,4.6c-1.1,1.5-1.2,3.1-1.3,3.1C24.6,85.9,25,86.3,25.4,86.3z M27.3,78.8
		c1.1-1.2,1.3-1.3,2.2-1.9c0.2-0.1,0.5-0.3,0.8-0.5c1-0.7,1.5-1.4,1.8-2c0,0.1,0,0.2,0,0.3c0.3,2-0.2,5.1-0.8,5.8
		c-0.1,0.1-0.3,0.3-0.4,0.5c-0.6,0.8-1.2,1.5-2.7,1.4c1.5-1.4,2.3-2.8,2.3-2.9c0.2-0.4,0.1-0.8-0.3-1c-0.4-0.2-0.8-0.1-1,0.3
		c0,0-0.8,1.3-2.1,2.6C26.9,80.4,26.7,79.4,27.3,78.8z"/>
	<path id="XMLID_517_" class="st0" d="M79.4,45.9c-0.8,0.4-3.4,0.2-5.1,0.1c-0.9-0.1-1.6-0.1-2.1-0.1c-1.2,0-2.9,0.4-3.9,1.6
		c-0.7,0.8-0.9,1.8-0.7,2.8c0.2,1.3,0.9,2.2,1.7,2.8c-0.5,0-0.8,0-0.8,0c-0.4,0-0.8,0.3-0.8,0.7c0,0.4,0.3,0.8,0.7,0.8
		c0,0,0.2,0,0.5,0c0.5,0,1.3,0,2.2-0.2c0.4,1.8,2.1,3.9,5.1,4.3c0.1,0,0.2,0,0.3,0c0.7,0,1.4-0.3,2-0.9c2.1-2.1,2.8-7.6,2.7-8.6
		c0-0.3,0.1-0.7,0.1-1.1c0.2-0.9,0.3-1.7-0.3-2.1C80.4,45.7,80,45.7,79.4,45.9z M79.6,47.9c-0.1,0.5-0.2,1-0.1,1.5
		c0.1,0.9-0.6,5.8-2.2,7.4c-0.4,0.4-0.8,0.5-1,0.4c-2.4-0.2-3.4-1.9-3.7-3.1c0.6-0.2,1.2-0.4,1.9-0.7c3-1.4,4.8-4.1,4.9-4.2
		c0.2-0.4,0.1-0.8-0.2-1.1c-0.4-0.2-0.8-0.1-1.1,0.2c0,0-1.7,2.5-4.3,3.7c-0.7,0.3-1.4,0.5-2.1,0.7c-0.5-0.2-2.3-0.9-2.6-2.7
		c-0.1-0.6,0-1.2,0.4-1.6c0.6-0.7,1.8-1.1,2.7-1.1c0.5,0,1.2,0.1,2,0.1c2.4,0.2,4.3,0.3,5.5,0C79.6,47.6,79.6,47.7,79.6,47.9z"/>
</g>
</svg>
