<?xml version="1.0" encoding="utf-8"?>
<!-- Generator: Adobe Illustrator 19.0.0, SVG Export Plug-In . SVG Version: 6.00 Build 0)  -->
<svg version="1.1" id="Layer_1" xmlns="http://www.w3.org/2000/svg" xmlns:xlink="http://www.w3.org/1999/xlink" x="0px" y="0px"
	 viewBox="0 0 146.6 72.6" style="enable-background:new 0 0 146.6 72.6;" xml:space="preserve">
<style type="text/css">
	.st0{fill:#222;}
</style>
<g id="XMLID_59_">
	<path id="XMLID_135_" class="st0" d="M66.1,47.7c0.1,0,0.3,0,0.4,0c0.8,0,1.6-0.3,2.2-0.9c1.2-1,2-2.9,1.9-4.6c0-0.4,0-4.8-3.2-5.2
		c-1.4-0.2-2.7,0.2-3.7,1.2c-1.1,1.1-1.7,2.7-1.6,4.4C62.4,44.5,63,47.2,66.1,47.7z M64.9,39.3c0.6-0.5,1.3-0.8,2-0.8
		c0.1,0,0.3,0,0.4,0c1.9,0.3,1.8,3.7,1.8,3.7c0,0,0,0,0,0c0,1.3-0.6,2.7-1.4,3.4c-0.3,0.3-0.8,0.6-1.4,0.5c-0.5-0.1-1-0.2-1.4-0.6
		c0.9,0.3,1.6-0.2,2-0.9c0,0,0,0,0,0c0.2-0.3,0-0.9-0.3-1c-0.3-0.1-1.2-0.5-1.2-0.7c0-0.2,0.8-0.4,1.3-1c0.5-0.5-0.3-1.5-0.3-1.6
		c-0.1-0.1-0.2-0.2-0.3-0.2c-0.8-0.5-0.8-0.8-1.6-0.4C64.6,39.6,64.7,39.4,64.9,39.3z"/>
	<path id="XMLID_155_" class="st0" d="M67.9,55.7c1.9-1.7,2.3-2.5,2.4-2.7c0,0,0-0.1,0-0.1c0.5-2,0.1-2.4,0-2.6
		c-0.2-0.3-0.6-0.4-0.9-0.3c-0.2-0.1-0.4,0-0.5,0c0,0-3.1,1.4-7.1,1.2c-3.3-0.1-6-0.5-6.9-0.6c-0.2-0.8-0.4-1.2-0.5-1.3
		c-0.2-0.4-0.7-0.5-1-0.3c-0.4,0.2-0.5,0.7-0.3,1c0,0,1.3,2.3-0.1,6.5c-0.1,0.4,0.1,0.8,0.5,1c0.1,0,0.2,0,0.2,0
		c0.3,0,0.6-0.2,0.7-0.5c0.2-0.6,0.3-1.1,0.4-1.6c0.4,0.2,1,0.5,1.6,0.8c0.6,0.3,1.2,0.6,1.8,0.8c0.7,0.3,1.8,0.5,2.9,0.5
		C63.6,57.6,66.5,56.9,67.9,55.7z M67.2,52.1c0-0.2,0-0.3,0-0.3c0-0.1,0.1-0.2,0.4-0.3c0.4-0.2,0.9-0.2,1.1-0.2
		c0.1,0,0.2,0.1,0.2,0.2c0,0,0,0.1,0,0.1c0,0.3-0.3,0.9-0.5,1.5c0,0,0,0.1-0.1,0.1c-0.1,0.2-0.3,0.4-0.5,0.5c-0.3,0.2-0.6,0-0.6-0.3
		C67.2,52.9,67.2,52.4,67.2,52.1z M59.4,55.1c-1.1-0.4-1.3-2.3-1.3-2.3c0.1-0.1,0.1-0.2,0.2-0.3c0.1-0.1,0.1-0.1,0.2-0.2
		c0.2-0.1,0.4-0.1,0.6,0c0.2,0.1,0.3,0.1,0.4,0.3c0.3,0.3,0.6,0.7,0.6,1.1C60.2,54.6,60.5,55.5,59.4,55.1z"/>
	<path id="XMLID_173_" class="st0" d="M141.9,53.7c10.4-15.8,1.4-37.7-6.2-44.5c-0.1,0-0.1-0.1-0.2-0.1c0,0-0.5-0.2-1.2-0.4
		c-0.5-0.6-1-1.3-1.3-1.9c-0.6-0.9-1.8-5.2-2.6-6.1c-0.7-0.9-3.3-0.9-5.3,0c-2,0.9-2.9,3.4-1.7,4.4s3,1.8,4.1,2.8
		c0.7,0.6,1.2,2,1.5,2.9c-1.5,1.7-2.3,4.1-2.6,7.1c-0.3,3.4-2.4,16.1-7.2,25.4c-0.7-3.5-2.6-8.2-2.9-8.8c-0.2-0.4-0.7-2.6-1-4
		c-0.3-1.5-0.6-2.8-0.8-3.4c-0.5-1.4-2.3-5.9-3.9-8.6c-1.2-2.1-3-2.7-4.6-3.3c-0.7-0.2-1.3-0.5-1.9-0.8c-2.2-1.2-5.6-1.5-5.8-1.5
		c-0.2,0-0.5,0.1-0.6,0.3c-2.4-0.2-4.9,0.3-6.8,1.2c-3.3,1.6-7.5,8.6-9.2,11.6c-2.1,3.8-4.6,6.1-5.2,6.7c-1.9-2.8-4.7-5.2-8.4-7
		c-0.4-0.2-1.1-0.3-2.2-0.5c-0.9-0.1-2.7-0.5-2.9-0.8l-0.1-0.2c-0.4-1.2-1.4-4.3-4.7-4c-2,0.2-3,2.1-3.9,3.7c-0.5,1-1.1,2-1.6,2.2
		c-1,0.3-2.3,1.1-3.5,1.8c0.2-0.5,0.4-1,0.5-1.5c1.5-5.3-1.6-10.9-4.2-13c-2.6-2.2-6.9-2.1-8.9-1.1c-0.9-2.7-2.5-5-4-6.2
		c-2.7-2.2-7.2-2-9.1-0.9c-0.7,0.3-5.1,2.2-5.3,9.2c0,1.9,0.1,3.5,0.4,4.9c-0.3-0.1-0.6-0.4-1.1-0.7c-2.1-1.6-3.8-1-5.5,0
		c0,0,0,0,0,0c-0.6,0-1.1,0.1-1.8,0.2c-0.4,0.1-0.7,0.2-1.1,0.3c-2.5-1.8-4.1,0.9-5.9,3.6c-1.2,1.8-1.7,3.8-1.3,5.6
		C-0.3,34.6-0.7,42.8,1.2,49c2.9,9,8.2,15.3,15.4,18.2c-1.8,0-4.4,0-6.1,0c-2.9,0-8.6,0.3-8.6,1.3s8.1,1.5,12.4,1.7
		c4.3,0.2,10.4,1.4,17,1.4c6.6,0,10.4,0.6,15.8,0c5.4-0.6,16.7,1.2,23.2,0.9c6.5-0.3,6.2-1.5,9.6-1.7s8.8,1.2,13.4,1.1
		s15.5,0.2,21.7-0.3c6.3-0.5,27.1-0.5,25.3-2.4c-1.8-1.9-8.1-0.3-12.1-0.7c-1.6-0.2-3.5-0.3-5.2-0.3
		C129.5,66.6,135.9,62.7,141.9,53.7z M112.4,51.5c0,0,0.1,0,0.1,0c0,0-0.1,0.1-0.1,0.1C112.3,51.6,112.4,51.6,112.4,51.5z
		 M36.2,13.9c0.4-0.2,0.6-0.3,0.7-0.3c0,0,0,0,0,0c0,0,0.1,0,0.1-0.1c1.5-0.9,5.3-1,7.4,0.8c2.3,1.9,4.9,7,3.7,11.4
		C47,30,43.4,32.4,38.8,32c-3.7-0.3-5.8-2.9-6.1-7.8c0-0.3,0-0.6,0-0.9c0-0.3,0-0.6,0-0.9c0-0.2,0-0.5,0-0.8c0-1.4,0.2-2.5,0.5-3.5
		c0,0,0.1-0.1,0.1-0.1c0.2-0.2,0.2-0.4,0.2-0.6c0.6-1.5,1.4-2.4,2.1-3C35.8,14.2,36,14,36.2,13.9z M44,32.7
		c-0.4,0.7-0.8,1.6-1.2,2.6c-0.5-0.5-1.2-1.1-2.3-1.8C41.8,33.4,43,33.1,44,32.7z M33.4,30.8c-1-0.2-1.9-0.3-2.7-0.4
		C28,30.2,26.3,30,24.4,27l-0.5-0.9c-0.2-0.3-0.4-0.7-0.6-1c0.9,0.4,1.8,0.5,2.6,0.6c0.3,0,0.7,0,1,0c1.6,0,3.1-0.3,4.4-0.9
		C31.5,27.6,32.3,29.5,33.4,30.8z M24,6.3c0.1,0,0.1,0,0.2-0.1c1.5-0.9,5.3-1,7.5,0.8c1.4,1.1,2.8,3.3,3.5,5.8c-1,0.7-2.5,2-3.4,4.4
		c-0.4,0.3-1.3,0.8-2.9,0.9c-2.1,0.1-4.2-0.1-4.9-0.2c-0.1-0.5-0.2-0.9-0.2-0.9c-0.2-0.4-0.6-0.6-1-0.4c-0.4,0.2-0.6,0.6-0.4,1
		c0,0,0.2,0.6,0.1,1.3l-0.2,1c-0.1,0.4,0.2,0.8,0.6,0.9c0,0,0.1,0,0.1,0c0.4,0,0.7-0.3,0.8-0.6l0.1-0.4c0.2,0.6,0.6,1.7,1.1,2.3
		c0.1,0.1,0.2,0.2,0.3,0.3c0.3,0.3,0.6,0.7,1.1,0.7c0,0,0,0,0.1,0c0.4,0,0.8-0.3,1-0.5c0.7-0.7,1-2.3,1-2.9c0.2,0,0.4,0,0.6,0
		c1-0.1,1.7-0.2,2.3-0.5c-0.1,0.7-0.2,1.5-0.2,2.4c0,0.6,0,1.2,0,1.8c-1.5,0.7-3.2,1.1-5.1,0.9c-1.3-0.1-2.4-0.5-3.3-1.1
		c-1-0.7-1.8-1.9-2.2-3.3c-0.5-1.5-0.7-3.4-0.7-5.7C19.9,7.8,23.9,6.4,24,6.3z M26.9,19.7c-0.1,0.7-0.3,1.4-0.5,1.7
		c-0.1-0.1-0.2-0.2-0.3-0.4c-0.2-0.3-0.5-0.8-0.7-1.4C25.8,19.6,26.3,19.7,26.9,19.7z M24.4,67.5C14,66.6,6.3,59.9,2.7,48.5
		C1,43.3,1.2,36.2,2.9,30.3c0.1,0.2,0.2,0.4,0.4,0.5c2,2.2,2.4,3,2.6,1.1c0.2-1.9,2.6-3.8,4.7-4.7s1.2-0.6,1.2-3.1
		c0-1.5-0.9-3-1.6-4c0.1,0,0.2-0.1,0.3-0.1c0.5-0.1,1-0.2,1.5-0.2c0.1,0.3,0.3,0.6,0.5,1c1.1,1.7,1.7,3.9,3.8,3.3
		c2.1-0.6,2.4,0.2,3.8,0c0.3,0,0.5,0.1,0.7,0.3c0.6,0.8,1.1,1.7,1.6,2.5c0.2,0.3,0.4,0.6,0.5,0.9c2.3,3.6,4.6,3.9,7.4,4.2
		c1.6,0.2,3.5,0.4,5.8,1.3c5.3,2,5.8,3.8,5.8,4c-1.1,4.2-0.7,9.3,1,13.9c0,1.1,0.1,2.6,0.3,2.9c0.3,0.6,0.7,2.1,1,2.7
		c0.3,0.6,0.9,2.5,0.5,4.3c0,0.1,0,0.2-0.1,0.3C40.2,66.9,34.6,68.4,24.4,67.5z M58.5,68.6c-1.8-0.9-7.1-3-10.5-3
		c-2.6,0-5,1.8-10.2,2.6c3.9-1.3,7.2-3.9,10.3-8.4c0.7,0.8,1.3,1.4,2,1.9c0.1,0.1,1.9,1.9,5,3.3c1,0.5,1.6,1.1,2.3,1.7
		c0.7,0.6,1.3,1.3,2.4,1.8c0.4,0.2,0.9,0.3,1.4,0.4C60.1,69,59.1,68.9,58.5,68.6z M60.5,67.2c-0.9-0.4-1.4-1-2-1.6
		c-0.7-0.7-1.5-1.4-2.7-2c-2.8-1.4-4.5-3-4.6-3.1c-1.8-1.6-3.9-3.8-6.1-8.6c-2.1-4.7-2.7-10-1.5-14.4c1.3-4.7,3.7-6.9,3.7-6.9
		c1.1-0.8,4.1-2.9,5.6-3.4c1.2-0.4,1.8-1.6,2.5-2.9c0.7-1.4,1.5-2.8,2.7-2.9c1.9-0.2,2.6,1.4,3.1,3l0.1,0.2c0.4,1.1,2.2,1.4,4.1,1.8
		c0.7,0.1,1.5,0.3,1.8,0.4c6.6,3.3,10.1,8.1,10.6,14.4c0,0.6,0.1,1.2,0.2,1.9c0.4,3.1,0.9,7-2.2,12c-2.7,4.2-3.2,4.5-4,4.9
		c-0.4,0.2-0.9,0.5-1.8,1.2c0,0,0,0,0,0C70,61.4,69.5,61.7,69,62c-1.6,0.9-3.7,2.1-4.2,3.6c-0.2,0.7-0.9,1.3-1.8,1.6
		C62.1,67.6,61.2,67.5,60.5,67.2z M75.2,67.2c-2.4,0.3-4.7,0.1-7.1,0.7c-1.3,0.3-3.3,0.7-5.2,0.9c0.2-0.1,0.5-0.1,0.7-0.2
		c1.3-0.5,2.3-1.4,2.7-2.5c0.3-1,2.4-2.1,3.6-2.8c0.6-0.4,1.1-0.6,1.4-0.9c0.7-0.6,1.1-0.8,1.5-1c0.3-0.2,0.6-0.3,0.9-0.6
		c0.8,2.7,2.7,4.5,5.3,6C77.7,66.8,76.8,67,75.2,67.2z M85.3,67.8c-3.6-1.2-6.2-2.4-7.8-3.8c-0.3-0.7-0.6-1.5-0.7-1.8
		c-0.1-0.6,0.2-1.8-0.4-2.7s0-1.3,0.9-2c0.5-0.4,0-0.8-0.7-0.8c0.2-0.3,0.3-0.5,0.5-0.8c3.5-5.5,2.9-9.8,2.5-13
		c-0.1-0.6-0.2-1.2-0.2-1.8c-0.2-2.7-0.9-5.1-2.1-7.4c0,0,0,0,0,0c0.1-0.1,3.1-2.7,5.7-7.3c2.6-4.5,6.2-9.8,8.5-10.9
		c2.6-1.3,6.7-1.7,9.3,0c2.6,1.7,8.1,14,8.3,17.7c0.1,1.2,0.3,3.2,0.7,5.4c0.7,4.7,1.6,11.1,0.9,14.2c-4.8,2.9-10.8,4.7-13.8,4.7
		c-0.1,0-0.2,0-0.2,0c-2.5,0-3.8,0.6-4.5,1.2c-0.2-0.1-0.3,0.1-0.4,0.4c-0.4,0.5-0.5,0.9-0.5,1c-0.3,4.1,0,4.5,0.2,4.7
		c0.3,0.4,1.9,1.5,4.7,2.5C93.8,68.2,89.4,69.2,85.3,67.8z M109,68C109,68,109,68,109,68c-6,0-10.3-1.3-13-2.4
		c-0.1-0.2-0.2-0.4-0.2-0.6c1.1,0.2,4.5,0.8,9.1,0.8c9.2,0,22.9-2.4,31.2-15c0.2-0.4,0.1-0.8-0.2-1.1c-0.4-0.2-0.8-0.1-1.1,0.2
		c-12.7,19.2-38.8,13.5-39,13.4c-0.1,0-0.2,0-0.4,0c-0.4-0.9-1.3-1.7-1.4-2.2c-0.1-0.6,1-0.8,1.6-1c0.4-0.2,0.4-0.8,0.4-1.2
		c0.2,0,0.4,0,0.6,0c0.1,0,0.2,0,0.2,0c3.7,0,10-2.1,14.8-5.1c0.1,0,0.1-0.1,0.2-0.1c1.5-1,2.9-2,4-3.1c9.5-9.6,12.1-32.5,12.1-32.8
		c0.2-2.8,1-4.9,2.3-6.3c0.8,0,1.8,0,2.6,0c2,3.7,5.7,11.7,6.3,19.6c0,0.4,0.4,0.7,0.8,0.7c0,0,0,0,0.1,0c0.4,0,0.7-0.4,0.7-0.8
		c-0.7-7.9-4.2-15.7-6.3-19.7c0.3-0.2,0.5-0.4,0.7-0.6c7.1,7,15.2,27.4,5.5,42.1C130.6,68,119.1,68,109,68z"/>
	<path id="XMLID_188_" class="st0" d="M97.6,54.6c1-1.3,1.5-2.9,1.7-4.5c0.1-0.1,0.1-0.2,0.1-0.3c0.2-4.6,0.7-7.2,0.7-7.2
		c0.1-0.4-0.2-0.8-0.6-0.9c-0.4-0.1-0.8,0.2-0.9,0.6c0,0.1-0.1,0.6-0.3,1.7c-0.1-0.2-0.2-0.4-0.3-0.6c-1.8-3.4-4.9-5.5-8.5-5.5
		c0,0,0,0-0.1,0c-0.1,0-7.5,0.4-9.1,9.9c-0.7,4,1.3,7.5,5.4,9.2c1.4,0.6,3.1,0.9,4.7,0.9C93.3,57.8,96,56.9,97.6,54.6z M87.4,44.1
		c-0.5,1.1-0.1,2.4-1.3,1.5c-1-0.8-0.9-3.4-0.8-4.3c0-0.2,0-0.3,0-0.3c0-0.2,0.6-0.5,1.2-0.6c0.3-0.1,0.7-0.1,1-0.1
		C88.1,40.5,87.8,43.1,87.4,44.1z M90.4,42.6c-0.1,0.7-0.7,1.1-0.9,0.6c-0.3-0.6-0.4-2.6-0.4-2.6c0.3-0.5,1.6-0.2,1.7,0
		S90.4,41.9,90.4,42.6z M93.2,43c-0.2,0.7-0.8,1-1,0.4c-0.2-0.6,0.1-2.6,0.1-2.6c0.4-0.5,1.6,0,1.7,0.3C94,41.3,93.3,42.4,93.2,43z
		 M96.7,46c-0.6,0.5-1.9,1.8-2.5,1.5s-0.2-1,0.2-1.8s0.7-3.1,0.7-3.1c0.2-0.9,1.1,0.6,1.5,1.5C97.1,45.1,97.3,45.5,96.7,46z"/>
	<path id="XMLID_194_" class="st0" d="M55.6,47.7c0.1,0,0.3,0,0.4,0c0.8,0,1.6-0.3,2.2-0.9c1.2-1,2-2.9,1.9-4.6c0-0.4,0-4.8-3.2-5.2
		c-1.4-0.2-2.7,0.2-3.7,1.2c-1.1,1.1-1.7,2.7-1.6,4.4C51.9,44.5,52.5,47.2,55.6,47.7z M54.4,39.3c0.6-0.5,1.3-0.8,2-0.8
		c0.1,0,0.3,0,0.4,0c1.9,0.3,1.8,3.7,1.8,3.7c0,0,0,0,0,0c0,1.3-0.6,2.7-1.4,3.4c-0.3,0.3-0.8,0.6-1.4,0.5c-0.5-0.1-1-0.2-1.4-0.6
		c0.9,0.3,1.6-0.2,2-0.9c0,0,0,0,0,0c0.2-0.3,0-0.9-0.3-1c-0.3-0.1-1.2-0.5-1.2-0.7c0-0.2,0.8-0.4,1.3-1c0.5-0.5-0.3-1.5-0.3-1.6
		c-0.1-0.1-0.2-0.2-0.3-0.2c-0.8-0.5-0.8-0.8-1.6-0.4C54.1,39.6,54.3,39.4,54.4,39.3z"/>
	<path id="XMLID_195_" class="st0" d="M16.3,39.8C16.3,39.8,16.3,39.8,16.3,39.8c0.2-0.3,0-0.9-0.3-1c-0.3-0.1-1.2-0.5-1.2-0.7
		c0-0.2,0.8-0.4,1.3-1c0.5-0.5-0.3-1.5-0.3-1.6c-0.1-0.1-0.2-0.2-0.3-0.2c-0.8-0.5-0.8-0.9-1.8-0.3c0,0-1,0.4-1,2
		c-0.1,1.5,0.1,3.3,1.6,3.8C15.1,41,15.9,40.5,16.3,39.8z"/>
	<path id="XMLID_196_" class="st0" d="M22.7,37.6c0.9,0.3,1.7-0.2,2.1-0.9c0,0,0,0,0,0c0.2-0.3,0-0.9-0.3-1
		c-0.3-0.1-1.2-0.5-1.2-0.7c0-0.2,0.8-0.4,1.3-1c0.5-0.5-0.3-1.5-0.3-1.6c-0.1-0.1-0.2-0.2-0.3-0.2c-0.8-0.5-0.8-0.9-1.8-0.3
		c0,0-1,0.4-1,2C21.1,35.4,21.3,37.1,22.7,37.6z"/>
	<path id="XMLID_199_" class="st0" d="M96.5,37.9c0.3,0.1,0.6,0.1,0.9,0.1c0.6,0,1.3-0.2,1.9-0.6c1.3-0.9,2.4-2.5,2.6-4.3
		c0.1-0.4,0.7-4.7-2.3-5.6c-1.3-0.4-2.7-0.2-3.8,0.6c-1.3,0.9-2.1,2.4-2.2,4.1C93.3,34.2,93.5,37,96.5,37.9z M97.9,35.1
		C97.9,35.1,97.9,35.1,97.9,35.1c0.2-0.3,0.1-0.9-0.2-1.1c-0.3-0.1-1.1-0.7-1.1-0.9c0-0.2,0.9-0.3,1.4-0.8c0.5-0.4,0-1.6-0.1-1.6
		c-0.1-0.1-0.1-0.2-0.2-0.3c-0.7-0.6-0.7-0.9-1.6-0.6c0.1-0.2,0.3-0.3,0.5-0.4c0.5-0.4,1.1-0.5,1.7-0.5c0.3,0,0.6,0,0.9,0.1
		c1.8,0.6,1.3,3.9,1.3,3.9c0,0,0,0,0,0c-0.2,1.3-0.9,2.6-1.9,3.2c-0.4,0.2-0.9,0.5-1.5,0.3c-0.5-0.1-0.9-0.4-1.3-0.8
		C96.5,36.1,97.3,35.7,97.9,35.1z"/>
	<path id="XMLID_215_" class="st0" d="M86.1,36.3c0.3,0.1,0.6,0.1,0.9,0.1c0.6,0,1.3-0.2,1.9-0.6c1.3-0.9,2.4-2.5,2.6-4.3
		c0.1-0.4,0.7-4.7-2.3-5.6c-1.3-0.4-2.7-0.2-3.8,0.6c-1.3,0.9-2.1,2.4-2.2,4.1C83,32.7,83.2,35.4,86.1,36.3z M87.5,33.5
		C87.5,33.5,87.5,33.5,87.5,33.5c0.2-0.3,0.1-0.9-0.2-1.1c-0.3-0.1-1.1-0.7-1.1-0.9c0-0.2,0.9-0.3,1.4-0.8c0.5-0.4,0-1.6-0.1-1.6
		c-0.1-0.1-0.1-0.2-0.2-0.3c-0.7-0.6-0.7-0.9-1.6-0.6c0.1-0.2,0.3-0.3,0.5-0.4c0.5-0.4,1.1-0.5,1.7-0.5c0.3,0,0.6,0,0.9,0.1
		c1.8,0.6,1.3,3.9,1.3,3.9c0,0,0,0,0,0c-0.2,1.3-0.9,2.6-1.9,3.2c-0.4,0.2-0.9,0.5-1.5,0.3c-0.5-0.1-0.9-0.4-1.3-0.8
		C86.2,34.5,87,34.1,87.5,33.5z"/>
	<path id="XMLID_216_" class="st0" d="M134.7,38.6c0.9,0.4,1.7,0.1,2.2-0.6c0,0,0,0,0,0c0.2-0.2,0.1-0.9-0.2-1
		c-0.3-0.1-1.1-0.7-1.1-0.9c0-0.2,0.9-0.3,1.4-0.8c0.5-0.4,0-1.6-0.1-1.6c-0.1-0.1-0.1-0.2-0.2-0.3c-0.7-0.6-0.7-1-1.7-0.6
		c0,0-1,0.3-1.3,1.8C133.4,36.1,133.3,37.9,134.7,38.6z"/>
	<path id="XMLID_217_" class="st0" d="M126.5,37.1c0.9,0.4,1.7,0.1,2.2-0.6c0,0,0,0,0,0c0.2-0.2,0.1-0.9-0.2-1
		c-0.3-0.1-1.1-0.7-1.1-0.9c0-0.2,0.9-0.3,1.4-0.8c0.5-0.4,0-1.6-0.1-1.6c-0.1-0.1-0.1-0.2-0.2-0.3c-0.7-0.6-0.7-1-1.7-0.6
		c0,0-1,0.3-1.3,1.8C125.2,34.7,125.1,36.4,126.5,37.1z"/>
	<path id="XMLID_218_" class="st0" d="M48.3,34.8c-0.4-0.1-0.8,0.1-1,0.5c0,0.1-0.2,0.5-0.3,0.8c-0.4,0.6-0.2,1.5-0.1,1.9
		c0.1,0.3,0.4,0.6,0.7,0.6c0.1,0,0.1,0,0.2,0c0.4-0.1,0.7-0.5,0.6-0.9c-0.1-0.3-0.1-0.6-0.1-0.7c0.3-0.4,0.5-1,0.5-1.1
		C48.9,35.3,48.7,34.9,48.3,34.8z"/>
	<path id="XMLID_230_" class="st0" d="M64,32.8c0.2,0.2,0.7,0.7,0.7,0.7l1.1-1.1c0,0-0.4-0.5-0.6-0.7c-0.1-0.1-0.3-0.7-0.5-1.2
		c-0.1-0.4-0.6-0.6-1-0.5c-0.4,0.1-0.6,0.6-0.5,1C63.6,32.5,63.9,32.7,64,32.8z"/>
	<path id="XMLID_231_" class="st0" d="M73.9,46.5c0.2,0.2,0.4,0.2,0.6,0.2c0.2,0,0.4-0.1,0.5-0.2c0.3-0.3,0.3-0.8,0-1.1
		c-0.1-0.1-0.2-0.3-0.3-0.4c-0.1-0.3-0.4-1.2-0.4-1.2l-1.5,0.5c0,0,0.3,0.8,0.3,1.1C73.4,45.9,73.8,46.4,73.9,46.5z"/>
	<path id="XMLID_232_" class="st0" d="M61.3,61.9c-0.1-0.3-0.4-1.2-0.4-1.2l-1.5,0.5c0,0,0.3,0.8,0.3,1.1c0.1,0.5,0.5,0.9,0.6,1
		c0.2,0.2,0.4,0.2,0.6,0.2c0.2,0,0.4-0.1,0.5-0.2c0.3-0.3,0.3-0.8,0-1.1C61.4,62.1,61.3,61.9,61.3,61.9z"/>
	<path id="XMLID_236_" class="st0" d="M30.2,36.6c-1.6,0.1-1.7-0.2-2.2,1.9c0,0-0.5,3.8-2.7,4.9c-2.1,1.1-8.7,0-9.6,1.5s1,6.1,8,6.3
		s8.4-3.9,8.9-7.1C33,41,31.8,36.5,30.2,36.6z M29.6,40c0.1-0.4,0.6-1,0.7-0.5c0,0,0.2,0.6,0.3,1.2c0.1,0.5,0,1.3,0,1.5
		c-0.1,0.4-0.6,0.3-0.9-0.2c-0.2-0.6-0.4-0.9-0.5-1.1C29.1,40.6,29.5,40.4,29.6,40z M20.8,47.1c-0.2-0.1-0.8-0.6-1.1-1
		c-0.3-0.4-0.7-1-0.7-1c-0.3-0.5,0.5-0.4,0.8-0.3c0.3,0.2,0.8,0,0.9,0.3c0.1,0.3,0.2,0.6,0.5,1.1S21.3,47.3,20.8,47.1z M29.7,46.6
		c-0.4,0.4-1.4,1-2.4,1.4c-0.3,0.1-0.5,0.2-0.8,0.3c-0.2,0.1-0.4,0.1-0.6,0.1c-1.5,0.3-2.8-0.3-2.8-0.3c-0.2-0.3,0.1-0.9,0.9-1.5
		c0.4-0.4,1-0.7,1.7-1c0.1,0,0.2-0.1,0.3-0.1c1.8-0.8,4.5-0.8,4.6-0.7C30.7,44.9,30.3,46,29.7,46.6z"/>
	<path id="XMLID_239_" class="st0" d="M137.6,46.1c-1.4-0.7-1.2-1.6-1.1-1.8c0.1-0.4-0.1-0.8-0.5-1c-0.4-0.1-0.8,0.1-1,0.5
		c-0.1,0.4-0.2,1.1,0,1.8c-3.2,2.4-6,1.8-6.1,1.8c-3.8-1.1-3.6-3.4-3.6-3.6c0.1-0.4-0.2-0.8-0.7-0.9c-0.4-0.1-0.8,0.2-0.9,0.7
		c0,0.1-0.4,3.7,4.7,5.2c0.1,0,0.5,0.1,1.2,0.1c1.4,0,3.7-0.3,6.1-2.1c0.3,0.2,0.6,0.5,1,0.7c0.1,0,0.2,0.1,0.3,0.1
		c0.3,0,0.6-0.2,0.7-0.4C138.1,46.8,137.9,46.3,137.6,46.1z"/>
	<path id="XMLID_240_" class="st0" d="M23.4,14.6c0.6,0.2,1.1-0.1,1.4-0.6c0,0,0,0,0,0c0.1-0.2,0-0.6-0.2-0.7
		c-0.2-0.1-0.8-0.4-0.8-0.5c0-0.1,0.5-0.3,0.9-0.7c0.3-0.3-0.2-1-0.2-1.1c-0.1-0.1-0.1-0.1-0.2-0.1c-0.5-0.3-0.6-0.6-1.2-0.2
		c0,0-0.7,0.3-0.7,1.3C22.3,13.1,22.4,14.2,23.4,14.6z"/>
	<path id="XMLID_242_" class="st0" d="M30,14.1c0.6,0.2,1.1-0.1,1.4-0.6c0,0,0,0,0,0c0.1-0.2,0-0.6-0.2-0.7
		c-0.2-0.1-0.8-0.4-0.8-0.5c0-0.1,0.5-0.3,0.9-0.7c0.3-0.3-0.2-1-0.2-1.1c-0.1-0.1-0.1-0.1-0.2-0.1c-0.5-0.3-0.6-0.6-1.2-0.2
		c0,0-0.7,0.3-0.7,1.3C28.9,12.6,29,13.8,30,14.1z"/>
	<path id="XMLID_243_" class="st0" d="M42.1,20.7c-0.3,0.1-0.5,0.6-0.3,0.9c0,0,0,0,0,0c0.4,0.6,1,1.1,1.8,0.8
		c1.3-0.4,1.4-2,1.4-3.3c0-1.4-0.9-1.7-0.9-1.7c-0.9-0.5-0.9-0.2-1.6,0.3c-0.1,0.1-0.2,0.1-0.2,0.2c0,0.1-0.7,1-0.3,1.4
		c0.4,0.5,1.1,0.7,1.1,0.8C43.2,20.2,42.4,20.6,42.1,20.7z"/>
	<path id="XMLID_244_" class="st0" d="M35.5,21.2C35.5,21.3,35.5,21.3,35.5,21.2c0.4,0.6,1.1,1.1,1.8,0.8c1.3-0.4,1.4-2,1.4-3.3
		c0-1.4-0.9-1.7-0.9-1.7c-0.3-0.2-0.6-0.3-0.7-0.3c-0.3,0-0.4,0.2-0.8,0.5c0,0,0,0,0,0c-0.1,0.1-0.2,0.1-0.2,0.2
		c0,0.1-0.7,1-0.3,1.4c0,0,0.1,0.1,0.1,0.1c0.2,0.2,0.5,0.3,0.7,0.5c0.2,0.1,0.4,0.2,0.4,0.3c0,0.1-0.4,0.3-0.7,0.5
		c-0.1,0.1-0.3,0.1-0.4,0.1C35.5,20.4,35.3,21,35.5,21.2C35.5,21.2,35.5,21.2,35.5,21.2z"/>
	<path id="XMLID_247_" class="st0" d="M35.1,27.1c0.7,0.9,2.1,1.5,3.7,1.5c0.7,0,1.6,0,2.5,0c1.1,0,2.2,0,2.8,0c0,0.1,0,0.2,0,0.2
		c0,0.4,0.3,0.8,0.7,0.8c0,0,0,0,0.1,0c0.4,0,0.7-0.3,0.8-0.7c0.2-2.5,1.3-4.7,1.3-4.7c0.2-0.4,0-0.8-0.3-1c-0.4-0.2-0.8,0-1,0.3
		c0,0-0.2,0.4-0.4,0.9c-0.8-0.2-3.6-1-5.2-1c-0.5,0-4.6,0.1-5.1,2C34.6,26,34.7,26.6,35.1,27.1z M42.6,25.4c0.1,0.1,0.2,0.1,0.2,0.2
		c0.4,0.4,0.6,0.5,0.4,0.9c-0.1,0.1-0.2,0.4-0.3,0.6c-0.2,0.4-0.4,0.8-0.6,0.7c-0.3,0-0.3-0.3-0.3-0.7c0-0.1,0-0.1,0-0.2
		c0-0.4-0.3-1.5-0.3-1.6c0,0,0,0,0,0C41.6,24.7,42.2,25.1,42.6,25.4z M40.2,25c0-0.1,0-0.1,0-0.1c0.2-0.3,0.9,0,0.9,0.2
		c0,0,0,0.1,0,0.1c0,0.2-0.3,0.7-0.4,1c-0.1,0.4-0.5,0.6-0.6,0.2C40.1,26,40.2,25.3,40.2,25z M39.5,24.7c0,0,0,0.1,0,0.2
		c-0.1,0.2-0.2,0.6-0.2,0.9c0,0.4-0.4,0.6-0.5,0.3c-0.1-0.2-0.2-0.8-0.2-1.1c0-0.2,0-0.3,0-0.3C38.7,24.4,39.4,24.6,39.5,24.7z
		 M36.4,25c0-0.2,0.8-0.4,1.2-0.4c0.2,0,0.2,0.2,0.2,0.5c0,0.5-0.1,1.2-0.2,1.5c0,0.1,0,0.1-0.1,0.2c-0.1,0.3-0.1,0.6-0.2,0.8
		c-0.1,0.1-0.2,0.1-0.5-0.1c0,0-0.1-0.1-0.1-0.1c-0.2-0.3-0.3-0.7-0.4-1.1c0-0.2,0-0.4,0-0.6C36.4,25.3,36.4,25,36.4,25z"/>
</g>
</svg>
