<?xml version="1.0" encoding="utf-8"?>
<!-- Generator: Adobe Illustrator 19.0.0, SVG Export Plug-In . SVG Version: 6.00 Build 0)  -->
<svg version="1.1" id="Layer_1" xmlns="http://www.w3.org/2000/svg" xmlns:xlink="http://www.w3.org/1999/xlink" x="0px" y="0px"
	 viewBox="0 0 57.2 108.6" style="enable-background:new 0 0 57.2 108.6;" xml:space="preserve">
<style type="text/css">
	.st0{fill:none;}
	.st1{fill:#222;}
</style>
<g id="XMLID_56_">
	<path id="XMLID_233_" class="st0" d="M6.6,94.5c-1.4-0.4-3.6-1.4-4.1-3.6c-0.3-1.4-0.1-2.8,0.7-3.9c0.4-0.6,1-1,1.6-1.3
		c0.1-0.2,0.1-0.3,0.1-0.5c0-0.3,0-0.4-0.1-0.5c-1.1,0.6-2.4,1.6-3,3.2c-0.6,1.6-0.2,3.5,0.9,5c0.6,0.8,1.8,2,3.8,2.5
		c0.1-0.1,0.2-0.2,0.2-0.3C6.7,94.9,6.7,94.7,6.6,94.5z"/>
	<path id="XMLID_241_" class="st0" d="M4.4,88c-0.5,0.7-0.7,1.6-0.5,2.6c0.3,1.5,2.5,2.3,3.4,2.5c0-0.2-0.1-0.4-0.1-0.7
		c-0.3-1.6-0.6-3.7-0.7-5.7C5.7,86.9,4.9,87.4,4.4,88z"/>
</g>
<g id="XMLID_57_">
	<path id="XMLID_277_" class="st1" d="M57.2,80.1c0-0.1,0-0.1,0-0.2c0-0.6,0-1.7-0.9-2.8c0,0,0,0,0,0c0,0,0,0,0,0
		c-0.5-0.6-1.2-1.1-2.3-1.5c-2.8-1.1-12.7-2.2-19.2-2.4c-0.3-0.6-0.6-1.2-0.7-1.9c-0.5-2.6,0.9-9.5,0.5-12.6
		c-0.4-3.1,0.1-12.3,0-15.8c-0.1-3.5,1.3-9.1,4.6-12.7c1.3-1.5,2-3.9,2.3-6.5l0,0c0,0,1.7-5.8,3.3-8.8s2-10.1-1.9-11.1
		c-3.9-1.1-7-2.2-7-2.2l0,0c-1.1-0.7-2.4-1.3-4-1.5c-7.4-1.2-13.7,6-13.8,14.4c-0.1,12.9,4.6,16.9,6.5,23.9s-1,6.1,2.4,15.3
		c3.5,9.2-1.7,14.9-1.7,17.8c0,0.6,0.1,1.3,0.1,1.8c-5.4,0.4-11.7,1.1-14.7,1.9c-4.3,1.2-4.9,2.4-4.8,4.9c0,0.1,0,1,0.1,2.2
		c-1.1,0.3-4.6,1.4-5.9,4.9c-0.7,2-0.3,4.5,1.1,6.5C3,96,5.4,97.1,8.1,97.1c0,0,0.1,0,0.1,0c0.4,1.5,1.1,2.5,2.6,3.5
		c2.2,1.5,7.7,2.8,9.3,3.2c0.3,0.8,1,2.6,2.2,3.3c1.7,1,3.2,0.4,3.9,0c0.1-0.1,0.2-0.1,0.2-0.2c0.4,0.6,1,1.1,1.9,1.4
		c1.2,0.3,2,0,2.4-0.3c0.5-0.3,0.9-0.8,1.1-1.4c0.2,0.7,0.5,1.4,1.4,1.8c0.3,0.1,0.7,0.2,1,0.2c1.1,0,2.2-0.6,2.9-1.8
		c0.4,0.6,0.9,1,1.6,1.2c0.8,0.2,1.5,0,2.1-0.4c0.6-0.5,1.1-1.2,1.2-2c0.1-0.6,0-1.2,0-1.7c2.1-0.6,8.5-2.4,10.3-3.1
		c2.5-1,3-4.3,3.5-7C56.2,91.7,57.4,80.8,57.2,80.1z M53.4,77c0.8,0.3,1.3,0.7,1.6,1c0.1,0.2,0.1,0.3,0.1,0.3
		c-0.1,0.2-0.6,0.5-3,1.3c-1.8,0.5-5.9,1-10.5,1.4c-1.7-0.7-3.2-2.5-3.7-3.5c-0.3-0.6-1.3-1.5-2.2-2.7C42.2,75.1,51,76.1,53.4,77z
		 M48.5,86.6c0.4,0.6,0.6,1.1,0.7,1.6c0,0.5-0.2,1.3-0.5,2c-0.6-0.3-1.6-0.6-2-1.1c0.5-0.9,1-2.2,1.4-3.3
		C48.2,86.1,48.4,86.4,48.5,86.6z M42.9,8.7c-0.1,3.1-0.1,3.6-1.3,6c0,0,0,0,0,0c0-0.8-0.1-1.5-0.1-2c-0.1-1.9-0.6-4.3-1.6-6.6
		C41.1,6.3,42.9,6.8,42.9,8.7z M31.7,13.8c0-1.4-0.2-4.3-0.5-5.4l0,0c-0.1-0.5-0.2-1.2,0.2-1.7c0.2-0.3,0.5-0.3,0.8-0.2
		c1.4,0.8,3.9,2.7,4.5,6.7c0.4,2.9,0.3,5.1-0.2,6.9c-0.9,2.6-2.7,4-5.3,4c0,0-0.2-0.7,0-1.8c0.1-0.3,0.1-0.8,0.2-1.5
		C31.5,18.7,31.7,15.1,31.7,13.8z M23.9,20.4c-0.6-1.7-0.8-4.1-0.3-7.1c0.6-3.9,2.9-5.8,4.4-6.6C28.6,6.3,29,6.2,29,6.2
		s0.1,0,0.1,0.1c0.1,0.1,0.3,0.3,0.4,0.7c0.1,0.6-0.4,5.2-0.5,6.2c-0.1,1-0.1,4.7,0,5.7c0,0.5,0.2,1.2,0.3,1.8
		c0.1,0.7,0.2,1.3,0.2,1.5c0,0.4,0,1.9-0.5,1.8C26.6,24,24.8,22.8,23.9,20.4z M28.1,73.3c-0.2-1.1,0.5-0.7,1.2-0.1
		c0.5,0.5,0.9,1.1,1,1.5c0,0,0,0,0,0.1c0.2,0.9-0.4,1.7,0.3,1.5c0.3-0.1,0.3-0.7,0.2-1.5c-0.1-0.5-0.2-1-0.3-1.5
		c-0.2-0.7-0.4-1.4-0.5-1.9c-0.5-1.7,1-5.2,1.3-5.8c0.3-0.5,0.7,3,0.7,3.6c0,0.3,0.8,2.3,1.5,4c0.2,0.5,0.4,1.1,0.6,1.6
		c0.3,0.7,0.4,1.3,0.5,1.6c0.1,1.1,1.6,3.6,1.3,4.3S33,81.4,31.4,81c-1.6-0.4-3,0-3,0s-0.7-1.2,0-2.8c0.5-1.1,0.3-2.2,0-3.3
		C28.3,74.4,28.2,73.9,28.1,73.3C28.1,73.3,28.1,73.3,28.1,73.3z M11.3,76.9c2.7-0.8,8.9-1.5,14.5-1.9c0.2,1.4,0.3,2.6-0.4,3.5
		c-1.2,1.5-1.2,0.9-3.5,1.4c-2.3,0.5-2.3,0.9-2.3,0.9c0,0,0,0,0,0.1c-4.8-0.5-9-1.2-10.1-1.5c-0.4-0.1-0.7-0.3-0.9-0.6
		c-0.2-0.3-0.2-0.7-0.1-0.9C9.1,77.6,10,77.3,11.3,76.9z M3.9,90.6c-0.2-1-0.1-1.9,0.5-2.6c0.5-0.7,1.2-1.1,2.1-1.2
		c0.2,2,0.4,4.1,0.7,5.7c0,0.2,0.1,0.4,0.1,0.7C6.4,92.9,4.3,92.2,3.9,90.6z M2.7,93c-1.1-1.6-1.5-3.5-0.9-5c0.6-1.6,1.9-2.6,3-3.2
		C4.9,84.8,5,85,4.9,85.3c0,0.2-0.1,0.3-0.1,0.5c-0.6,0.3-1.2,0.8-1.6,1.3c-0.8,1.1-1,2.4-0.7,3.9c0.5,2.1,2.8,3.1,4.1,3.6
		c0.1,0.2,0.1,0.4,0.1,0.6c0,0.1-0.1,0.2-0.2,0.3C4.5,95,3.3,93.8,2.7,93z M54.3,93.6c-0.4,2.4-0.8,5.1-2.5,5.8
		c-2,0.8-10.7,3.2-10.7,3.2c-0.4,0.1-0.6,0.5-0.5,0.9c0,0,0.2,1.1,0.1,1.9c0,0.3-0.2,0.7-0.5,1c-0.2,0.2-0.5,0.2-0.9,0.1
		c-0.7-0.2-1.1-1.6-1.2-2.3c-0.1-0.4-0.4-0.7-0.8-0.6c-0.4,0-0.7,0.4-0.7,0.8c0,0,0,0.5-0.4,1.6c-0.4,0.9-1.3,1.2-2,1
		c-0.3-0.1-0.3-0.3-0.5-1c-0.1-0.3-0.1-0.7-0.3-1c-0.3-0.7-0.7-0.9-1.1-0.9c0,0-0.1,0-0.1,0c-0.4,0-0.8,0.3-1,0.6
		c-0.1,0.1-0.1,0.2-0.1,0.3c-0.1,0.9-0.4,1.6-0.9,1.9c-0.3,0.2-0.7,0.2-1.2,0.1c-1.3-0.4-1.6-2.2-1.6-2.2c-0.1-0.4-0.4-0.7-0.8-0.6
		c-0.4,0-0.7,0.4-0.7,0.7c0,0.5-0.1,1-0.3,1.1c-0.3,0.2-1.2,0.6-2.3,0c-0.7-0.4-1.4-2-1.7-2.8c-0.1-0.3-0.3-0.5-0.6-0.5
		c-0.1,0-6.9-1.5-9.2-3.1c-1.8-1.2-2.1-2.5-2.6-5.5c-0.1-0.5-0.2-1.1-0.3-1.7C8,88.1,7.6,80.4,7.6,80.3c0,0,0,0,0,0
		c0-0.1,0-0.3,0-0.4c0.3,0.4,0.8,0.8,1.6,1c2.2,0.6,12.9,2.2,20.7,2.2c0.4,0,0.7,0,1,0c5-0.1,11.3-0.5,15.9-1c0.1,0.4,0.2,1,0.2,1.6
		c0,1-0.9,3.3-1.7,4.8c-0.6-0.2-1.4-0.3-1.9-0.1c-1.1,0.2-2.5,1.7-3.6,3.6c-1.1,1.9-0.8,3.6,0.7,5.1c1.4,1.5,4.3,1.3,6.8,0.2
		c2.4-1.1,2.4-2.5,2.4-3.8c0,0,0-0.6-0.1-1.3c0.4-0.9,1.2-2.6,1.1-3.9c0-0.9-0.4-1.6-0.9-2.3c-0.5-0.8-1-1.7-1.3-3.1c0,0,0,0,0,0
		c0-0.3-0.1-0.6-0.1-0.9c1.8-0.2,3.3-0.5,4.2-0.8c1.3-0.4,2.3-0.7,3-1.1c0,0.2,0,0.4,0,0.4C55.7,81.1,54.7,90.8,54.3,93.6z"/>
	<path id="XMLID_297_" class="st1" d="M35.3,95.5c-2.1-0.6-2.9-0.6-5.2,0c0,0-3.1,0.3-3.3,1.5c-0.2,1.2,1,1.6,2.3,1.4
		c1.3-0.2,2.4-0.7,4.3-0.6c1.9,0.1,2.9,0.5,3.3,0C37,97.3,37.3,96.1,35.3,95.5z"/>
	<path id="XMLID_298_" class="st1" d="M17.3,88.4c-2.6,0.6-2.8,2-3.1,3.3c0,0-0.5,2.3,0,2.9c0.5,0.6,1.8,1.2,2.2,1.9
		c0.4,0.7,1.9,1.4,2.9,1.4c1.1,0,2.8-1.2,4.2-2.8c1.4-1.7,1.4-3.4,0.3-5.1S19.9,87.8,17.3,88.4z"/>
</g>
</svg>
