<?xml version="1.0" encoding="utf-8"?>
<!-- Generator: Adobe Illustrator 19.0.0, SVG Export Plug-In . SVG Version: 6.00 Build 0)  -->
<svg version="1.1" id="Layer_1" xmlns="http://www.w3.org/2000/svg" xmlns:xlink="http://www.w3.org/1999/xlink" x="0px" y="0px"
	 viewBox="0 0 239.1 98.7" style="enable-background:new 0 0 239.1 98.7;" xml:space="preserve">
<style type="text/css">
	.st0{fill:#fff;}
</style>
<g id="XMLID_53_">
	<path id="XMLID_314_" class="st0" d="M18.8,83.5c0-1.3,0-2.6,0-3.9c0-3.5,0-7.2,0-7.6c0-0.3,0-1.1-0.1-2.6c-0.1-2.2-0.4-7.3-0.1-8
		c0.1-0.2,0.1-0.4,0.2-0.7c0-0.1,0-0.2,0-0.3c0,0,0,0,0,0c0-0.4-0.1-0.7-0.4-1c-0.6-0.8-1.9-1.2-3.7-1.1l-0.7,0c0,0,0,0,0,0
		c0-0.5,0-1-0.1-1.4c0.7-0.6,1.8-1.7,2.1-2.6c0.4-1.5-0.2-3.8-0.2-4.9s-1.7-2.8-1.7-4.1c0-1.2-1.1-2.4-1.1-0.7
		c0,1.7-0.1,1.4,0.3,3.6c0.5,2.2,0.5,3.4-0.3,3.5c-0.9,0.1-1-0.5-1-1.7c0-1.2-0.7-2.1-0.8-2.4s-0.4,1.5-0.4,3.2
		c0,1.8-0.5,2.6-0.2,3.7c0.2,0.9,1.2,1.9,1.7,2.3c0,0.4,0,1,0.1,1.5c-2.4,0.2-4.4,0.6-4.4,2.2c0,1.3,0.2,6.2,0.4,7.5
		c0.1,0.5-0.1,1.9-0.2,3.2C8,73.4,7.8,75.8,8,77.2c0.1,1.1,0.3,3.8,0.3,6.4c-1.9,0.2-6.3,0.8-7.6,2.1c-0.5,0.5-0.6,1-0.6,1.3
		c0,0,0,0,0,0c0,0.1,0,0.3,0.1,0.4c0,0.2,0.1,0.3,0.3,0.5c0.4,0.9,1.2,2.5,2.1,3.6C3.6,93,5.6,94,6,94.1c0,0,3.4,0.5,7.5,0.5
		c2.1,0,4.3-0.1,6.5-0.5c0.1,0,0.3-0.1,0.4-0.2c1.2-1,5.1-4.3,5.5-6.4c0.1-0.3,0.2-0.6,0.1-1C25.6,84.9,23,83.8,18.8,83.5z
		 M24.3,86.9c0,0-0.1,0.2-0.4,0.3c-0.4,0.2-2.8,0.6-5.1,1c0-0.7,0-1.7,0-3C23.2,85.6,24.2,86.7,24.3,86.9z M14.2,60l0.7,0
		c1.4-0.1,2.1,0.2,2.2,0.4c0,0,0,0.1,0,0.1c0,0.1-0.1,0.2-0.3,0.3c-0.6,0.5-1.7,0.9-2.6,0.9C14.1,61.2,14.1,60.7,14.2,60
		C14.1,60,14.2,60,14.2,60z M10,67.9c-0.1-1.2-0.4-5.8-0.4-7.2c0.4-0.3,1.6-0.4,2.8-0.6c0,0.4,0,0.8,0,1.2c-0.9-0.2-1.2-0.3-1.2-0.3
		c-0.5-0.1-0.9,0.2-1.1,0.6s0.2,0.9,0.6,1.1c0,0,0.7,0.2,2.4,0.5c0.1,0,0.1,0,0.2,0c0,0,0,0,0,0c0,0,0,0,0,0c0.2,0,0.5,0.1,0.7,0.1
		c0.9,0,1.9-0.2,2.7-0.6c0,1.5,0.1,3.7,0.2,6.7c0.1,1.1,0.1,2.2,0.1,2.4c0,0.4,0,3.2,0,7.7c0,3.4,0,7.3,0,8.9c-1,0.1-2,0.2-2.5,0.3
		c-1.2,0.1-2.7,0.1-4.4,0c0-2.3-0.2-9.7-0.5-11.7c-0.2-1.2,0-3.6,0.2-5.5C10,69.7,10.1,68.6,10,67.9z M8.3,85.4
		c0,1.3,0.1,2.4,0.1,3.2c-0.5-0.1-1-0.1-1.6-0.2c-3.5-0.5-4.6-1.1-5-1.4C2.6,86.3,5.9,85.7,8.3,85.4z M19.5,92.5c-6,1-13,0-13,0
		c0,0,0,0,0,0c-0.2-0.1-1.8-0.9-2.8-2c-0.2-0.3-0.5-0.7-0.7-1.1c0.9,0.3,2,0.5,3.5,0.7c2.2,0.3,4,0.4,5.5,0.4c1,0,1.9,0,2.6-0.1
		c1.1-0.1,5.5-0.6,8.2-1.2C22,90.3,20.7,91.5,19.5,92.5z"/>
	<path id="XMLID_321_" class="st0" d="M239,86.6c-0.3-1.6-2.9-2.8-7.2-3.1c0-1.2,0-2.6,0-3.9c0-3.5,0-7.2,0-7.6c0-0.3,0-1.1-0.1-2.6
		c-0.1-2.2-0.4-7.3-0.1-8.1c0.1-0.2,0.1-0.4,0.2-0.7c0-0.1,0-0.2,0-0.3c0,0,0,0,0,0c0-0.4-0.1-0.7-0.4-1c-0.6-0.8-1.9-1.2-3.7-1.1
		l-0.7,0c0,0,0,0,0,0c0-0.5,0-1-0.1-1.4c0.7-0.6,1.8-1.7,2.1-2.6c0.4-1.5-0.2-3.8-0.2-4.9s-1.7-2.8-1.7-4.1c0-1.2-1.1-2.4-1.1-0.7
		c0,1.7-0.1,1.4,0.3,3.6c0.5,2.2,0.5,3.4-0.3,3.5c-0.9,0.1-1-0.5-1-1.7c0-1.2-0.7-2.1-0.8-2.4s-0.4,1.5-0.4,3.2
		c0,1.8-0.5,2.6-0.2,3.7c0.2,0.9,1.2,1.9,1.7,2.3c0,0.4,0,1,0.1,1.5c-2.4,0.2-4.4,0.6-4.4,2.2c0,1.3,0.2,6.2,0.4,7.5
		c0.1,0.5-0.1,1.9-0.2,3.2c-0.2,2.1-0.4,4.5-0.2,5.9c0.1,1.1,0.3,3.8,0.3,6.4c-1.9,0.2-6.3,0.8-7.6,2.1c-0.7,0.7-0.7,1.4-0.6,1.7
		c0,0.2,0.1,0.3,0.3,0.5c0.4,0.9,1.2,2.5,2.1,3.6c1.2,1.5,3.2,2.5,3.6,2.6c0,0,3.4,0.5,7.5,0.5c2.1,0,4.3-0.1,6.5-0.5
		c0.1,0,0.3-0.1,0.4-0.2c1.2-1,5.1-4.3,5.5-6.4C239.1,87.2,239.1,86.9,239,86.6z M237.3,86.9c0,0-0.1,0.1-0.4,0.3
		c-0.4,0.2-2.8,0.6-5.1,1c0-0.7,0-1.7,0-3C236.2,85.6,237.3,86.7,237.3,86.9z M227.2,60l0.7,0c1.4-0.1,2.1,0.2,2.2,0.4
		c0,0,0,0.1,0,0.1c0,0.1-0.1,0.2-0.3,0.3c-0.6,0.5-1.7,0.9-2.6,0.9C227.2,61.2,227.2,60.7,227.2,60C227.2,60,227.2,60,227.2,60z
		 M225.4,60.2c0,0.4,0,0.8,0,1.2c-0.9-0.2-1.2-0.3-1.2-0.3c-0.5-0.1-0.9,0.2-1.1,0.6c-0.1,0.5,0.2,0.9,0.6,1.1c0,0,0.7,0.2,2.4,0.5
		c0.1,0,0.1,0,0.2,0c0,0,0,0,0,0c0,0,0,0,0,0c0.2,0,0.5,0.1,0.7,0.1c0.9,0,1.9-0.2,2.7-0.6c0,1.5,0.1,3.7,0.2,6.7
		c0.1,1.1,0.1,2.2,0.1,2.4c0,0.4,0,3.2,0,7.7c0,3.4,0,7.2,0,8.8c-1,0.1-2,0.2-2.5,0.3c-1.2,0.1-2.7,0.1-4.4,0
		c0-2.3-0.2-9.7-0.5-11.7c-0.2-1.2,0-3.6,0.2-5.5c0.1-1.8,0.2-2.9,0.1-3.5c-0.1-1.2-0.4-5.8-0.4-7.2
		C223.1,60.5,224.3,60.3,225.4,60.2z M221.4,85.4c0,1.3,0.1,2.4,0.1,3.2c-0.5-0.1-1-0.1-1.6-0.2c-3.5-0.5-4.6-1.1-5-1.4
		C215.7,86.3,218.9,85.7,221.4,85.4z M232.6,92.5c-6,1-13,0-13,0c-0.2-0.1-1.9-0.9-2.8-2c-0.2-0.3-0.5-0.7-0.7-1.1
		c0.9,0.3,2,0.5,3.5,0.7c2.2,0.3,4,0.4,5.5,0.4c1,0,1.9,0,2.6-0.1c1.1-0.1,5.5-0.6,8.2-1.2C235,90.3,233.8,91.5,232.6,92.5z"/>
	<path id="XMLID_328_" class="st0" d="M131.1,41.3c-1.6-0.8-2.4,0.2-3.2,1.3c-0.8,1.1-1.7,2.4-3.5,3.1c-1.7,0.6-2.4-1.1-2.5-1.4
		c0-0.5,0.1-1.4,0-1.8c0-0.4-0.1-0.7,0.1-0.7c0.2,0.1,0.6,0.3,0.8,0.5c0.1,0.2,0.5,0.4,0.7,0.2c0.2-0.2,0.3-0.6,0.4-1.1
		c0-0.5-0.5-1.1-1.7-1.2c-1.2-0.1-1.8-0.2-2-0.1c-0.2,0-1.5,0.5-1.7,0.8c-0.2,0.3-0.5,1-0.4,1.4c0.1,0.4,1.1,0.5,1.3,0.4
		c0.2-0.2,0.5-0.7,0.6-0.7c0.1,0,0.2,0,0.2,0.4c0,0.3,0,1.1,0,1.6h0l0,0c0,0.1,0,0.2,0,0.2c0,0,0,0.1,0,0.1c0,0,0,0,0,0.1
		c0,0.4-0.2,0.9-0.9,1c-0.9,0.2-1.4,0-1.7-0.1c-1.3-0.7-2.1-1.8-2.7-2.7c-0.8-1.1-1.6-2.1-3.2-1.3c-1.6,0.8,2.2,10.9,9.6,10.9h0.1
		C128.9,52.2,132.7,42.1,131.1,41.3z M116,46.6c0,0.7-0.4,1-0.8,0.6c-0.2-0.2-0.6-1-0.7-1.5c-0.2-0.6-0.3-1.3-0.3-1.3
		c-0.1-0.7,0.7-0.2,1,0.1c0.3,0.4,0.8,0.4,0.8,0.7S116,45.9,116,46.6z M124.4,50.2c-0.6,0.2-1.9,0.4-3.2,0.4c-0.3,0-0.6,0-0.9-0.1
		c-0.2,0-0.5-0.1-0.7-0.1c-1.7-0.4-2.8-1.6-2.8-1.6c-0.1-0.4,0.5-0.8,1.6-1.1c0.6-0.2,1.4-0.3,2.2-0.3c0.1,0,0.2,0,0.3,0
		c2.3,0.1,5,1.2,5.1,1.4C126.3,48.9,125.3,49.9,124.4,50.2z M126.6,46.6c0-0.7,0-1.1,0-1.4c0-0.3,0.5-0.3,0.8-0.7
		c0.3-0.4,1.1-0.8,1-0.1c0,0-0.1,0.8-0.3,1.3c-0.2,0.6-0.6,1.3-0.7,1.5C127.1,47.7,126.6,47.3,126.6,46.6z"/>
	<path id="XMLID_331_" class="st0" d="M115.6,39.5c0.8,0.3,1.5-0.2,1.8-0.8c0,0,0,0,0,0c0.2-0.2,0-0.8-0.3-0.9
		c-0.3-0.1-1.1-0.5-1-0.6c0-0.2,0.7-0.4,1.1-0.8c0.4-0.4-0.2-1.4-0.3-1.4c-0.1-0.1-0.2-0.1-0.2-0.2c-0.7-0.4-0.7-0.8-1.6-0.3
		c0,0-0.8,0.4-0.9,1.7C114.1,37.5,114.3,39,115.6,39.5z"/>
	<path id="XMLID_332_" class="st0" d="M121.9,59c0-0.4-0.3-0.7-0.4-0.8c-0.1-0.1-0.1-0.1-0.1-0.1s-0.5,0.2-1.2,0.6
		c-1.5,0.9-4,2.9-4.6,7c-0.5,3.2-0.3,5.7,0.3,7.5c0.9,2.5,2.9,3.8,5.5,4c0.5,0,0.5-1.5,0.5-2c0-0.2-0.1-0.9-0.2-1.6
		c-0.1-0.7-0.2-1.5-0.3-2c-0.1-1-0.1-4.9,0-6C121.5,64.6,121.9,59.7,121.9,59z"/>
	<path id="XMLID_333_" class="st0" d="M123.8,58.7c-0.4-0.1-0.7-0.1-0.9,0.2c-0.4,0.5-0.3,1.3-0.2,1.7l0,0c0.3,1.2,0.5,4.3,0.5,5.7
		c0,1.3-0.1,5.1-0.3,7.4c-0.1,0.7-0.1,1.3-0.2,1.5c-0.3,1.2,0,2,0,2c2.7,0,4.7-1.4,5.6-4.2c0.6-1.8,0.7-4.2,0.2-7.3
		C127.9,61.5,125.3,59.5,123.8,58.7z"/>
	<path id="XMLID_336_" class="st0" d="M161.5,68c2-1,4-3.6,3.7-6.1c-0.2-2.1-1.4-2.8-2-3c-0.5-0.1-1-0.1-1.4,0
		c0.1-0.5,0.1-1,0.2-1.6c0.1-3.4-1.6-4.7-3.3-4.8c-0.6,0-1.1,0.1-1.5,0.4c-0.1-0.3-0.3-0.5-0.5-0.8c-0.4-0.4-0.8-0.8-1.3-1
		c-1-0.5-2.1-0.6-3-0.5c-1,0.1-1.9,0.5-2.6,1c-0.8,0.5-1.4,1.1-1.9,1.7c-0.3,0.4-0.6,0.8-0.8,1.2c-0.4-0.2-0.8-0.4-1.3-0.7
		c-7.7-4.4-6.6-15.3-6.6-15.3h0c0.2-1.4,0.3-2.9,0.4-4.2c0.2-4.6-1.5-7.9-3.7-10.5c-1.6-1.8-3-5.8-6.4-7.8c-1.7-1.6-3.5-3.9-3.5-5
		c0-1.4-1.6-2.6-2.9-1.5c-1.3,1.1-0.8,2.9-2.9,3.8c-1.9,0.8-3.2,2.5-3.5,2.8c-1.9,1.3-4.9,5.3-6.9,6.5c-2.1,1.2-5.3,4.1-6,12.5
		c-0.1,1.7-0.2,3.1-0.2,4.3c0,0.2,0.1,1.7,0.3,3.3c0.2,1.2,0.4,2.4,0.8,3.1c0.9,1.8,1.9,4.3,1.8,5.1c-0.1,0.8-1.9-1.5-3.2-1.6l0,0
		c-1.3-0.1-1.6-0.2-2.7,1.2l0,0c-0.4,0.5-0.8,1-1.3,1.5c-0.2-0.2-0.3-0.4-0.5-0.5c-0.7-0.6-1.5-1.1-2.4-1.4c-0.9-0.3-2-0.4-3-0.2
		c-0.5,0.1-1,0.4-1.5,0.7c-0.2,0.2-0.4,0.4-0.6,0.6c-0.4-0.5-1.1-0.9-1.8-1c-0.7-0.1-3-0.2-3.7,3.7c-0.1,0.8-0.2,1.6-0.1,2.3
		c-0.3-0.1-0.7-0.3-1.2-0.3c-0.5,0-1.1,0.1-1.6,0.4c-0.5,0.3-0.9,0.9-1.2,1.5c0,0.1-0.1,0.3-0.1,0.4l0,0.1l0,0.1l0,0l0,0l0,0
		l-0.1,0.2c-0.1,0.3-0.1,0.7-0.1,1c0,0.7,0.1,1.4,0.3,2.1c0.2,0.7,0.5,1.3,0.9,1.9c0.4,0.6,0.9,1.1,1.5,1.6c0.3,0.2,0.6,0.4,1,0.6
		c0.4,0.1,0.8,0.2,1.2,0.2c0.1,0,0.2,0,0.3-0.1c0.1,0,0.3-0.1,0.3-0.1l0.1-0.1l0,0l0.1,0l0,0l0.1,0c0,0,0.1-0.1,0.1-0.1
		c0,0.1,0,0.1,0,0.2c0.1,0.3,0.2,0.7,0.3,1c0.1,0.4,0.3,0.7,0.5,1.1c0.1,0.2,0.2,0.4,0.4,0.5l0.2,0.3c0.1,0.1,0.2,0.2,0.2,0.2
		c0.2,0.2,0.3,0.3,0.5,0.4l0.1,0.1l0,0l0,0l0,0l0,0l0.1,0c0.1,0,0.2,0.1,0.3,0.1l0.3,0.1c0.1,0,0.2,0.1,0.3,0.1
		c0.2,0.1,0.4,0.2,0.6,0.2c0.4,0.1,0.9,0.2,1.3,0.2c0.2,0,0.4,0,0.6,0c0.1,0,0.1,0,0.2,0c0.8,0.8,2.6,2.4,5.3,3.6
		c3.9,1.7,6.2,1,6.5,2.2c0.1,0.2,0.1,0.6,0.1,1l0,0c0,0,1.2,6,4.5,7.5c2.5,1.2,5.4,1.9,6.9,3.2c0.2,0.1,0.3,0.3,0.4,0.4
		c0.3,0.3,0.5,0.7,0.6,1.1c0.5,2.4,0.1,7.7,2.3,8.6s4.8-2.2,6.8-5.9c1.2-2.3,1.3-3.4,2.3-4.3c0.6-0.6,1.6-1.1,3.6-1.7
		c5-1.8,6.5-5.2,7.2-7.3c0,0,0.3,0,0.4-0.1c1.3-0.3,5.7-1.4,7.7-3.6c1.1-1.1,2.1-2.8,2.9-4.4c0.7,0.5,1.6,0.8,2.7,0.8
		c0.6,0,1.3-0.1,2.1-0.4c2-0.8,2.8-2.3,3.2-3.4c0,0,0.1,0.1,0.1,0.1c0.4,0.4,0.9,0.5,1.4,0.5C160.4,68.4,161,68.3,161.5,68z
		 M146.9,58.2L146.9,58.2c0,0,0-0.1,0.1-0.4c0-0.1,0.1-0.2,0.1-0.4c0-0.1,0.1-0.3,0.1-0.5c0.2-0.5,0.4-1.2,0.8-1.8
		c0.2-0.3,0.4-0.7,0.7-1c0.4-0.5,1-1,1.6-1.4c0.6-0.4,1.4-0.6,2.2-0.7c0.8-0.1,1.6,0,2.4,0.2c0.4,0.1,0.7,0.4,1,0.6
		c0.3,0.3,0.4,0.6,0.5,1c0.1,0.8-0.1,1.7-0.4,2.5c-0.2,0.5-0.4,1-0.7,1.5c-0.2,0.2-0.3,0.5-0.5,0.7c-0.5,0.6-1.2,1.1-1.8,1.1
		c-0.3,0-0.6,0-0.7-0.1c0,0,0,0-0.1,0l-0.1-0.1c0,0-0.1-0.1-0.1-0.1c-0.1-0.1-0.2-0.2-0.2-0.3c-0.2-0.5-0.2-1.1-0.1-1.6
		c0.1-0.3,0.2-0.6,0.3-0.8c0.1-0.2,0.1-0.4,0.2-0.5c0.1-0.4,0.3-0.7,0.4-0.9c0-0.1,0.1-0.2,0.1-0.2c0,0,0-0.1,0-0.1l0,0
		c0.1-0.1,0-0.3-0.1-0.4c-0.1-0.1-0.3-0.1-0.5,0c0,0,0,0-0.1,0.1c0,0-0.1,0.1-0.2,0.2c-0.1,0.2-0.4,0.5-0.6,0.8
		c-0.1,0.2-0.2,0.4-0.3,0.6c-0.1,0.3-0.2,0.6-0.3,0.9c-0.1,0.3-0.1,0.5-0.1,0.8c-0.1-0.1,0,0.3,0,0.3s0,0.6-0.4,0.6s-1.3-0.2-1.6,0
		c0,0,0,0,0,0.1c-0.1,0-0.2,0-0.3-0.1c-0.3,0-0.5,0-0.8,0c-0.2-0.2-0.3-0.3-0.5-0.5C146.8,58.5,146.9,58.3,146.9,58.2z M91.4,53.7
		c0-0.4,0.1-0.9,0.2-1.3c0.1-0.3,0.3-0.7,0.7-0.9c0.3-0.2,0.7-0.4,1.1-0.5c0.8-0.2,1.7-0.1,2.4,0.2c0.8,0.3,1.4,0.7,2,1.2
		c0.2,0.2,0.3,0.3,0.5,0.5c0.3,0.4,0.6,0.8,0.8,1.2c0.6,1.2,0.8,2.3,0.9,3.1c0,0.2,0,0.4,0,0.5c0,0.2,0,0.3,0,0.4c0,0,0,0,0,0
		c-0.2-0.1-0.3-0.1-0.5-0.1c-0.3-0.1-0.6-0.1-0.9-0.2l-0.5,0l-0.4,0c-0.4,0-0.7,0-1.1,0.1c0,0,0,0,0,0c0.1-0.4,0.1-0.7,0.1-1
		c0-0.6-0.2-1.2-0.3-1.6c-0.1-0.3-0.2-0.5-0.3-0.7c-0.1-0.1-0.1-0.2-0.2-0.3c-0.1-0.1-0.1-0.2-0.2-0.2c0-0.1-0.1-0.1-0.1-0.1l0,0
		c-0.1-0.1-0.2-0.1-0.2-0.1c-0.2,0-0.3,0.2-0.3,0.4c0,0,0,0,0,0.1c0,0.1,0,0.1,0,0.2c0,0.1,0.1,0.3,0.1,0.5c0,0.1,0.1,0.3,0.1,0.4
		c0.1,0.4,0.2,0.8,0.2,1.4c0,0.4,0,0.9-0.2,1.3c-0.7,0.2-1.3,0.4-1.9,0.8c-0.5-0.3-1.1-0.8-1.4-1.4c-0.1-0.1-0.1-0.2-0.2-0.3
		c-0.1-0.1-0.1-0.3-0.2-0.4c0,0,0-0.1-0.1-0.1c-0.2-0.5-0.4-1.1-0.5-1.6C91.3,54.6,91.3,54.2,91.4,53.7z M86.6,54.3
		c0.4-2,1.3-3.1,2.5-2.9c0.9,0.1,1.5,0.8,1.5,1.1c-0.1,0.4-0.2,0.8-0.2,1.2c0,0.5,0.1,1,0.2,1.5c0.1,0.5,0.2,1,0.4,1.5
		c-0.1,0.1-0.1,0.3-0.1,0.4c0,0.1,0,0.1,0.1,0.2c0,0.1,1.1,1.6-0.3,3.1l-1.3,0.5c-0.3,0-0.5-0.1-0.6-0.2c-0.7-0.4-1.3-1.1-1.8-2.1
		C86.5,57.3,86.3,55.9,86.6,54.3z M99.2,67.3c-0.8,0.2-1.5,0.3-2.1,0.2c-0.6-0.1-1.2-0.2-1.6-0.4c-0.4-0.2-0.7-0.4-1-0.4
		c-0.1-0.1-0.2-0.1-0.3-0.1c-0.1,0-0.1,0-0.1,0c-0.2-0.1-0.4-0.1-0.5,0.1c-0.1,0.2-0.1,0.4,0.1,0.5c0,0,0.1,0.2,0.3,0.3
		c0.2,0.2,0.6,0.4,1.1,0.6c0,0,0.1,0,0.1,0c0,0-0.1,0.1-0.1,0.1c-0.1,0.1-0.3,0.2-0.4,0.4c-0.2,0.1-0.4,0.3-0.6,0.4
		c-0.1,0.1-0.3,0.1-0.4,0.2c-0.1,0.1-0.3,0.1-0.4,0.2c-0.2,0.1-0.5,0.1-0.8,0.1c-0.1,0-0.1,0-0.2,0c-0.3,0-0.7,0-1.1-0.1
		c-0.2,0-0.3-0.1-0.5-0.2c-0.1,0-0.2-0.1-0.3-0.1L90.1,69c-0.1-0.1-0.2-0.1-0.3-0.2l-0.1,0l0,0l0,0c0,0,0,0,0,0l0,0l0,0l-0.1-0.1
		c-0.1-0.1-0.3-0.2-0.4-0.4c-0.1-0.1-0.1-0.1-0.2-0.2C89,68.1,89,68,88.9,67.9c-0.1-0.1-0.2-0.3-0.3-0.4c-0.2-0.3-0.3-0.6-0.4-0.9
		C88.1,66.3,88,66,88,65.7c-0.1-0.6-0.2-1-0.2-1.4c0,0,0,0,0,0c0-0.2,0-0.4,0-0.7c0-0.3-0.1-0.6-0.2-0.9c-0.2-0.5-0.4-0.8-0.6-1.2
		c0,0,0-0.1-0.1-0.1c-0.2-0.3-0.5-0.6-0.7-0.8c-0.4-0.4-0.7-0.6-0.7-0.6c-0.1-0.1-0.2-0.1-0.3,0c0,0,0,0,0,0
		c-0.1,0.1-0.2,0.2-0.1,0.4c0,0,0.2,0.3,0.5,0.7c0.2,0.2,0.3,0.5,0.5,0.8c0.2,0.3,0.4,0.7,0.5,1.1c0.1,0.4,0.1,0.9,0,1.2
		c-0.1,0.2-0.2,0.3-0.3,0.4c0,0-0.1,0.1-0.1,0.1l0,0l0,0L86,64.9c-0.1,0-0.1,0-0.1,0c0,0-0.1,0-0.1,0c-0.4,0.1-0.9-0.1-1.3-0.5
		c-0.4-0.3-0.8-0.8-1.2-1.3c-0.3-0.5-0.6-1-0.8-1.6c-0.2-0.6-0.3-1.1-0.3-1.7c0-0.3,0-0.5,0.1-0.8l0-0.2l0,0l0,0l0,0l0-0.1
		c0-0.1,0.1-0.3,0.1-0.4c0.2-0.4,0.4-0.8,0.7-1c0.6-0.4,1.3-0.3,1.7-0.1c0.2,0.1,0.4,0.2,0.4,0.2c0,0,0,0,0,0c0,0,0,0,0,0l0.2,0.1
		c0.1,0.5,0.2,0.8,0.4,1.2c0.5,1.1,1.2,1.9,1.9,2.4l-0.3-0.2c0,0,1.3,1.5,1.9,1.8c0.6,0.3,0.3,0.9,0.8,1.9c0.5,0.9,3.5,0.8,4.5,0.5
		c0.7-0.3,1.4-0.6,1.8-0.7c0.2-0.1,0.3-0.3,0.3-0.3l0,0c0,0,0.1,0,0.1,0c0.4-0.2,0.7-0.4,1-0.5c0.5-0.2,0.8-0.5,1-0.7
		c0.2-0.2,0.3-0.4,0.3-0.4c0-0.1,0-0.1,0-0.2c0-0.2-0.2-0.3-0.4-0.3l0,0c0,0-0.2,0-0.4,0.1c-0.3,0.1-0.6,0.3-1,0.5
		c-0.4,0.2-0.9,0.5-1.6,0.7c-0.6,0.2-1.3,0.4-2,0.3c-0.3,0-0.7-0.2-0.9-0.4l0,0l0,0l0,0L93,63.3l-0.1-0.1c-0.1-0.1-0.1-0.1-0.2-0.2
		c-0.1-0.1-0.2-0.3-0.2-0.5c-0.1-0.3-0.1-0.7,0.1-1c0.2-0.4,0.5-0.7,0.8-1c0.2-0.2,0.5-0.3,0.7-0.5c0.6-0.3,1.2-0.6,1.9-0.8
		c0,0,0.1,0,0.1,0c0.5-0.1,1-0.2,1.5-0.2l0.4,0l0.4,0c0.3,0,0.5,0.1,0.8,0.1c1,0.2,1.9,0.8,2.5,1.6c0.5,0.8,0.8,1.8,0.7,2.8
		c-0.1,1-0.4,1.8-1,2.5C100.8,66.7,100,67.1,99.2,67.3z M131.1,71.6l0.2,0.6l1.8,6.3l0.4,1.5l-1-0.2l-4.1-0.7l-2.2-0.4l-4,11.5
		l-3.6-11.6l-4.8,0.8L111,80l2-7l0.4-1.4l-11.3-3.5l11.5-3.3l-5.2-7.2c0,0,2.6,0.4,5.1,0.9c0.1,0,0.4,0.1,0.8,0.2
		c0.2,0,0.4,0.1,0.7,0.1c0.4,0,0.8,0,1.1-0.2c0.8-0.4-0.3-2.8-1.2-4.4c-0.1-0.3-0.3-0.6-0.5-0.9c0,0,0,0,0,0
		c-0.1-0.1-0.1-0.2-0.2-0.3c-1.9-2.1-5.7-3.7-5.9-9c-0.2-4.7,1.7-4,1.8-6.1c0.1-2.2,0.8-6,3.2-6.6c2.3-0.6,4.3-1.7,7-3.2
		c2.8-1.5,6-3.3,7.8-3.1c1.4,0.1,1.3-1.3,2.5-1.5c0.3,0,0.6,0,1.1,0.1c0.9,0.2,1.9,1,2.8,2.1c1.4,1.7,2.6,3.9,2.9,5.2
		c0,0.1,0,0.3,0.1,0.4c0.1,1.2,0,3-0.8,3.9c-0.1,0.1-0.2,0.2-0.3,0.3c0.1-0.1,0.2-0.2,0.3-0.3c-0.9,0.7-2.3,0.7-3.3-0.1l0,0l0,0
		c-0.7-0.6-1.4-1.6-1.6-2.6c-0.3-1.5-0.8-4-1-5l-0.2-0.5c-0.3-0.2-1.1-0.7-1.4,0.4c-0.3,1.3-2.8,1.5-3.7,2.2c0,0-2.6,1.7-2.7,3.6
		c-0.1,1.9-0.5,3.3,0,4.7c0.5,1.4,2.9,2.7,5,2.1c1.5-0.4,2.4-0.9,3.1-1.4l0,0c0,0,1.4-0.4,2.3,0.4c1.4,1.2,1.9,3.8,2.2,5.6
		c0.4,2.9-2.8,5.6-3.6,6.5c-0.3,0.3-0.7,0.7-1,1.1l0,0c0,0,0,0,0,0c-0.3,0.3-0.5,0.6-0.8,1c-0.8,1.1-1.9,2.7-2,3.8
		c-0.1,1,0.3,1.7,1.1,1.9c0.3,0.1,0.6,0.1,0.9,0c0.2-0.1,0.5-0.1,0.7-0.3c2.7-0.5,5.7-1,5.7-1l-5.2,7.2l11.5,3.3L131.1,71.6z
		 M127.7,37.8c-0.3-0.1-1.1-0.5-1-0.6c0-0.2,0.7-0.4,1.1-0.8c0.4-0.4-0.3-1.4-0.3-1.4c-0.1-0.1-0.2-0.1-0.2-0.2
		c-0.7-0.4-0.7-0.8-1.6-0.3c0,0-0.8,0.4-0.9,1.7c0,1.1,0.1,2.4,0.9,3c-1.9-0.7-2.2-2.6-2.1-4.4c0.1-1.8,1.5-2.3,1.5-2.3
		c1.5-0.7,1.5-0.2,2.6,0.4c1.2,0.6,1.9,2.4,1.9,3.8c0,1-0.8,2.3-2.1,2.7c0.2-0.2,0.4-0.4,0.5-0.6c0,0,0,0,0,0
		C128.2,38.4,128,37.9,127.7,37.8z M157.6,66.6c0,0.1-0.3,2.6-2.8,3.6c-1.7,0.7-3,0.3-3.9-0.4c-0.9-0.6-1.3-1.4-1.4-1.5
		c0.1,0,0.1-0.1,0.2-0.1c0.6-0.3,1.2-0.8,1.5-1.4c0.1-0.1,0-0.3-0.1-0.4c-0.1-0.1-0.4-0.1-0.5,0l0,0c-0.4,0.4-0.8,0.7-1.3,0.8
		c-0.5,0.1-1.1,0.2-1.6,0.3c-0.6,0.1-1.1-0.1-1.7-0.3c-0.1-0.1-0.3-0.1-0.4-0.2l-0.2-0.1c-0.1,0-0.1-0.1-0.2-0.1l-0.1-0.1
		c-0.5-0.6-0.8-1.3-1.3-2c-0.1-0.1-0.1-0.1-0.2-0.2c-0.1-0.5-0.2-0.9-0.3-1.5c0-0.1-0.1-0.3-0.2-0.5c-0.1-0.2-0.2-0.4-0.4-0.5
		c-0.3-0.3-0.7-0.4-1.1-0.5c-0.7-0.1-1.3-0.1-1.9-0.1c-0.1,0-0.3,0-0.4,0c-0.1,0-0.2,0-0.4-0.1l-0.1,0l0,0c0,0,0,0,0,0l0,0
		c0,0,0,0-0.1-0.1c-0.1,0-0.2-0.1-0.2-0.2c-0.3-0.4-0.5-0.9-0.4-1.4c0-0.5,0.3-0.9,0.7-1.2c0.2-0.1,0.4-0.3,0.7-0.4
		c0.1,0,0.2-0.1,0.4-0.2l0.4-0.1l0.1,0l0,0l0,0l0,0l0,0l0.2,0c0.1,0,0.3-0.1,0.4-0.1c0.3,0,0.6,0,0.8,0c0.6,0,1.1,0.2,1.7,0.4
		c0.5,0.2,1,0.5,1.5,0.8c0.5,0.3,0.9,0.7,1.3,1.2l0,0c0,0,0,0.1,0.1,0.1l0.3,0.1c0.3,0.1,0.5,0.2,0.8,0.2c0.1,0,0.3,0.1,0.4,0.1
		c0.1,0,0.3,0.1,0.4,0.1l0.4,0.1c0.1,0,0.2,0.1,0.3,0.2l0.2,0.1c0.1,0,0.1,0.1,0.2,0.1c0.1,0.1,0.2,0.1,0.3,0.2l0.3,0.2l0.3,0.3
		c0.1,0.1,0.2,0.2,0.2,0.3c0.1,0.1,0.1,0.2,0.2,0.4c0.1,0.3,0.1,0.5,0.2,0.8c0,0.1,0.1,0.3,0.1,0.4c0,0.1,0.1,0.3,0.1,0.4l0,0
		c0,0.1,0.1,0.1,0.2,0.2c0.1,0.1,0.3,0,0.4-0.2c0.1-0.2,0.1-0.3,0.1-0.5c0-0.2,0-0.3,0-0.5c0-0.1,0-0.2-0.1-0.3l0,0
		c0-0.1-0.1-1,0.4-1c0.5,0,1.7-0.4,2.1,0c0.2,0.2,0.3,0.2,0.4,0.3c0.1,0.2,0.2,0.3,0.3,0.5c0.1,0.1,0.1,0.2,0.2,0.2
		c0.1,0.2,0.2,0.3,0.4,0.4c0,0,0.1,0.7,0.9,1c0.8,0.4,1.1,0.5,1.1,0.8c0,0.3,0.1,1.1,0.1,1c0,0.1,0,0.3,0,0.4
		C157.7,66.5,157.7,66.6,157.6,66.6z M158,62.6c-0.9,0.3-1.7,0-2.1-0.6c0,0,0,0,0-0.1c-1.1-1.7,0.2-3.1,0.3-3.2
		c0.1-0.1,0.1-0.2,0.2-0.3c0,0,0,0,0,0c0.3-0.5,0.6-1,0.8-1.5c0.3-0.9,0.4-1.8,0.4-2.7c0.1-0.2,0.6-0.5,1.2-0.4
		c1.5,0.1,2.3,1.5,2.3,3.7C160.9,60.6,159.3,62.2,158,62.6z M159.2,67.2c-0.4-0.3-0.6-0.7-0.6-1.2c0-1.5,1.6-3.1,1.6-3.1
		c0.2-0.2,0.2-0.4,0.1-0.6c0.5-0.5,0.9-1.2,1.2-2c0.2-0.1,0.8-0.4,1.5-0.2c0.9,0.3,1.2,1.3,1.2,2c0.2,2-1.5,4.2-3.2,5.1
		C160.6,67.3,159.8,67.6,159.2,67.2z"/>
	<path id="XMLID_347_" class="st0" d="M49.7,62c0.8-2.6-0.8-6.6-4.4-6.3c-0.6-0.1-1.3,0-2.1,0.2c-0.3,0.1-0.6,0.2-0.8,0.3h0
		c-0.7,0.4-1.5,1-1.8,2.2c-0.1,0.4-0.2,0.8-0.2,1.3c-0.2,4.3,1,6.8,0.8,9c-0.2,2.2-1.1,7-0.8,11.1c0.3,4.1,1.5,3.2,0.9,9.4
		c-0.3,3.1,3.4,3.8,3.6,1.3c0.1-2.4-0.8-6-0.4-8.7c0.4-2.7-0.9-4.6,1.4-5.9c2.2-1.2,4.1-0.4,4.9-3.1C51.5,70.1,48.8,64.7,49.7,62z
		 M44.9,70.7c-0.5-1.1,0.1-4.5,0.2-5.2c0.1-0.7-0.4-2.7-0.8-4c-0.4-1.3,0.4-1.3,0.4-1.3c1.2-0.8,2.3,0.7,2,1.8
		c-0.3,1.1-0.1,4.6,0.2,6.6C47.2,70.7,45.4,71.8,44.9,70.7z"/>
	<path id="XMLID_350_" class="st0" d="M95.5,81.7c0.2-1.7-0.7-7.1-5.3-5.2c0,0-1.6,0.9-1.5,2.6c0.1,1.7,0.7,4.9,0.8,6.2
		c0,1.3-0.9,4.9,1.3,5.5c2.1,0.6,2-0.1,2.9,0c0.9,0.1,2.8-0.7,2.6-3.3S95.3,83.4,95.5,81.7z M92.1,87.6c-0.4-0.8,0-3.4,0.1-4
		c0.1-0.5-0.3-2-0.6-3s0.3-1,0.3-1c0.9-0.6,1.7,0.5,1.5,1.3c-0.2,0.8-0.1,3.5,0.1,5C93.8,87.5,92.5,88.4,92.1,87.6z"/>
	<path id="XMLID_351_" class="st0" d="M61.4,63.5c-0.6-0.1-1-0.1-1.5-0.1c-0.8,0-1.6-0.1-2.7-0.3c-1.2-0.3-2.4,0-3.1,0.7
		c-0.5,0.4-0.7,1-0.6,1.6c0.1,0.6,0.1,1.6,0,2.6c-0.1,1.1-0.1,2.4,0,3.7c0.1,0.8,0.3,1.7,0.4,2.6c0.3,1.8,0.7,3.6,0.5,5.3
		c-0.1,0.7-0.2,1.4-0.3,2.2c-0.4,2.2-0.8,4.9-0.4,7.8c0.4,2.6,1.4,3,2.6,3c0.3,0,0.6,0,0.9,0c0.4,0,0.9-0.1,1.4,0
		c2.2,0.1,3.1-0.9,3.3-1c0.6-0.5,0.8-1,0.6-1.5c-0.2-0.5-0.7-0.8-1.5-0.8c-0.7,0-1.3,0.3-1.8,0.6c-0.6,0.3-1.1,0.6-1.6,0.4
		c-0.7-0.2-0.5-3.4-0.3-5.1c0.1-0.7,0.1-1.4,0.1-1.8c0-0.7,0-2.3,0.1-4c0-0.3,0.1-0.7,0.3-1c0.1-0.1,0.2-0.1,0.4-0.1
		c0.4,0,0.8,0.1,1.2,0.3c0.7,0.2,1.3,0.4,1.8,0.1c0.4-0.2,0.6-0.9,0.4-1.4c-0.2-0.7-0.9-1.1-1.9-1.1c-0.4,0-0.8,0.1-1.1,0.1
		c-0.5,0.1-0.8,0.1-0.9,0c-0.1-0.1-0.1-0.5-0.1-0.8c0-0.1,0-0.1,0-0.2c0,0,0,0,0,0c0,0,0-0.1,0-0.1c0-0.8,0.1-1.5,0.1-2
		c0.1-1.5-0.2-3-0.5-4.3c-0.1-0.5-0.2-1-0.3-1.4c0-0.2,0-0.4,0.2-0.6c0.4-0.5,1.4-0.8,2.7-0.8c0.4,0,0.9,0,1.3,0.1
		c1,0.1,2.1,0.3,2.4-0.6c0.1-0.4,0.1-0.7,0-1C63.1,63.8,62.2,63.6,61.4,63.5z"/>
	<path id="XMLID_352_" class="st0" d="M197,88.9c-0.6,0-1.3,0.3-2.1,0.7c-1.6,0.8-3.7,1.7-5.8,0.9c-0.8-0.3-0.5-3.6-0.4-5.5
		c0.1-0.8,0.1-1.5,0.1-1.9c0-0.8,0-2.5,0.1-4.3c0-0.3,0.1-0.8,0.3-1c0.1-0.1,0.2-0.2,0.4-0.1c1.1,0.1,3-0.4,3.8-0.8
		c0.4-0.3,0.6-0.9,0.5-1.5c-0.2-0.8-1-1.2-2-1.2c-0.9,0-1.6,0.4-2.1,0.6c-0.3,0.1-0.7,0.3-0.7,0.3c0,0-0.1-0.1-0.1-0.6
		c0-0.1,0-0.1,0-0.2c0-0.9,0.1-1.6,0.1-2.1c0.2-1.6-0.2-3.2-0.5-4.6c-0.1-0.6-0.2-1.1-0.3-1.5c0-0.4,0.1-0.8,0.5-1.2
		c0.6-0.7,1.6-1.2,2.4-1.2c3.4,0,4-1.7,4.3-2.7c0.2-0.5,0.2-0.8,0-1.1c-0.3-0.5-1-0.7-2.1-0.8c-0.8-0.1-1.5,0.5-2.2,1.2
		c-0.8,0.8-1.7,1.6-2.7,1.3c-1.3-0.3-2.6,0-3.3,0.7c-0.5,0.5-0.7,1.1-0.6,1.7c0.1,0.7,0.1,1.7,0,2.8c-0.1,1.2-0.1,2.6,0,4
		c0.1,0.9,0.3,1.8,0.5,2.8c0.4,1.9,0.8,3.9,0.6,5.7c-0.1,0.7-0.2,1.5-0.4,2.4c-0.4,2.3-0.9,5.3-0.4,8.3c0.4,2.8,1.5,3.2,2.8,3.2
		c0.3,0,0.6,0,0.9,0c0.5,0,1-0.1,1.5,0c2.4,0.1,7.5-0.7,7.7-0.7l0.1,0l0,0c0.7-0.5,0.9-1.4,0.6-2.2C198.4,89.3,197.8,88.9,197,88.9z
		"/>
	<path id="XMLID_355_" class="st0" d="M75.7,83.9c-0.4-0.7-0.7-1.4-0.9-2.7c-0.1-1.1-0.8-1.9-1.3-2.7c-0.6-0.8-1-1.3-0.8-1.9
		c0.2-0.5,0.2-0.9,0.1-1.3c0.9-2-0.2-6.2-0.8-8c-0.3-0.9-1-1.6-2.1-1.9c-1.7-0.5-3.8,0-4.4,0.5c-0.5,0.5-0.4,1.6-0.1,3.2
		c0.1,0.9,0.3,1.8,0.3,2.5c0,1-0.1,2.6-0.1,4.2c-0.1,1.6-0.1,3-0.1,3.9c0,0.4,0,0.7,0,1.1c-0.1,1.7-0.1,3.6,0.6,5.4
		c0.8,2,0.1,4.2,0.1,4.2l0,0.1l0,0.1c0,1.7,0.7,2.1,1,2.1c0,0,0.1,0,0.1,0c0.6,0,1.2-0.6,1.5-1.6c0.3-0.9,0.2-2.9,0.2-4.9
		c0-1.3-0.1-2.6,0-3.2c0.1-0.7,0-1.5-0.1-2.3c-0.1-0.9-0.2-1.9,0.1-2.2c0.2-0.1,0.4-0.3,0.7-0.4c0.1,0,0.2-0.1,0.2-0.1l0,0.2
		c0,0,0.9-0.2,1.3,0.3c0.3,0.3,0.3,2,0.3,2.9c0,0.8,0,1.5,0.1,1.8c0.1,0.4,0.4,0.9,0.8,1.4c0.5,0.6,1,1.3,1.1,1.9c0,0.3,0,0.6,0,0.9
		c0,0.9,0,1.8,1.2,2.1c0.1,0,0.2,0,0.3,0c0.3,0,0.6-0.1,0.9-0.4c0.7-0.8,0.9-2.7,0.5-3.9C76.1,84.7,75.9,84.2,75.7,83.9z M68.7,74.9
		c-0.4-0.7,0-2.9,0.1-3.3c0.1-0.5-0.3-1.7-0.5-2.6c-0.3-0.8,0.3-0.8,0.3-0.8c0.8-0.5,1.6,0.4,1.4,1.1c-0.2,0.7-0.1,2.9,0.1,4.2
		C70.3,74.9,69,75.6,68.7,74.9z"/>
	<path id="XMLID_358_" class="st0" d="M85.7,87.9c-0.3-0.6-0.6-1.2-0.8-1.8c-0.1-0.4-0.2-0.8-0.2-1.3c-0.1-0.8-0.1-1.7-0.6-2.6
		c0.3-0.3,0.5-0.6,0.7-0.9c1.2-1.8-0.2-6.6-0.6-8.1c-0.3-0.9-1-1.5-2-1.8c-1.6-0.5-3.7,0-4.2,0.4c-0.5,0.4-0.3,1.5-0.1,3
		c0.1,0.9,0.3,1.8,0.3,2.6c0,1-0.1,2.6-0.1,4.2c-0.1,1.6-0.1,3-0.1,3.9c0,0.4,0,0.7,0,1.1c-0.1,1.7-0.1,3.6,0.6,5.4
		c0.8,2.1,0.1,4.3,0.1,4.4l0,0v0c0,1.6,0.6,1.9,0.9,1.9c0,0,0.1,0,0.1,0c0.5,0,1-0.6,1.3-1.4c0.3-0.9,0.2-2.9,0.1-4.8
		c0-1.3-0.1-2.6,0-3.3c0.1-0.7,0-1.5-0.1-2.3c-0.1-1.1-0.2-2.1,0.2-2.4c0.1-0.1,0.2-0.2,0.4-0.3c0.2,0.4,0.4,0.7,0.8,1.1
		c0.5,0.5,0.9,1.8,1.2,3.2c0.4,1.5,0.8,2.8,1.3,3.5c0.3,0.4,0.7,0.6,1,0.6c0.2,0,0.3,0,0.4-0.1c0.5-0.3,0.7-1.2,0.4-2
		C86.5,89.4,86.1,88.7,85.7,87.9z M82.3,80.5c0,0.1-0.1,0.1-0.1,0.1c-0.1,0-0.1,0.1-0.2,0.1c-0.4,0.2-0.9,0.2-1.1-0.1
		c-0.2-0.2-0.2-0.7-0.2-1.1c0-0.2,0-0.4,0.1-0.6c0,0,0-0.1,0-0.1c0-0.1,0-0.1,0-0.2c0-0.1,0-0.1,0-0.2c0.1-0.4,0.2-0.8,0.2-0.9
		c0.1-0.4-0.4-1.6-0.7-2.4c-0.3-0.8,0.3-0.8,0.3-0.8c1-0.5,1.9,0.4,1.7,1.1s-0.1,2.8,0.2,4C82.7,79.8,82.6,80.2,82.3,80.5z"/>
	<path id="XMLID_359_" class="st0" d="M179.3,66.8c-1,0.2-2.1,0.7-3,1.1c-0.4,0.2-0.7,0.3-1,0.5c-0.1,0-0.1,0-0.2,0.1
		c0-0.3,0-0.5,0.1-0.7c0.1-1-1.1-1.6-1.8-1.8l-0.1,0l-0.1,0c-0.3,0.1-0.7,0.2-0.9,0.4c-0.5,0.4-0.3,1.5-0.1,3
		c0.1,0.9,0.3,1.8,0.3,2.6c0,1-0.1,2.6-0.1,4.2c-0.1,1.6-0.1,3-0.1,3.9c0,0.4,0,0.7,0,1.1c-0.1,1.7-0.1,3.6,0.6,5.4
		c0.8,2.1,0.1,4.3,0.1,4.4l-0.1,0v0c0,1.6,0.6,1.9,1,1.9c0,0,0.2,0,0.2,0c0.5,0,1-0.6,1.3-1.4c0.3-0.9,0.2-2.9,0.1-4.8
		c0-1.3-0.1-2.6,0-3.3c0.1-0.7,0-1.5-0.1-2.2c0-0.1,0-0.2,0-0.3c0.2-0.1,0.5-0.4,0.7-0.7c0.3-0.4,0.7-0.8,1-0.8c0.3-0.1,0.5,0,0.8,0
		c0.4,0,0.9,0.1,1.9-0.2c1-0.3,1-1.1,1-1.4c-0.1-0.6-0.6-1.2-1-1.2c-0.6,0-1.5,0.3-2.4,0.6l-0.3,0.1c-0.5,0.2-1,0.2-1.3,0.1
		c0-1.4,0-3-0.2-3.9c-0.1-0.5-0.2-1.1-0.2-1.7c0.3-0.8,2-1.5,2.9-1.7c0.3,0,0.6-0.1,0.8-0.1c0.6,0,1.1,0,1.9-0.4
		c0.5-0.3,0.7-0.8,0.5-1.5C180.9,67.2,180.2,66.6,179.3,66.8z"/>
	<path id="XMLID_360_" class="st0" d="M189,58.2c0.1,0.2,0.3,0.3,0.5,0.3c0,0,0,0,0.1,0c0.7-0.1,1.3-1.4,1.6-2.4
		c0.3-0.8,0.8-1.3,1.4-1.8c0.5-0.4,1-0.8,1.2-1.5c0.3-1.1,0.3-2.8-0.1-3.2c-0.1-0.1-0.3-0.2-0.5-0.1c-0.5,0.2-0.7,0.5-1,0.9
		c-0.2,0.2-0.4,0.6-0.8,0.9l-0.1,0.1c-0.8,0.8-1.1,1.1-1.3,2.3c0,0.4-0.2,0.6-0.3,0.7c-0.3,0.3-0.4,0.6-0.1,1.6
		C189.2,56.4,188.6,57.6,189,58.2z"/>
	<path id="XMLID_361_" class="st0" d="M153.9,87.3c-1.1-0.1-0.5,1.1-1,1.5c-0.5,0.4-1.6,0.8-2.1,0.5c-0.4-0.4-0.1-1.8,0.1-2.7
		c0.5-2,0-3.6-0.1-4.3c0,0-1.2-2.6-0.1-3c1.1-0.4,1.5-0.1,1.7,0.8c0.2,0.8,0.3,1.5,1.4,1.3c1.2-0.2,1.7-2.3,0.4-3.1
		c-1.3-0.7-1.4-1.6-2.4-1.9c-0.8-0.3-4.4,1.2-4.3,2.7c0.1,1.5,0.9,2.2,0.8,3.4c-0.1,1.2-0.5,3.3-0.2,5.5c0.2,2.3,0.5,3.4,1.9,3.5
		c1.4,0.1,2-0.3,3-0.2c1,0.1,2.1-1.8,2.1-2.5C155.2,88.1,154.9,87.4,153.9,87.3z"/>
	<path id="XMLID_362_" class="st0" d="M166.4,82.9c-0.3-1-0.3-5.7-0.5-7.9c-0.3-2.2-1.3-4.9-2.7-4c-1.4,0.9-1.3,5-1.5,7
		c-0.2,2-0.8,5.9-1.2,7.8c-0.4,2-0.5,5.8-0.5,5.8c-0.1,1.4,0.7,2,1.8,1.4c1.1-0.6,1-2.6,1-3.9c0-1.3,0.2-4.5,0.2-5.7
		c0-1.2,0.9-0.8,1.5-0.8c0.6,0,1,5,1.2,6.5c0.1,1.4,0.4,2.7,0.3,4.7c-0.1,2,0.6,4.8,1.9,4.8c1.4,0,1-3.2,0.8-6.1
		C168.3,89.8,166.7,83.9,166.4,82.9z"/>
	<path id="XMLID_363_" class="st0" d="M71,26.5c0.1,0.1,0.2,0.1,0.3,0.1c0,0,0,0,0,0c0.1,0,0.2-0.1,0.3-0.1l2-2.2
		c0.2-0.2,0.1-0.4,0-0.6l-0.4-0.3c-0.1-0.1-0.2-0.1-0.3-0.1c-0.1,0-0.2,0.1-0.3,0.1l-1.4,1.5L70,23.7l1.1-1.2c0.2-0.2,0.1-0.4,0-0.6
		l-0.4-0.3c-0.1-0.1-0.2-0.1-0.3-0.1c-0.1,0-0.2,0.1-0.3,0.1L69,22.8l-1.3-1.2L69,20c0.2-0.2,0.1-0.4,0-0.6l-0.4-0.3
		C68.5,19,68.4,19,68.3,19c-0.1,0-0.2,0.1-0.3,0.1l-2,2.2c-0.1,0.1-0.1,0.2-0.1,0.3c0,0.1,0.1,0.2,0.1,0.3L71,26.5z"/>
	<path id="XMLID_364_" class="st0" d="M78.5,19.3c0.1,0.1,0.2,0.1,0.3,0.2c0,0,0,0,0.1,0c0.1,0,0.2,0,0.2-0.1l2.5-1.8
		c0.1-0.1,0.1-0.2,0.2-0.3c0-0.1,0-0.2-0.1-0.3l-0.3-0.4c-0.1-0.2-0.4-0.2-0.6-0.1l-1.7,1.2L75.7,13c-0.1-0.1-0.2-0.1-0.3-0.2
		c-0.1,0-0.2,0-0.3,0.1l-0.5,0.3c-0.2,0.1-0.2,0.4-0.1,0.6L78.5,19.3z"/>
	<path id="XMLID_365_" class="st0" d="M94.9,9.2c0.3,0.4,0.7,0.7,1.1,0.9c0.4,0.2,0.8,0.3,1.2,0.3c0,0,0,0,0,0
		c0.4,0,0.8-0.1,1.1-0.2l0.4-0.1c0.1,0,0.2-0.1,0.2-0.1c0.2-0.1,0.3-0.3,0.2-0.5L99,9c0-0.1-0.1-0.2-0.2-0.3c-0.1,0-0.2,0-0.3,0
		c0,0-0.1,0-0.1,0l-0.2,0.1c-0.7,0.2-1.2,0.2-1.7-0.1c-0.4-0.3-0.8-0.8-1-1.7c-0.2-0.9-0.3-1.5-0.1-2c0.2-0.4,0.5-0.7,1.1-0.9
		L97.1,4c0.1,0,0.2-0.1,0.2-0.2c0.1-0.1,0.1-0.2,0-0.3L97.2,3c-0.1-0.2-0.3-0.3-0.5-0.3c-0.1,0-0.2,0.1-0.4,0.1
		c-0.1,0-0.3,0.1-0.4,0.1c-0.2,0.1-0.5,0.2-0.8,0.4c-0.3,0.2-0.6,0.5-0.8,0.8c-0.2,0.4-0.4,0.8-0.5,1.4c-0.1,0.6,0,1.2,0.2,2
		C94.3,8.2,94.6,8.8,94.9,9.2z"/>
	<path id="XMLID_366_" class="st0" d="M106.3,8c0.4,0.2,0.8,0.3,1.3,0.3c0.2,0,0.3,0,0.5,0c0.7-0.1,1.3-0.3,1.6-0.8
		c0.4-0.4,0.6-1,0.5-1.8l-0.6-4.9c0-0.1-0.1-0.2-0.2-0.3c-0.1-0.1-0.2-0.1-0.3-0.1l-0.6,0.1c-0.2,0-0.4,0.2-0.4,0.5l0.6,4.8
		c0.1,0.4,0,0.7-0.1,0.9c-0.1,0.1-0.4,0.3-0.8,0.3c-0.4,0.1-0.7,0-0.8-0.1c-0.2-0.1-0.3-0.4-0.3-0.8l-0.6-4.8c0-0.1-0.1-0.2-0.2-0.3
		c-0.1-0.1-0.2-0.1-0.3-0.1L105.1,1c-0.2,0-0.4,0.2-0.4,0.5l0.6,4.9C105.5,7.1,105.8,7.7,106.3,8z"/>
	<path id="XMLID_367_" class="st0" d="M117.4,7.5c0.1,0.1,0.2,0.1,0.3,0.1c0,0,0,0,0,0l3.1,0c0.1,0,0.2,0,0.3-0.1
		c0.1-0.1,0.1-0.2,0.1-0.3l0-0.5c0-0.2-0.2-0.4-0.4-0.4c0,0,0,0,0,0l-2.1,0l-0.1-5.8c0-0.2-0.2-0.4-0.4-0.4c0,0,0,0,0,0l-0.6,0
		c-0.1,0-0.2,0-0.3,0.1c-0.1,0.1-0.1,0.2-0.1,0.3l0.1,6.7C117.3,7.3,117.3,7.4,117.4,7.5z"/>
	<path id="XMLID_368_" class="st0" d="M128,1.7l1,0.1l-0.6,5.8c0,0.1,0,0.2,0.1,0.3c0.1,0.1,0.2,0.1,0.3,0.2l0.6,0.1c0,0,0,0,0,0
		c0.2,0,0.4-0.2,0.4-0.4l0.6-5.8l1,0.1c0.1,0,0.2,0,0.3-0.1c0.1-0.1,0.1-0.2,0.2-0.3l0.1-0.5c0-0.2-0.1-0.4-0.4-0.5l-3.4-0.4
		c-0.1,0-0.2,0-0.3,0.1c-0.1,0.1-0.1,0.2-0.2,0.3l-0.1,0.5C127.6,1.5,127.7,1.7,128,1.7z"/>
	<path id="XMLID_371_" class="st0" d="M138.1,9.3c0.2,0.2,0.4,0.4,0.7,0.5c0.2,0.1,0.5,0.2,0.8,0.3c0.3,0.1,0.5,0.1,0.8,0.1
		c0,0,0.1,0,0.1,0c0.3,0,0.5,0,0.7-0.1c0.3-0.1,0.5-0.3,0.7-0.5c0.2-0.2,0.4-0.6,0.5-0.9l0.9-3.5c0.2-0.6,0.1-1.1-0.2-1.6
		c-0.3-0.4-0.8-0.7-1.6-0.9c-0.7-0.2-1.4-0.2-1.8,0c-0.5,0.2-0.8,0.7-1,1.2l-0.9,3.5c-0.1,0.4-0.1,0.8-0.1,1.1
		C137.8,8.8,137.9,9.1,138.1,9.3z M139.2,7.7l0.9-3.3c0.1-0.3,0.2-0.5,0.3-0.5c0.1,0,0.3-0.1,0.8,0.1c0.6,0.2,0.7,0.3,0.8,0.4
		c0.1,0.2,0.1,0.4,0,0.6l-0.9,3.3c-0.1,0.2-0.2,0.5-0.3,0.6c-0.1,0-0.3,0.1-0.9,0c-0.5-0.1-0.7-0.3-0.7-0.4
		C139.1,8.2,139.1,7.9,139.2,7.7z"/>
	<path id="XMLID_374_" class="st0" d="M156.2,17.3c0.2,0.1,0.4,0.1,0.5,0l1.1-1l1.3,0.9l-0.5,1.4c-0.1,0.2,0,0.4,0.2,0.5l0.5,0.3
		c0.1,0,0.2,0.1,0.2,0.1c0,0,0.1,0,0.1,0c0.1,0,0.2-0.1,0.3-0.2l2.4-6.5c0.1-0.2,0-0.4-0.2-0.5l-0.7-0.5c-0.2-0.1-0.4-0.1-0.5,0
		l-5.2,4.6c-0.1,0.1-0.1,0.2-0.1,0.3c0,0.1,0.1,0.2,0.2,0.3L156.2,17.3z M160.3,14.2l-0.6,1.7l-0.7-0.5L160.3,14.2z"/>
	<path id="XMLID_375_" class="st0" d="M170,18.9c-0.1-0.1-0.2-0.1-0.3-0.1c-0.1,0-0.2,0-0.3,0.1l-4.9,4.6c-0.1,0.1-0.1,0.2-0.1,0.3
		c0,0.1,0,0.2,0.1,0.3l2.1,2.3c0.1,0.1,0.2,0.1,0.3,0.1c0,0,0,0,0,0c0.1,0,0.2,0,0.3-0.1l0.4-0.4c0.2-0.2,0.2-0.4,0-0.6l-1.4-1.5
		l4.2-4c0.2-0.2,0.2-0.4,0-0.6L170,18.9z"/>
</g>
</svg>
