<svg id="Layer_1" data-name="Layer 1" xmlns="http://www.w3.org/2000/svg" viewBox="0 0 117.11 80.69">
    <defs>
        <style>
            .cls-1{fill:#F4DBB2;}.cls-2,.cls-3{fill:#fff;stroke:#232222;stroke-miterlimit:10;}.cls-3{stroke-width:3px;}
        </style>
    </defs>
    <path class="cls-1"
          d="M7.29,31.73C-1.4,51,13,71,28.2,79.48c10.72,6,60.89,2.76,80.12-12.17,20.3-15.76,15.41-43.91,0-52.74C90.8,4.52,70.64,1.2,51.69,1.66,32.17,2.14,13.71,17.51,7.29,31.73Z"
          transform="translate(-4.66 -1.62)"/>
    <rect class="cls-2" x="10.08" y="12.53" width="80.73" height="40.36"/>
    <path class="cls-2" d="M19.79,19.2H34.92" transform="translate(-4.66 -1.62)"/>
    <path class="cls-2" d="M90.43,19.2H75.29" transform="translate(-4.66 -1.62)"/>
    <path class="cls-2" d="M33.82,24.25h-14V49.47h14" transform="translate(-4.66 -1.62)"/>
    <path class="cls-2" d="M75.85,24.25H90.43V49.47H75.85" transform="translate(-4.66 -1.62)"/>
    <rect class="cls-2" x="30.99" y="42.81" width="4.32" height="7.45"/>
    <rect class="cls-2" x="65.58" y="42.81" width="4.32" height="7.45"/>
    <circle class="cls-2" cx="36.71" cy="38.72" r="2.52"/>
    <circle class="cls-2" cx="46.03" cy="37.04" r="2.52"/>
    <circle class="cls-2" cx="55" cy="37.04" r="2.52"/>
    <circle class="cls-2" cx="64.18" cy="38.16" r="2.52"/>
    <circle class="cls-2" cx="27.18" cy="30.92" r="2.52"/>
    <circle class="cls-2" cx="36.71" cy="29.24" r="2.52"/>
    <circle class="cls-2" cx="45.68" cy="27.56" r="2.52"/>
    <circle class="cls-2" cx="55.22" cy="27.56" r="2.52"/>
    <circle class="cls-2" cx="64.18" cy="29.24" r="2.52"/>
    <circle class="cls-2" cx="73.71" cy="30.92" r="2.52"/>
    <path class="cls-3" d="M39.92,21.1a46.1,46.1,0,0,1,30.36-.2" transform="translate(-4.66 -1.62)"/>
    <path class="cls-2" d="M42.52,50.59H67.74" transform="translate(-4.66 -1.62)"/>
    <path class="cls-2" d="M45,48.35H65.18" transform="translate(-4.66 -1.62)"/>
    <rect class="cls-2" x="14.85" y="22.63" width="80.73" height="40.36"/>
    <path class="cls-2" d="M24.56,29.29H39.7" transform="translate(-4.66 -1.62)"/>
    <path class="cls-2" d="M95.2,29.29H80.06" transform="translate(-4.66 -1.62)"/>
    <path class="cls-2" d="M38.6,34.34h-14V59.56h14" transform="translate(-4.66 -1.62)"/>
    <path class="cls-2" d="M80.62,34.34H95.2V59.56H80.62" transform="translate(-4.66 -1.62)"/>
    <rect class="cls-2" x="35.76" y="52.9" width="4.32" height="7.45"/>
    <rect class="cls-2" x="70.35" y="52.9" width="4.32" height="7.45"/>
    <circle class="cls-2" cx="41.48" cy="48.81" r="2.52"/>
    <circle class="cls-2" cx="50.81" cy="47.13" r="2.52"/>
    <circle class="cls-2" cx="59.78" cy="47.13" r="2.52"/>
    <circle class="cls-2" cx="68.95" cy="48.25" r="2.52"/>
    <circle class="cls-2" cx="31.95" cy="41.01" r="2.52"/>
    <circle class="cls-2" cx="41.48" cy="39.33" r="2.52"/>
    <circle class="cls-2" cx="50.46" cy="37.65" r="2.52"/>
    <circle class="cls-2" cx="59.99" cy="37.65" r="2.52"/>
    <circle class="cls-2" cx="68.95" cy="39.33" r="2.52"/>
    <circle class="cls-2" cx="78.48" cy="41.01" r="2.52"/>
    <path class="cls-3" d="M44.69,31.2A46,46,0,0,1,75.05,31" transform="translate(-4.66 -1.62)"/>
    <path class="cls-2" d="M47.29,60.69H72.51" transform="translate(-4.66 -1.62)"/>
    <path class="cls-2" d="M49.79,58.44H70" transform="translate(-4.66 -1.62)"/>
    <rect class="cls-2" x="33" y="31.06" width="80.73" height="40.36"
          transform="translate(-15.02 18.02) rotate(-14.25)"/>
    <path class="cls-2" d="M35.4,45.26l14.67-3.72" transform="translate(-4.66 -1.62)"/>
    <path class="cls-2" d="M103.87,27.87,89.2,31.6" transform="translate(-4.66 -1.62)"/>
    <path class="cls-2" d="M50.25,46.7l-13.6,3.45,6.21,24.46,13.6-3.46" transform="translate(-4.66 -1.62)"/>
    <path class="cls-2" d="M91,36.35l14.13-3.59,6.21,24.46L97.19,60.8" transform="translate(-4.66 -1.62)"/>
    <rect class="cls-2" x="57.84" y="65.16" width="4.32" height="7.45"
          transform="translate(-19.78 15.27) rotate(-14.25)"/>
    <rect class="cls-2" x="91.37" y="56.65" width="4.32" height="7.45"
          transform="translate(-16.65 23.26) rotate(-14.25)"/>
    <circle class="cls-2" cx="56.86" cy="58.82" r="2.52"/>
    <circle class="cls-2" cx="65.49" cy="54.89" r="2.52"/>
    <circle class="cls-2" cx="74.18" cy="52.69" r="2.52"/>
    <circle class="cls-2" cx="83.35" cy="51.51" r="2.52"/>
    <circle class="cls-2" cx="45.71" cy="53.61" r="2.52"/>
    <circle class="cls-2" cx="54.53" cy="49.63" r="2.52"/>
    <circle class="cls-2" cx="62.82" cy="45.79" r="2.52"/>
    <circle class="cls-2" cx="72.05" cy="43.44" r="2.52"/>
    <circle class="cls-2" cx="81.15" cy="42.87" r="2.52"/>
    <circle class="cls-2" cx="90.81" cy="42.15" r="2.52"/>
    <path class="cls-3" d="M55.39,42.15a46,46,0,0,1,29.37-7.67" transform="translate(-4.66 -1.62)"/>
    <path class="cls-2" d="M65.17,70.1,89.6,63.89" transform="translate(-4.66 -1.62)"/>
    <path class="cls-2" d="M67,67.31l19.55-5" transform="translate(-4.66 -1.62)"/>
</svg>