<svg xmlns="http://www.w3.org/2000/svg" xmlns:xlink="http://www.w3.org/1999/xlink" viewBox="0 0 61.65 156.4"><defs><style>.cls-1,.cls-4{fill:none;}.cls-2{clip-path:url(#clip-path);}.cls-3{fill:#222;}.cls-4{stroke:#222;stroke-linecap:round;stroke-linejoin:round;stroke-width:1.39px;}.cls-5{fill:#fff;}</style><clipPath id="clip-path" transform="translate(0 0)"><rect class="cls-1" width="61.65" height="156.4"/></clipPath></defs><g id="Layer_2" data-name="Layer 2"><g id="Capa_1" data-name="Capa 1"><g class="cls-2"><path class="cls-3" d="M58.11,4.18c-.38,1-.74,1.9-1.12,2.85a22.47,22.47,0,0,0-.93,2.88,20.17,20.17,0,0,0-.59,6,14.23,14.23,0,0,0,.47,2.92,15,15,0,0,0,1.13,2.73C58,23.36,59.16,25.2,60,27.23a20.62,20.62,0,0,1,1.58,6.37,15.84,15.84,0,0,1-.62,6.65,8.06,8.06,0,0,1-2,2.94,18.16,18.16,0,0,1-2.67,2,6.75,6.75,0,0,0-3.43,4.29,3.67,3.67,0,0,0-.11.65,2.25,2.25,0,0,0,0,.64,5.22,5.22,0,0,0,.18,1.35,11.27,11.27,0,0,0,1.16,2.67,20.55,20.55,0,0,1,1.49,3,4.57,4.57,0,0,1,.24,1.94,2.87,2.87,0,0,1-.24,1l-.09.24a.88.88,0,0,1-.12.23l-.19.35a6.91,6.91,0,0,1-2.52,2.57,11,11,0,0,1-3.23,1.16c-1.08.23-2.13.37-3.15.55a6.8,6.8,0,0,0-2.66.77,2.4,2.4,0,0,0-1.17,1.89,4,4,0,0,0,.71,2.44,19.31,19.31,0,0,0,2,2.09l2.32,2.14a21.94,21.94,0,0,1,4.27,5,5.77,5.77,0,0,1,.83,3.59l-.1.45c0,.13-.12.33-.18.49a4.23,4.23,0,0,1-.44.85,7.58,7.58,0,0,1-1.1,1.38c-1.58,1.61-3.34,2.78-4.9,4.11s-3,2.85-2.79,4.39a3.29,3.29,0,0,0,.37,1.07,4.68,4.68,0,0,0,.88,1.09,4.09,4.09,0,0,0,2.35.91c1.89.22,4.28-.13,6.5,1a7.11,7.11,0,0,1,2.63,2.38l.49.72.37.76.37.76c.15.38.18.53.28.81a10.51,10.51,0,0,1,.2,3.49c-.09,1.1-.27,2.17-.45,3.2s-.34,2.05-.41,3a5.51,5.51,0,0,0,.32,2.66c.16.31.48.73.79,1.28a15,15,0,0,1,.74,1.51,26.8,26.8,0,0,1,1.08,3.08,36.16,36.16,0,0,1,1.23,6.35,21.71,21.71,0,0,1-.22,6.57,7.75,7.75,0,0,1-1.43,3.23,4.72,4.72,0,0,1-1.53,1.22l-1.43.67c-1.81.89-3.85,1.82-4.51,3.28a8.32,8.32,0,0,0-.43,2.8,7.35,7.35,0,0,1-.84,3.46,4.52,4.52,0,0,1-3.26,1.92,12.79,12.79,0,0,1-3.39,0l-1.54-.15a9.45,9.45,0,0,0-1.41,0,5.49,5.49,0,0,0-2.58.85c-.78.48-1.48,1.24-2.48,1.92a6,6,0,0,1-3.46,1h.07a35.52,35.52,0,0,1-7.5-.26,13.91,13.91,0,0,1-3.75-1,7.27,7.27,0,0,1-1.75-1.13A13.68,13.68,0,0,1,18,152.5c-1.7-2-2.65-4.31-4.62-5s-4.9-1.09-6.92-3.12a7.44,7.44,0,0,1-1.9-3.62,14.23,14.23,0,0,1-.22-3.89c.17-2.46.59-4.95,1-7.32a15.77,15.77,0,0,0,.23-3.46,10,10,0,0,0-.81-3.26c-.21-.55-.48-1-.75-1.61a18.9,18.9,0,0,1-.77-1.74,13.06,13.06,0,0,1-.87-3.81,7.67,7.67,0,0,1,.78-4,7.37,7.37,0,0,1,2.79-3,13.59,13.59,0,0,0,2.83-2A7.6,7.6,0,0,0,10.48,104c.43-1.08.78-2.24,1.14-3.4A17.65,17.65,0,0,1,13,97a6.19,6.19,0,0,1,1.3-1.66,4.9,4.9,0,0,1,1.94-1,12,12,0,0,1,3.93-.15,59.94,59.94,0,0,0,7.2.2c2.34-.12,4.78-.49,6.53-1.69a3.67,3.67,0,0,0,1.55-2.38l0-.46a1,1,0,0,0,0-.39,5.55,5.55,0,0,0-.15-.62c-.1-.23-.18-.47-.3-.7l-.43-.68a17.22,17.22,0,0,0-5.44-4.24,47.54,47.54,0,0,0-6.55-2.93,63.09,63.09,0,0,1-6.92-2.63,13.33,13.33,0,0,1-5.89-4.94A12.41,12.41,0,0,1,8.4,69a17.13,17.13,0,0,1-.26-3.85c0-.31,0-.6.06-.92l.17-1a5.25,5.25,0,0,1,.27-1,4.79,4.79,0,0,1,.37-1,7.12,7.12,0,0,1,2.73-3c2.37-1.4,5-1.59,7.39-1.85a53.75,53.75,0,0,0,7.12-1c2.25-.57,4.4-1.61,5.51-3.47a6.44,6.44,0,0,0,.67-1.46,14.25,14.25,0,0,0,.44-1.7,6.52,6.52,0,0,0,0-3.2,4.52,4.52,0,0,0-1.92-2.35,13.35,13.35,0,0,0-3.13-1.36,52.19,52.19,0,0,0-7.1-1.34c-.6-.12-1.18-.18-1.81-.36S17.6,39.8,17,39.59l-1.76-.72L13.55,38A30.36,30.36,0,0,1,3,27.51,21.55,21.55,0,0,1,1.3,24.1a12.82,12.82,0,0,1-.58-1.85C.58,21.63.47,21,.37,20.4A33.34,33.34,0,0,1,0,16.66a9.57,9.57,0,0,1,.44-3.75.55.55,0,0,1,.72-.31.55.55,0,0,1,.35.44h0a35.46,35.46,0,0,1,.11,3.56A30.28,30.28,0,0,0,2,20.15c.1.58.2,1.17.33,1.75a12.75,12.75,0,0,0,.51,1.63,20,20,0,0,0,1.56,3.15,28.61,28.61,0,0,0,10,9.9l1.57.8,1.62.67c.55.19,1.1.33,1.64.5s1.19.23,1.77.35a53.78,53.78,0,0,1,7.28,1.38,14.86,14.86,0,0,1,3.56,1.55,6.25,6.25,0,0,1,2.59,3.22,8.15,8.15,0,0,1,.09,4A17,17,0,0,1,34,50.93a8.63,8.63,0,0,1-.84,1.86,8.29,8.29,0,0,1-2.9,2.78A14.23,14.23,0,0,1,26.66,57a56.15,56.15,0,0,1-7.35,1.07c-2.41.25-4.82.48-6.7,1.62A6.32,6.32,0,0,0,9.8,65.24,15.9,15.9,0,0,0,10,68.68a10.67,10.67,0,0,0,1.16,3.14,11.72,11.72,0,0,0,5.19,4.3,64.34,64.34,0,0,0,6.76,2.55,50.21,50.21,0,0,1,6.79,3,18.68,18.68,0,0,1,6,4.73l.55.86c.16.32.28.66.42,1a6.06,6.06,0,0,1,.23,1.17,5,5,0,0,1,0,1A5.27,5.27,0,0,1,34.86,94a10.14,10.14,0,0,1-3.66,1.53,21.26,21.26,0,0,1-3.77.48,59.07,59.07,0,0,1-7.42-.2,10.84,10.84,0,0,0-3.35.1,3.5,3.5,0,0,0-2.2,1.88,16,16,0,0,0-1.21,3.24c-.36,1.17-.71,2.35-1.18,3.54A9.42,9.42,0,0,1,10,108a15.24,15.24,0,0,1-3.13,2.21,5.62,5.62,0,0,0-2.76,5.4,11,11,0,0,0,.76,3.29c.2.52.43,1,.71,1.61s.57,1.11.79,1.7A11.65,11.65,0,0,1,7.28,126,17.23,17.23,0,0,1,7,129.82c-.39,2.44-.78,4.77-1,7.18a12.7,12.7,0,0,0,.18,3.39,5.85,5.85,0,0,0,1.44,2.78,7.44,7.44,0,0,0,2.8,1.64c1.1.41,2.23.61,3.53,1.08a7.22,7.22,0,0,1,3.16,2.58c.77,1,1.39,2,2.14,2.89a11.59,11.59,0,0,0,1.21,1.22,5.46,5.46,0,0,0,1.31.85,12.75,12.75,0,0,0,3.29.9,33.57,33.57,0,0,0,7.09.23h.07a4.2,4.2,0,0,0,2.49-.75c.75-.5,1.5-1.3,2.51-1.94,2-1.36,4.71-1.3,6.68-1a11.39,11.39,0,0,0,2.91,0,2.77,2.77,0,0,0,2-1.12,5.76,5.76,0,0,0,.56-2.63,9.63,9.63,0,0,1,.59-3.4,6.15,6.15,0,0,1,2.48-2.63,26,26,0,0,1,2.88-1.54l1.43-.67a2.92,2.92,0,0,0,.92-.74,6.1,6.1,0,0,0,1.07-2.5,19.69,19.69,0,0,0,.18-6,33.3,33.3,0,0,0-1.17-6,23.35,23.35,0,0,0-1-2.88c-.19-.45-.42-.91-.64-1.32s-.54-.79-.86-1.41a7.08,7.08,0,0,1-.49-3.54,32.27,32.27,0,0,1,.43-3.21c.17-1,.34-2.06.42-3.06a9,9,0,0,0-.12-2.78c-.63-1.8-1.67-3.61-3.25-4.4s-3.63-.62-5.88-.83a5.85,5.85,0,0,1-3.4-1.4A6.1,6.1,0,0,1,42,97.46l0,0-.08-.13,0-.1-.1-.21a2.92,2.92,0,0,1-.19-.44,4.9,4.9,0,0,1-.24-1A5,5,0,0,1,42.35,92a14.62,14.62,0,0,1,2.35-2.42c1.65-1.39,3.4-2.58,4.77-4a4.53,4.53,0,0,0,1.32-2.2A4,4,0,0,0,50.17,81a20.75,20.75,0,0,0-3.92-4.54l-2.32-2.14a16.6,16.6,0,0,1-2.34-2.48,5.76,5.76,0,0,1-1-3.52,4.21,4.21,0,0,1,2-3.29A8.81,8.81,0,0,1,46,64c1.06-.17,2.09-.32,3.07-.53a6.17,6.17,0,0,0,4.54-2.83l.19-.34s.09-.17.06-.13l0-.13a1.37,1.37,0,0,0,.13-.52,2.71,2.71,0,0,0-.16-1.16,18.15,18.15,0,0,0-1.36-2.66,13,13,0,0,1-1.33-3.11,7,7,0,0,1-.24-1.77,3.76,3.76,0,0,1,0-.94,6.49,6.49,0,0,1,.16-.89l.21-.76c.16-.4.25-.58.38-.88a5.08,5.08,0,0,1,.45-.78,4.18,4.18,0,0,1,.53-.72,11.06,11.06,0,0,1,2.61-2.19,17,17,0,0,0,2.42-1.76,6.31,6.31,0,0,0,1.52-2.26,8.16,8.16,0,0,0,.36-1.35l.13-.68,0-.79.05-.74,0-.75a12.62,12.62,0,0,0-.07-1.51,18.7,18.7,0,0,0-1.45-5.83c-.76-1.88-1.85-3.62-2.85-5.54a17.17,17.17,0,0,1-1.28-3.09A16.31,16.31,0,0,1,53.61,16a21.78,21.78,0,0,1,.64-6.54,15.42,15.42,0,0,1,2.63-6l0,0a.7.7,0,0,1,1-.09.71.71,0,0,1,.22.78" transform="translate(0 0)"/><path class="cls-3" d="M8.44,2A1.15,1.15,0,0,0,8.8,1.9l1-.47A9.17,9.17,0,0,1,11.47.82C12.15.66,12.9.58,13.74.47a25.79,25.79,0,0,1,2.7-.09,22.46,22.46,0,0,1,3,.25,25.6,25.6,0,0,1,3.14.62c1.05.26,2.1.61,3.14,1s2,.83,3,1.32c.49.24,1,.49,1.42.75l.35.19.11.06.17.09.68.33a4.3,4.3,0,0,0,2.24.3,3.92,3.92,0,0,0,1.86-.91,8,8,0,0,0,1.25-1.48c.31-.51.54-1,.81-1.34a9.51,9.51,0,0,0,.6-.87,1.28,1.28,0,0,0,.16-.34v0a.44.44,0,0,1,.83.27h0a2.43,2.43,0,0,0-.07.4c0,.26-.07.65-.18,1.14a5.26,5.26,0,0,1-.73,1.65,9,9,0,0,1-1.51,1.89A5.69,5.69,0,0,1,34,7.06a6.22,6.22,0,0,1-3.41-.37l-.68-.32-.4-.19L29.21,6c-.44-.23-.9-.45-1.36-.66C26.93,4.9,26,4.54,25,4.17S23,3.5,22.05,3.25a23.71,23.71,0,0,0-2.91-.57,20.53,20.53,0,0,0-2.75-.23,24,24,0,0,0-2.45.08c-.76.09-1.46.19-2,.3S10.78,3,10.31,3s-.83.15-1.08.2a.82.82,0,0,0-.36.11.73.73,0,0,1-1-.22.71.71,0,0,1,.22-1A.73.73,0,0,1,8.44,2" transform="translate(0 0)"/><path class="cls-3" d="M29.56,29c-.09-1.1-.12-5.43,0-6.6s.62-6.52.54-7.26a1.15,1.15,0,0,0-.43-.85.81.81,0,0,0-.16-.1,7.39,7.39,0,0,0-1.32.62,10.41,10.41,0,0,0-5.06,7.66,16.61,16.61,0,0,0,.38,8.25,6.35,6.35,0,0,0,6,4.36c.52,0,.52-1.66.55-2.15a13.24,13.24,0,0,0-.23-1.79c-.13-.77-.27-1.61-.32-2.14" transform="translate(0 0)"/><path class="cls-3" d="M33.26,14.74a.78.78,0,0,0-1,.18,2.45,2.45,0,0,0-.19,1.92l0-.05a47,47,0,0,1,.58,6.33c0,1.42-.16,5.63-.38,8.12a17.05,17.05,0,0,1-.2,1.7,4.42,4.42,0,0,0,0,2.15,6.1,6.1,0,0,0,6.16-4.61,17.56,17.56,0,0,0,.28-8,10.4,10.4,0,0,0-5.21-7.74" transform="translate(0 0)"/><path class="cls-4" d="M13.2,109.44s0,17.25,0,20.5.74,8.92,5.1,11.72l4.36,2.8s.59,4.37,2.46,4.32,2.14-2.91,2.14-2.91.54-.89.89-.17-.22,3,1.27,3.39,2.84-1.25,3-2.86,1.25-.53,1.34.09.2,2.06,2.44,2.11c1,0,1.59-1.42,2-3.33s3.35-1,5.1-2.74,2.61-7.71,2.81-10.28,1.11-20.67,1-22.64-12-4.1-19.07-3.93S13.2,107.12,13.2,109.44Z" transform="translate(0 0)"/><path class="cls-3" d="M30.8,137.71s-2.95-.29-3.37,1.14A1.56,1.56,0,0,0,29.12,141c1.11-.06,1.95.07,3.14,0s1.84-.78,1.72-1.26-.57-2.81-3.18-2" transform="translate(0 0)"/><path class="cls-3" d="M20.59,128.67s-2.16,2.38-1.8,4.05a6.29,6.29,0,0,0,2.5,3.68c.83.49,4.44.67,4.78-2s-.94-7.89-5.48-5.75" transform="translate(0 0)"/><path class="cls-3" d="M38.52,136.86s2.52-2,2.44-3.7a6.39,6.39,0,0,0-1.86-4c-.74-.62-4.28-1.39-5,1.17s-.37,7.93,4.46,6.57" transform="translate(0 0)"/><path class="cls-4" d="M13.92,108.28s-1.49,1.82,2.2,3,17.15,1.78,23.22,1.07,8.94-3.25,6.61-4.08" transform="translate(0 0)"/><path class="cls-3" d="M21.69,121.63l-.33-.09c-.21-.07-.54-.15-.93-.24a8,8,0,0,0-1.39-.13l-.85,0c-.31,0-.65,0-1,0a8.29,8.29,0,0,1-2-.24,2.84,2.84,0,0,1-.55-.2,2.12,2.12,0,0,1-.55-.41c-.22-.2-.38-.39-.55-.57l-1-1.17a.89.89,0,1,1,1.32-1.19l0,0,1,1.12.48.51c.09.09.05.07.09.1l.25.09a6.91,6.91,0,0,0,1.57.24l.87,0c.29,0,.61,0,.94,0a6,6,0,0,1,1.73.32,3.56,3.56,0,0,1,1.12.62,2.77,2.77,0,0,1,.38.38.48.48,0,0,1-.1.67.47.47,0,0,1-.41.08Z" transform="translate(0 0)"/><path class="cls-3" d="M17.83,123.48a1.45,1.45,0,0,1-.57-.17,1.74,1.74,0,0,1-.47-.34,2.85,2.85,0,0,1-.24-.3l-.13-.21s-.05-.1-.06-.1l-.13-.17-.14-.22c-.08-.14-.18-.28-.25-.41a3.59,3.59,0,0,1-.24-.52.88.88,0,0,1,.5-1.15A.9.9,0,0,1,17,120l.18.15s.09.07.28.3a4.23,4.23,0,0,1,.3.42,1.67,1.67,0,0,1,.17.26l.16.33.07.16a.1.1,0,0,0,0,0l.08.17a2.64,2.64,0,0,1,.27,1v0a.63.63,0,0,1-.63.62h0" transform="translate(0 0)"/><path class="cls-4" d="M46.93,120.61s5,.68,6.81,4.77-1.27,10.44-7.9,10.62l.59-2.75s4.57-1.06,5.06-4.09a4.43,4.43,0,0,0-4.37-5.32" transform="translate(0 0)"/><path class="cls-3" d="M49.45,122s-.48.08-.35.83a3.61,3.61,0,0,0,.76,1.47s-2.37.37-2.58-1a13.13,13.13,0,0,1-.14-2.4Z" transform="translate(0 0)"/><path class="cls-3" d="M48.22,133.09a1.83,1.83,0,0,0-.47,1.35c.16.64,1.14.6,1.14.6l-2,1.37-1.1-.41.37-2.79" transform="translate(0 0)"/><line class="cls-4" x1="45.94" y1="37.21" x2="45.33" y2="41.06"/><line class="cls-4" x1="44.54" y1="45.99" x2="43.98" y2="49.56"/><line class="cls-4" x1="50.96" y1="41.63" x2="47.21" y2="42.72"/><line class="cls-4" x1="42.43" y1="44.12" x2="38.96" y2="45.14"/><line class="cls-4" x1="50.02" y1="47.05" x2="46.86" y2="44.76"/><line class="cls-4" x1="42.82" y1="41.84" x2="39.89" y2="39.72"/><line class="cls-4" x1="44.22" y1="1.96" x2="45.62" y2="11.73"/><line class="cls-4" x1="42.16" y1="5.22" x2="47.75" y2="9"/><line class="cls-4" x1="47.11" y1="4.51" x2="42.8" y2="9.71"/><line class="cls-4" x1="20.86" y1="62.79" x2="22.09" y2="72.58"/><line class="cls-4" x1="18.75" y1="66.01" x2="24.27" y2="69.89"/><line class="cls-4" x1="23.71" y1="65.39" x2="19.31" y2="70.51"/><path class="cls-5" d="M40.69,64.59A11.22,11.22,0,0,0,51,66c5.85-2.09,5.29-10.31,0-14.24" transform="translate(0 0)"/><path class="cls-3" d="M41.08,64.1l.28.09a7.56,7.56,0,0,1,.75.34,12.41,12.41,0,0,0,2.74,1.1,8.4,8.4,0,0,0,4.14,0c.37-.1.75-.18,1.12-.32l.49-.16.59-.26a4.75,4.75,0,0,0,1-.57,6.91,6.91,0,0,0,.79-.75,5.54,5.54,0,0,0,1-2,7.14,7.14,0,0,0,.22-1.1,8.25,8.25,0,0,0,0-1.11,7.9,7.9,0,0,0-.39-2.1A8.43,8.43,0,0,0,53,55.52a10.5,10.5,0,0,0-.9-1.37c-.3-.38-.61-.68-.85-.94l-.84-.72-.08-.07a.89.89,0,0,1,1.15-1.36l1,.83c.29.3.67.65,1,1.1a12.16,12.16,0,0,1,1.11,1.61,10.59,10.59,0,0,1,.93,2.12,10,10,0,0,1,.47,2.57,10.8,10.8,0,0,1,0,1.39,9,9,0,0,1-.28,1.43,7.29,7.29,0,0,1-1.38,2.66,8,8,0,0,1-1.12,1,6.82,6.82,0,0,1-1.29.77l-.59.26a7.43,7.43,0,0,1-.73.22,6.87,6.87,0,0,1-1.33.29,13,13,0,0,1-2.55.09,17.65,17.65,0,0,1-2.25-.32A10.5,10.5,0,0,1,41.32,66a3.17,3.17,0,0,1-.77-.58,1.31,1.31,0,0,1-.24-.28.66.66,0,0,1,.2-.92.68.68,0,0,1,.57-.07" transform="translate(0 0)"/><path class="cls-3" d="M18.75,111.09a61.6,61.6,0,0,1,11.44-1.57c7.45,0,10.44,2.65,10.44,2.65s-8.38.54-9.83.5" transform="translate(0 0)"/></g></g></g></svg>