<svg xmlns="http://www.w3.org/2000/svg" viewBox="0 0 112.08 83.12"><defs><style>.a{fill:#f3dab2;}.b{fill:#fff;}.b,.c,.d,.e,.f,.g,.h{stroke:#232222;stroke-miterlimit:10;}.c{fill:#fff;}.d{fill:#232222;}.e{fill:#ccc;}.f{fill:#f3dab2;}.g{fill:#232222;}.h{fill:#232222;}.i{fill:#fff;}.j{fill:none;stroke:#232222;stroke-linecap:round;stroke-linejoin:round;}</style></defs><path class="a" d="M110.64,61c11-16.33.35-36.83-12.79-46.9C88.58,7,40.61,2.31,20.22,13.07-1.3,24.43-.8,51,12.49,61.37c15.11,11.86,33.7,18,51.71,20.41C82.75,84.3,102.47,73,110.64,61Z" transform="translate(-3.16 -1.97)"/><path class="b" d="M70.14,59.61c-2.09.12-4.29.2-6.58.22-.71,0-1.43,0-2.16,0l-2.67,0-.94,0L56,59.76l-1.64-.07-1.71-.08-2-.13-1.37-.11c-.45,0-.89-.07-1.33-.12-1.8-.17-3.47-.38-5-.61l-.66-.11-.89-.16h-.08c-.54-.1-1.05-.2-1.54-.31a23.71,23.71,0,0,1-3.16-.9L36.31,57a7.54,7.54,0,0,1-.9-.45,1,1,0,0,1-.22-.14,2.16,2.16,0,0,1-.65-.62.64.64,0,0,1-.09-.21,0,0,0,0,1,0,0,.57.57,0,0,1,0-.22V67.07c0,.22,0,.44,0,.66A11.85,11.85,0,0,0,34.73,70,13,13,0,0,0,47.43,80.1h5.11a4.54,4.54,0,0,0-.14,1.13c0,1.86,1,3.37,2.25,3.37s2.25-1.51,2.25-3.37c0,1.86,1,3.37,2.25,3.37A2.2,2.2,0,0,0,61,83.11a4.64,4.64,0,0,0,.38-1.88,4.6,4.6,0,0,0,.38,1.88,2.21,2.21,0,0,0,1.87,1.49c1.24,0,2.25-1.51,2.25-3.37,0,1.86,1,3.37,2.25,3.37s2.25-1.51,2.25-3.37a4.54,4.54,0,0,0-.14-1.13h5.11a13,13,0,0,0,13-13V55.35C88.4,57.33,80.76,59,70.14,59.61ZM46.78,73.35c-3.11,0-5.63-2-5.63-4.5s2.52-4.5,5.63-4.5,5.62,2,5.62,4.5S49.88,73.35,46.78,73.35ZM65.9,75.6c-.81.41-3.26-2.25-4.5-2.25S57.7,76,56.9,75.6s-.32-1.78,0-2.25a5.09,5.09,0,0,1,4.5-2.25,5,5,0,0,1,4.5,2.25C66.21,73.82,66.71,75.19,65.9,75.6ZM76,73.35c-3.11,0-5.63-2-5.63-4.5s2.52-4.5,5.63-4.5,5.62,2,5.62,4.5S79.13,73.35,76,73.35Z" transform="translate(-3.16 -1.97)"/><path class="c" d="M34.45,67.73c0-.22,0-.44,0-.66V58.73h-4c-2.77,0-5,2.51-5,5.62s2.24,5.62,5,5.62h4.32A12.7,12.7,0,0,1,34.45,67.73Zm-3.6-.58a2.81,2.81,0,0,1,0-5.61h3.53v5.07c0,.18,0,.37,0,.55Z" transform="translate(-3.16 -1.97)"/><path class="d" d="M81.65,68.85c0,2.49-2.52,4.5-5.62,4.5s-5.63-2-5.63-4.5,2.52-4.5,5.63-4.5S81.65,66.36,81.65,68.85Z" transform="translate(-3.16 -1.97)"/><path class="d" d="M52.4,68.85c0,2.49-2.52,4.5-5.62,4.5s-5.63-2-5.63-4.5,2.52-4.5,5.63-4.5S52.4,66.36,52.4,68.85Z" transform="translate(-3.16 -1.97)"/><path class="d" d="M65.9,75.6c-.81.41-3.26-2.25-4.5-2.25S57.7,76,56.9,75.6s-.32-1.78,0-2.25a5.09,5.09,0,0,1,4.5-2.25,5,5,0,0,1,4.5,2.25C66.21,73.82,66.71,75.19,65.9,75.6Z" transform="translate(-3.16 -1.97)"/><path class="e" d="M88.4,55.35c0,2-7.64,3.66-18.26,4.26-2.09.12-4.29.2-6.58.22-.71,0-1.43,0-2.16,0l-2.67,0-.94,0L56,59.76l-1.64-.07-1.71-.08-2-.13-1.37-.11c-.45,0-.89-.07-1.33-.12-1.8-.17-3.47-.38-5-.61l-.66-.11-.89-.16h-.08c-.54-.1-1.05-.2-1.54-.31a23.71,23.71,0,0,1-3.16-.9L36.31,57a7.54,7.54,0,0,1-.9-.45,1.64,1.64,0,0,1-.22-.14,2.16,2.16,0,0,1-.65-.62.64.64,0,0,1-.09-.21,0,0,0,0,1,0,0,.57.57,0,0,1,0-.22c0-.82,1.32-1.59,3.64-2.25,4.15-1.2,11.48-2,20.06-2.22q1.62,0,3.3,0l2.72,0c8.82.15,16.39,1,20.64,2.23C87.08,53.76,88.4,54.53,88.4,55.35Z" transform="translate(-3.16 -1.97)"/><path class="f" d="M70.14,59.61c-2.09.12-4.29.2-6.58.22-.71,0-1.43,0-2.16,0l-2.67,0-.94,0L56,59.76l-1.64-.07-1.71-.08-2-.13h0A4.51,4.51,0,0,1,54.54,57a4.53,4.53,0,0,0,2-.13,3,3,0,0,0,1.29-2.18,8.55,8.55,0,0,0,.32-3.84,3.33,3.33,0,0,0-.16-.51c-.41-1.06-1.31-1.94-1.44-3.08a6.81,6.81,0,0,1,.61-2.73c1.29-4.12-.8-8.56-3.49-11.94a32.83,32.83,0,0,1-2.91-3.84C48.16,24.4,48.9,18.88,50.3,14c1-3.37,2.3-6.81,5-9.08A10.73,10.73,0,0,1,67.32,3.84a4.71,4.71,0,0,1,1.59,1.38,6.69,6.69,0,0,1,.79,2.09c.92,3.4,2.47,6.63,3,10.11.91,6.39-1.85,12.76-5.43,18.13-1.2,1.8-2.57,3.78-2.26,5.92a23.69,23.69,0,0,1,.58,2.73c0,1.38-.86,2.59-1.26,3.91a6.45,6.45,0,0,0-.18,2.76A17.38,17.38,0,0,0,65.88,56a2.37,2.37,0,0,0,.51.81c.57.53,1.49.42,2.18.79A5,5,0,0,1,70.14,59.61Z" transform="translate(-3.16 -1.97)"/><path class="g" d="M54.15,19.86c0,5,2.43,9.18,5.62,10V9.89C56.58,10.69,54.15,14.85,54.15,19.86Z" transform="translate(-3.16 -1.97)"/><path class="h" d="M62,9.88v20c3.2-.8,5.63-5,5.63-10S65.22,10.68,62,9.88Z" transform="translate(-3.16 -1.97)"/><path class="i" d="M64.05,59.3c-.71,0-1.43,0-2.16,0l-2.67,0a1.36,1.36,0,0,1-.07-.53,4.35,4.35,0,0,1,.63-1.6,1.75,1.75,0,0,0,.14-1.65,2.28,2.28,0,0,1,1.2,2.78,2.75,2.75,0,0,0,.27-2.38c-.17-.47-.46-.9-.63-1.37a2.76,2.76,0,0,1,.4-2.58,4.23,4.23,0,0,0,.77,3.11A27.81,27.81,0,0,1,63.71,58,3.78,3.78,0,0,1,64.05,59.3Z" transform="translate(-3.16 -1.97)"/><path class="j" d="M81.74,58.31,82,60.55c4.19,1.24-.44,2.3-.32,2.67s1.33,1,1.53,1.25" transform="translate(-3.16 -1.97)"/></svg>