<svg xmlns="http://www.w3.org/2000/svg" viewBox="0 0 102.79 84.33"><defs><style>.a{fill:#f3dab2;}.b{fill:#c4c8cf;}.b,.c,.d,.e,.f,.g,.h,.i{stroke:#232121;stroke-miterlimit:10;}.c,.e{fill:none;}.d{fill:#775b29;}.e,.f,.g,.h,.i{stroke-linecap:round;}.f{fill:#676f72;}.g{fill:#444b4c;}.h{fill:#27aae1;}.i{fill:#765b2c;}</style></defs><path class="a" d="M20.3,8.84C7.19,19.48,6.12,43.22,14.06,57.05c5.81,10.14,48.3,32.88,71.26,30.79,9.23-.83,14.1-3.75,17.51-6.92,9.83-9.16,9.92-24.35,8.08-31.53C107.13,34.7,96.29,21.14,73.13,13.58,58.09,8.66,35-3.12,20.3,8.84Z" transform="translate(-9.05 -3.65)"/><path class="b" d="M83.26,30.46c0-2.18-11.12-3.82-24.79-3.66s-24.73,2-24.7,4.21l0,5.06c.07,6.06,5.33,10.63,11.75,10.56l6.37-.07a3.38,3.38,0,0,1,3.42,3.33l0,1.69,6.75-.07,0-1.69a3.37,3.37,0,0,1,3.33-3.41l6.37-.07a11.42,11.42,0,0,0,11.42-9.69l4.6,0-.07-6.19ZM58.55,33.55c-11.81.13-21.39-.89-21.4-2.29s9.53-2.64,21.34-2.77,21.39.89,21.41,2.29S70.36,33.42,58.55,33.55Z" transform="translate(-9.05 -3.65)"/><path class="c" d="M79.9,30.78c0,1.4-9.54,2.64-21.35,2.77s-21.39-.89-21.4-2.29,9.53-2.64,21.34-2.77S79.88,29.38,79.9,30.78Z" transform="translate(-9.05 -3.65)"/><path class="d" d="M79.9,30.78c0,1.4-9.54,2.64-21.35,2.77s-21.39-.89-21.4-2.29,9.53-2.64,21.34-2.77S79.88,29.38,79.9,30.78Z" transform="translate(-9.05 -3.65)"/><path class="e" d="M37.18,34.35c6,1.7,16.08,2.06,21.4,2s16.12-.9,21.35-2.49" transform="translate(-9.05 -3.65)"/><path class="f" d="M92.26,30.3l.07,6.3a1.55,1.55,0,0,1-1.43,1.65H89.3a1.55,1.55,0,0,1-1.47-1.61l-.07-6.3a1.55,1.55,0,0,1,1.43-1.65h1.6A1.55,1.55,0,0,1,92.26,30.3Z" transform="translate(-9.05 -3.65)"/><path class="g" d="M106.25,38.53A97.45,97.45,0,0,1,94,37.09a1.65,1.65,0,0,1-1.68-1.61l0-4a1.66,1.66,0,0,1,1.65-1.65s2.11-.46,5.15-1A100.41,100.41,0,0,1,106.25,38.53Z" transform="translate(-9.05 -3.65)"/><path class="h" d="M62.46,16.26c0,2.66-1.45,4.5-3.93,4.5s-3.94-1.84-3.94-4.5,3.93-8.43,3.93-8.43S62.46,13.46,62.46,16.26Z" transform="translate(-9.05 -3.65)"/><path class="i" d="M62,63.84a3.1,3.1,0,1,1-6.18,0c0-2.07,3.09-6.23,3.09-6.23S62,61.77,62,63.84Z" transform="translate(-9.05 -3.65)"/></svg>