<svg xmlns="http://www.w3.org/2000/svg" xmlns:xlink="http://www.w3.org/1999/xlink" viewBox="0 0 146.57 72.59"><defs><style>.cls-1,.cls-3{fill:none;}.cls-2{clip-path:url(#clip-path);}.cls-3{stroke:#222;stroke-linecap:round;stroke-linejoin:round;stroke-width:1.53px;}.cls-4{fill:#222;}.cls-5{fill:#fff;}</style><clipPath id="clip-path" transform="translate(0 0)"><rect class="cls-1" width="146.57" height="72.59"/></clipPath></defs><g id="Layer_2" data-name="Layer 2"><g id="Capa_1" data-name="Capa 1"><g class="cls-2"><path class="cls-3" d="M69.91,42.22s.11-4.09-2.5-4.47-4.66,2-4.43,4.75,1.2,4.13,3.19,4.44S69.94,44.75,69.91,42.22Z" transform="translate(0 0)"/><path class="cls-3" d="M69.11,50.64a18,18,0,0,1-7.42,1.3,66.12,66.12,0,0,1-7.28-.64s.08,2.48,0,2.86,2.38,1.31,4.21,2.22,6.88.39,8.76-1.3a8.84,8.84,0,0,0,2.19-2.41s.46-2,0-2" transform="translate(0 0)"/><path class="cls-4" d="M56,51.51s-.06-.41-.83.51-.77,2.41,1.16,3.3S60,57.11,62.09,56.8s5.11-.94,6.33-2.7,1.67-2.67,0-2.68-9.63,1.14-10.17.91S56,51.51,56,51.51" transform="translate(0 0)"/><path class="cls-3" d="M43,37.33s.22-2.37-6.35-4.8-9.53.11-12.9-5.14c-2.46-3.82-5.48-9.72-13.24-8.09S-1.44,38,2,48.74,12.76,67.27,24.36,68.3s17.79-.8,23.69-9.75" transform="translate(0 0)"/><path class="cls-3" d="M53.72,49.72s1.48,2.5,0,7.11" transform="translate(0 0)"/><path class="cls-3" d="M70.62,61.84c2.48-2.14,1.86,0,5.87-6.29s2.38-11,2.13-14.36-1.44-10.28-11-15.06c-1-.51-5.16-.64-5.54-1.74s-1.14-4-4-3.72-3.35,5.24-5.32,5.87S47,30.05,47,30.05s-2.58,2.22-4,7.28a22.55,22.55,0,0,0,1.49,14.89c2.18,4.82,4.2,7.09,6.25,8.87a19.3,19.3,0,0,0,4.75,3.18c2.18,1,2.71,2.56,4.7,3.6a4.05,4.05,0,0,0,5.29-2C66.07,64.15,69.83,62.51,70.62,61.84Z" transform="translate(0 0)"/><path class="cls-3" d="M115.26,50.2c8.8-8.91,11.67-30.06,11.87-32.3s.82-5.4,3.14-7.39a4.72,4.72,0,0,1,4.92-.76c7.64,6.92,16,28.4,6.05,43.54S119.87,68.76,109,68.77s-16.66-4.1-17-4.45,0-4.11,0-4.11.24-1.93,4.72-1.89S110.58,54.93,115.26,50.2Z" transform="translate(0 0)"/><path class="cls-3" d="M98.39,67.31s-6.88,3.38-13.31,1.25S74.83,64.1,74,59.5" transform="translate(0 0)"/><path class="cls-3" d="M76.76,33.2a28.1,28.1,0,0,0,5.57-7.07c2.59-4.56,6.27-10,8.87-11.25s7.08-1.94,10,0,8.42,14.46,8.6,18.32,2.71,15.53,1.45,20.09" transform="translate(0 0)"/><path class="cls-3" d="M98.24,13.45a15.92,15.92,0,0,1,5.44,1.43c2.07,1.17,4.6,1.17,6.17,3.85a66.22,66.22,0,0,1,3.86,8.5c.46,1.3,1.45,6.93,1.91,7.6s3.25,8,3.08,10.85" transform="translate(0 0)"/><path class="cls-4" d="M89.67,38.54s-6.89.28-8.42,9.26,11.63,12,15.77,6.38.3-15.66-7.35-15.64" transform="translate(0 0)"/><path class="cls-3" d="M89.67,38.54s-6.89.28-8.42,9.26,11.63,12,15.77,6.38S97.32,38.52,89.67,38.54Z" transform="translate(0 0)"/><path class="cls-4" d="M18.83,67.21s-5.42,0-8.33,0-8.57.26-8.57,1.35,8.12,1.54,12.4,1.7,10.42,1.38,17,1.38,10.41.61,15.77,0,16.71,1.22,23.21.91,6.15-1.53,9.62-1.68,8.82,1.22,13.41,1.07,15.47.15,21.75-.3,27.1-.46,25.26-2.38-8.11-.26-12.1-.7a80.26,80.26,0,0,0-9.54-.26s-12.35.51-14.8.47-4.49-1.91-9.06-.21-11-1-13.73-1.5-3.52-.14-5.91.15-4.68.14-7.13.75-7.79,1.5-9.56.6-7.07-3-10.47-3-6.31,3-15.8,3" transform="translate(0 0)"/><path class="cls-5" d="M58.12,52.82s.23,1.93,1.3,2.29.77-.5.74-1.4-1.4-2.17-2-.89" transform="translate(0 0)"/><path class="cls-5" d="M67.2,51.79v1.49c0,.54.69.62,1.15-.26s.77-1.8.35-1.8-1.5.23-1.5.57" transform="translate(0 0)"/><path class="cls-4" d="M64.87,45.59a1.75,1.75,0,0,0,2.09-.9h0a.79.79,0,0,0-.35-1c-.32-.08-1.2-.52-1.19-.72s.79-.44,1.27-1-.28-1.54-.32-1.6a1.37,1.37,0,0,0-.27-.22c-.8-.51-.81-.9-1.81-.3a2.14,2.14,0,0,0-1,2c-.05,1.54.1,3.26,1.59,3.76" transform="translate(0 0)"/><path class="cls-3" d="M59.44,42.22s.11-4.09-2.5-4.47-4.66,2-4.43,4.75,1.2,4.13,3.19,4.44S59.47,44.75,59.44,42.22Z" transform="translate(0 0)"/><path class="cls-4" d="M54.4,45.59a1.75,1.75,0,0,0,2.09-.9h0a.79.79,0,0,0-.35-1c-.32-.08-1.2-.52-1.19-.72s.79-.44,1.27-1-.28-1.54-.32-1.6a1.37,1.37,0,0,0-.27-.22c-.8-.51-.81-.9-1.81-.3a2.14,2.14,0,0,0-1,2c-.05,1.54.1,3.26,1.59,3.76" transform="translate(0 0)"/><path class="cls-4" d="M14.18,40.68a1.75,1.75,0,0,0,2.1-.9h0a.79.79,0,0,0-.34-1c-.32-.08-1.2-.52-1.19-.72s.79-.44,1.27-1-.28-1.54-.32-1.6a1.74,1.74,0,0,0-.27-.22c-.8-.51-.81-.9-1.81-.3a2.12,2.12,0,0,0-1,2c0,1.54.1,3.26,1.58,3.76" transform="translate(0 0)"/><path class="cls-4" d="M22.74,37.61a1.74,1.74,0,0,0,2.09-.89h0a.78.78,0,0,0-.34-1c-.32-.08-1.2-.52-1.19-.72s.79-.45,1.27-1-.28-1.54-.32-1.61L24,32.19c-.8-.51-.81-.9-1.81-.31a2.14,2.14,0,0,0-1,2c0,1.54.1,3.26,1.59,3.75" transform="translate(0 0)"/><path class="cls-3" d="M101.12,33.05s.73-4-1.8-4.79-4.91,1.28-5.09,4,.57,4.26,2.49,4.86S100.78,35.56,101.12,33.05Z" transform="translate(0 0)"/><path class="cls-4" d="M95.64,35.63a1.74,1.74,0,0,0,2.2-.57h0a.79.79,0,0,0-.19-1c-.31-.13-1.11-.7-1.08-.89s.86-.32,1.41-.77,0-1.57-.08-1.63a1.47,1.47,0,0,0-.23-.26c-.72-.62-.67-1-1.75-.57a2.14,2.14,0,0,0-1.3,1.8c-.28,1.52-.39,3.24,1,4" transform="translate(0 0)"/><path class="cls-3" d="M90.77,31.49s.72-4-1.8-4.79-4.91,1.27-5.09,4,.57,4.27,2.49,4.87S90.42,34,90.77,31.49Z" transform="translate(0 0)"/><path class="cls-4" d="M85.28,34.07a1.75,1.75,0,0,0,2.21-.57h0a.8.8,0,0,0-.18-1.05c-.31-.13-1.12-.7-1.08-.89s.85-.32,1.41-.77,0-1.57-.09-1.64a1.37,1.37,0,0,0-.23-.25c-.72-.62-.67-1-1.74-.57a2.14,2.14,0,0,0-1.3,1.8c-.29,1.51-.39,3.24,1,3.95" transform="translate(0 0)"/><path class="cls-4" d="M134.64,38.57a1.75,1.75,0,0,0,2.21-.57h0a.8.8,0,0,0-.19-1.05c-.31-.13-1.12-.69-1.08-.89s.85-.32,1.41-.76-.05-1.58-.08-1.64a1.94,1.94,0,0,0-.23-.26c-.72-.62-.68-1-1.75-.57a2.14,2.14,0,0,0-1.3,1.8c-.28,1.52-.39,3.24,1,4" transform="translate(0 0)"/><path class="cls-4" d="M126.52,37.14a1.76,1.76,0,0,0,2.21-.58h0a.79.79,0,0,0-.19-1c-.3-.12-1.11-.69-1.07-.89s.85-.32,1.4-.76,0-1.57-.08-1.64a1.94,1.94,0,0,0-.23-.26c-.72-.62-.67-1-1.74-.56a2.11,2.11,0,0,0-1.31,1.79c-.28,1.52-.39,3.24,1,4" transform="translate(0 0)"/><path class="cls-3" d="M48.05,35.5a5.86,5.86,0,0,1-.41.92c-.23.38,0,1.29,0,1.29" transform="translate(0 0)"/><path class="cls-3" d="M63.87,30.83a6.73,6.73,0,0,0,.62,1.45l.67.69" transform="translate(0 0)"/><path class="cls-3" d="M73.63,44.15s.27.84.35,1.15a2.1,2.1,0,0,0,.44.69" transform="translate(0 0)"/><path class="cls-3" d="M60.16,60.92s.28.84.35,1.14a2.1,2.1,0,0,0,.44.69" transform="translate(0 0)"/><path class="cls-5" d="M95.19,42.62a14,14,0,0,1-.74,3.06c-.41.77-.84,1.39-.24,1.77s1.89-1,2.51-1.46.38-.92,0-1.84-1.38-2.47-1.53-1.53" transform="translate(0 0)"/><path class="cls-5" d="M85.21,41.09s-.41,3.67.8,4.59.87-.46,1.35-1.53.75-3.67,0-3.75-2.11.31-2.15.69" transform="translate(0 0)"/><path class="cls-5" d="M89,40.59a13,13,0,0,0,.38,2.6c.27.58.87.12.94-.57s.56-1.8.4-2-1.37-.54-1.72,0" transform="translate(0 0)"/><path class="cls-5" d="M92.2,40.81a12.77,12.77,0,0,0-.06,2.62c.17.62.84.26,1-.4s.85-1.68.74-1.94-1.27-.75-1.7-.28" transform="translate(0 0)"/><path class="cls-3" d="M99.47,42.34a43.07,43.07,0,0,0-.76,7.38" transform="translate(0 0)"/><path class="cls-4" d="M113.91,51.42s-2.19,1-2.26-1.32-1-6.45-.74-8.64-1.46-14.18-4-17.32-3.08-6.13-3.73-7-1.45-3.12-.5-2.67,4.3,1.56,5.37,2,2.83,4.37,2.83,4.37,3.17,7.9,3.52,9.5.4,4.88,1.66,7S118.66,44.2,118,46" transform="translate(0 0)"/><path class="cls-4" d="M129.23,11.62s-.66-2.87-1.79-3.79-3-1.73-4.08-2.75-.31-3.47,1.74-4.39,4.59-.92,5.3,0S132.34,5.9,133,6.81a22.61,22.61,0,0,0,2.23,2.94c.54.52-.4,1.77-1.42,1.87s-4.54,0-4.54,0" transform="translate(0 0)"/><path class="cls-4" d="M95.88,58.77s.25,1.3-.38,1.53-1.72.39-1.59,1,1.53,1.61,1.59,2.91,1.5,2.77,0,2.07-3.26-2.2-3.42-3.66-.83-4.15,0-3.85a15.16,15.16,0,0,0,3.8,0" transform="translate(0 0)"/><path class="cls-4" d="M77.31,57.54c-.92.69-1.53,1.17-.92,2s.29,2.06.42,2.67,1.42,3.3.81,2.8-3-2.42-3.16-3.72.43-1.86.8-3.52,3-.92,2-.23" transform="translate(0 0)"/><path class="cls-4" d="M27.92,38.54s-.52,3.78-2.66,4.91-8.72,0-9.62,1.47,1.05,6.09,8,6.3,8.37-3.93,8.88-7.07-.72-7.67-2.35-7.55-1.66-.24-2.24,1.94" transform="translate(0 0)"/><path class="cls-5" d="M21.23,46.34c.26.54,0,1-.4.79a5.09,5.09,0,0,1-1.13-1,7.1,7.1,0,0,1-.68-1c-.33-.52.5-.45.83-.25s.78,0,.88.28a12,12,0,0,0,.5,1.13" transform="translate(0 0)"/><path class="cls-5" d="M29.68,46.57A8.23,8.23,0,0,1,27.27,48q-.39.15-.78.27c-.2.06-.41.1-.6.14a5.39,5.39,0,0,1-2.79-.27c-.25-.26.14-.86.93-1.48a9,9,0,0,1,1.69-1l.28-.12a10.67,10.67,0,0,1,4.6-.69c.12.12-.29,1.18-.92,1.78" transform="translate(0 0)"/><path class="cls-5" d="M30.55,42.24c-.13.44-.63.32-.85-.23a10.85,10.85,0,0,0-.51-1.13c-.13-.26.3-.46.38-.84s.58-1,.74-.45a7.5,7.5,0,0,1,.28,1.16,5.27,5.27,0,0,1,0,1.49" transform="translate(0 0)"/><path class="cls-4" d="M43.21,49.72s0,3.85.3,4.42.68,2.11,1,2.72a8,8,0,0,1,.5,4.29c-.36,1.78.49.85.49.85s3.15-3.1,2.09-5-4.33-7.32-4.33-7.32" transform="translate(0 0)"/><path class="cls-3" d="M124.59,43.75s-.42,3,4.09,4.38a9.07,9.07,0,0,0,7-2.1" transform="translate(0 0)"/><path class="cls-3" d="M135.69,44.07a2.29,2.29,0,0,0,1.54,2.76" transform="translate(0 0)"/><path class="cls-4" d="M9.44,19s2.45,2.65,2.45,5.12.92,2.17-1.23,3.09S6.07,30,5.92,31.9s-.62,1.15-2.61-1.07-1.83-5.59,0-8.35S6.84,16.94,9.44,19" transform="translate(0 0)"/><path class="cls-4" d="M12.08,18.29s-.62.83.51,2.51,1.65,3.93,3.77,3.34,2.44.17,3.78,0,2.38,4,2.89,2.15-.44-3.65-1.89-5.64-1.48-.73-3.6-2.36-3.85-1-5.46,0" transform="translate(0 0)"/><path class="cls-3" d="M95.5,64.21s26.68,6.14,39.84-13.76" transform="translate(0 0)"/><path class="cls-3" d="M132.28,9.1s6.74,11,7.66,22" transform="translate(0 0)"/><path class="cls-5" d="M23.78,5.61S19.12,7.08,19,14.09,21.2,24.63,25.87,25,34.7,23.05,36,18.34s-1.41-9.88-3.91-11.9a8.43,8.43,0,0,0-8.34-.83" transform="translate(0 0)"/><path class="cls-3" d="M23.78,5.61S19.12,7.08,19,14.09,21.2,24.63,25.87,25,34.7,23.05,36,18.34s-1.41-9.88-3.91-11.9A8.43,8.43,0,0,0,23.78,5.61Z" transform="translate(0 0)"/><path class="cls-5" d="M36.66,12.87s-4.67,1.51-4.84,8.7,2.25,10.82,6.92,11.19,8.83-2,10.17-6.82S47.49,15.8,45,13.72a8.23,8.23,0,0,0-8.33-.85" transform="translate(0 0)"/><path class="cls-3" d="M36.66,12.87s-4.67,1.51-4.84,8.7,2.25,10.82,6.92,11.19,8.83-2,10.17-6.82S47.49,15.8,45,13.72A8.23,8.23,0,0,0,36.66,12.87Z" transform="translate(0 0)"/><path class="cls-4" d="M23.39,14.56A1.18,1.18,0,0,0,24.81,14h0a.55.55,0,0,0-.24-.69c-.21,0-.81-.35-.81-.49s.54-.3.87-.65-.19-1-.22-1.09a1.19,1.19,0,0,0-.18-.15c-.55-.34-.55-.6-1.23-.2A1.45,1.45,0,0,0,22.32,12c0,1,.07,2.2,1.07,2.54" transform="translate(0 0)"/><path class="cls-4" d="M30,14.12a1.18,1.18,0,0,0,1.42-.61h0a.54.54,0,0,0-.23-.69c-.22-.05-.82-.35-.81-.49s.54-.29.86-.65-.19-1-.22-1.09-.12-.11-.18-.15c-.54-.34-.55-.6-1.22-.2a1.44,1.44,0,0,0-.7,1.34c0,1,.07,2.21,1.08,2.54" transform="translate(0 0)"/><path class="cls-4" d="M43.65,22.37a1.55,1.55,0,0,1-1.85-.79h0a.7.7,0,0,1,.3-.89c.29-.07,1.06-.46,1-.63s-.69-.39-1.12-.85.25-1.36.29-1.42a1.37,1.37,0,0,1,.23-.19c.71-.44.72-.79,1.59-.26a1.85,1.85,0,0,1,.9,1.73c.05,1.36-.08,2.87-1.39,3.31" transform="translate(0 0)"/><path class="cls-4" d="M37.34,22a1.55,1.55,0,0,1-1.85-.79h0a.7.7,0,0,1,.3-.89c.28-.07,1.06-.46,1.05-.63s-.7-.39-1.12-.85.25-1.36.29-1.42a1.37,1.37,0,0,1,.23-.19c.71-.44.72-.79,1.59-.27a1.9,1.9,0,0,1,.9,1.74c.05,1.36-.09,2.87-1.39,3.31" transform="translate(0 0)"/><path class="cls-3" d="M23,17.29A3.48,3.48,0,0,1,23.16,19L23,20" transform="translate(0 0)"/><path class="cls-3" d="M23.59,18.64a28.92,28.92,0,0,0,5.35.23,5.44,5.44,0,0,0,3.69-1.33" transform="translate(0 0)"/><path class="cls-3" d="M24.41,19a7.65,7.65,0,0,0,1.08,2.48c.62.68.73,1.11,1.33.52a6.08,6.08,0,0,0,.84-2.61" transform="translate(0 0)"/><path class="cls-4" d="M45.05,25.25a24.92,24.92,0,0,0-5.25-1.07c-1.81,0-4.13.48-4.38,1.46s1.13,2.11,3.32,2.17,5.75,0,5.75,0Z" transform="translate(0 0)"/><path class="cls-3" d="M45.05,25.25a24.92,24.92,0,0,0-5.25-1.07c-1.81,0-4.13.48-4.38,1.46s1.13,2.11,3.32,2.17,5.75,0,5.75,0Z" transform="translate(0 0)"/><path class="cls-4" d="M46.11,23.87a14.27,14.27,0,0,0-1.37,5" transform="translate(0 0)"/><path class="cls-3" d="M46.11,23.87a14.27,14.27,0,0,0-1.37,5" transform="translate(0 0)"/><path class="cls-5" d="M41.75,25.16a7.83,7.83,0,0,1,.33,1.69c0,.47-.1.88.28.93s.71-.93.91-1.3,0-.54-.42-.91-1.24-.91-1.1-.41" transform="translate(0 0)"/><path class="cls-5" d="M36.42,25s-.23,2,.44,2.51.47-.25.73-.84.41-2,0-2.05-1.15.18-1.17.38" transform="translate(0 0)"/><path class="cls-5" d="M38.51,24.73a6.57,6.57,0,0,0,.21,1.42c.15.31.48.06.51-.31s.31-1,.22-1.11-.75-.29-.94,0" transform="translate(0 0)"/><path class="cls-5" d="M40.24,24.85a6.82,6.82,0,0,0,0,1.43c.09.34.45.14.55-.22s.47-.92.4-1.06-.69-.41-.92-.15" transform="translate(0 0)"/></g></g></g></svg>