<?xml version="1.0" encoding="utf-8"?>
<!-- Generator: Adobe Illustrator 26.0.2, SVG Export Plug-In . SVG Version: 6.00 Build 0)  -->
<svg version="1.1" id="Layer_1" xmlns="http://www.w3.org/2000/svg" xmlns:xlink="http://www.w3.org/1999/xlink" x="0px" y="0px"
	 viewBox="0 0 112.1 83.1" style="enable-background:new 0 0 112.1 83.1;" xml:space="preserve">
<style type="text/css">
	.st0{fill:#F3DAB2;}
	.st1{fill:#FFFFFF;}
	.st2{fill:#FFFFFF;stroke:#000000;stroke-linecap:round;stroke-linejoin:round;stroke-miterlimit:10;}
	.st3{stroke:#000000;stroke-linecap:round;stroke-linejoin:round;stroke-miterlimit:10;}
</style>
<path class="st0" d="M107.5,59c11-16.3,0.3-36.8-12.8-46.9c-9.3-7.1-57.2-11.8-77.6-1C-4.5,22.5-4,49,9.3,59.4
	C24.4,71.3,43,77.4,61,79.8C79.6,82.3,99.3,71,107.5,59z"/>
<g id="Layer_2_00000115490376869921386470000003256826825347167631_">
	<polygon class="st1" points="13,36.8 11.3,34 8,34 10,31.5 9.1,28.4 12.1,29.5 14.8,27.7 14.6,31 17.2,32.9 14.1,33.8 	"/>
	<polygon class="st1" points="85.3,46.2 83.5,43.4 80.3,43.3 82.3,40.8 81.4,37.8 84.4,38.8 87.1,37 86.9,40.2 89.5,42.2 86.4,43.2 
			"/>
	<polygon class="st1" points="11.8,65.6 10.1,62.9 6.8,62.8 8.9,60.3 7.9,57.2 10.9,58.3 13.6,56.5 13.4,59.7 16,61.7 12.9,62.5 	
		"/>
	<polygon class="st1" points="103.1,25.7 101.4,23 98.1,22.9 100.2,20.4 99.2,17.3 102.3,18.4 104.9,16.6 104.8,19.8 107.3,21.8 
		104.2,22.6 	"/>
	<polygon class="st1" points="96.7,72.3 95,69.6 91.7,69.5 93.8,67 92.8,63.9 95.9,65 98.5,63.2 98.4,66.4 100.9,68.4 97.8,69.2 	
		"/>
	<polygon class="st1" points="32,10.1 30.3,7.4 27,7.3 29.1,4.8 28.1,1.7 31.2,2.8 33.8,1 33.7,4.2 36.2,6.2 33.1,7 	"/>
</g>
<path class="st2" d="M83.1,33.4v36.2c0,5-4,9-9,9c-2.7,0-5.1-1.2-6.7-3l0,0c-0.1-0.1-0.2-0.2-0.2-0.3l0,0c-0.5-0.5-1.2-0.8-2-0.8
	s-1.5,0.3-2,0.8c0,0.1-0.1,0.1-0.1,0.2l0,0c-0.1,0.1-0.1,0.2-0.2,0.2c-1.6,1.8-4,2.9-6.7,2.9s-5-1.1-6.7-3l0,0
	c-0.1-0.1-0.2-0.2-0.3-0.3l0,0c-0.5-0.5-1.2-0.8-2-0.8s-1.5,0.3-2,0.8c-0.1,0.1-0.2,0.2-0.3,0.4l0,0c-1.7,1.8-4,3-6.7,3
	c-5,0-9-4-9-9V33.4c0-15,12.1-27.1,27.1-27.1C71,6.3,83.1,18.4,83.1,33.4z"/>
<path class="st3" d="M43.9,30.9c0,4.5-2.4,8.1-5.4,8.1c-2.2,0-4-1.9-4.9-4.7l3.1-3.5l-3.1-3.5c0.9-2.8,2.7-4.7,4.9-4.7
	C41.4,22.8,43.9,26.4,43.9,30.9z"/>
<path class="st3" d="M66.4,30.9c0,4.5-2.4,8.1-5.4,8.1c-2.2,0-4-1.9-4.9-4.7l3.1-3.5L56,27.5c0.9-2.8,2.7-4.7,4.9-4.7
	C63.9,22.8,66.4,26.4,66.4,30.9z"/>
<polygon class="st3" points="48.1,41.6 51.7,36.5 44.6,36.5 "/>
</svg>
