<svg xmlns="http://www.w3.org/2000/svg" xmlns:xlink="http://www.w3.org/1999/xlink" viewBox="0 0 58.09 110.29"><defs><style>.cls-1,.cls-3{fill:none;}.cls-2{clip-path:url(#clip-path);}.cls-3{stroke:#222;stroke-linecap:round;stroke-linejoin:round;stroke-width:1.53px;}.cls-4{fill:#222;}.cls-5{fill:#fff;}</style><clipPath id="clip-path" transform="translate(-0.01 0)"><rect class="cls-1" width="58.11" height="110.3"/></clipPath></defs><g id="Layer_2" data-name="Layer 2"><g id="Capa_1" data-name="Capa 1"><g class="cls-2"><path class="cls-3" d="M7,81.59A110,110,0,0,0,8.14,93.83c.83,4.31.78,6.12,3.28,7.81S21,104.89,21,104.89s.76,2.55,2.07,3.31a3,3,0,0,0,3.13,0c.56-.4.59-1.78.59-1.78s.41,2.34,2.23,2.85,2.84-.79,3.09-2.66c0,0,.39-.62.77.24s.18,2.15,1.23,2.53a2.43,2.43,0,0,0,3-1.42,4.36,4.36,0,0,0,.52-2s.37,2.67,1.86,3A2,2,0,0,0,42,107.16a9,9,0,0,0-.12-2.19s8.9-2.48,11-3.33,2.61-3.77,3.06-6.47S57.44,82,57.33,81.53s.51-2.79-2.76-4S38,75,32,75.11,15.3,76.25,11.23,77.37,6.86,79.5,7,81.59Z" transform="translate(-0.01 0)"/><path class="cls-3" d="M6.78,84.55s-4.37.86-5.69,4.52,1.66,9,7.44,8.84l-.66-2.37s-4-.68-4.62-3.29a3.87,3.87,0,0,1,3.53-4.87" transform="translate(-0.01 0)"/><path class="cls-3" d="M8,78.68a2.08,2.08,0,0,0,1.51,2.69,121.27,121.27,0,0,0,21.9,2.17c7.94-.15,18.56-1,21.83-2s4.16-1.57,3.27-2.81" transform="translate(-0.01 0)"/><path class="cls-4" d="M30.56,97s-3.12.33-3.35,1.57,1,1.6,2.29,1.39a15,15,0,0,1,4.34-.58c1.89.14,2.9.56,3.3,0s.8-1.81-1.29-2.38a8.18,8.18,0,0,0-5.29,0" transform="translate(-0.01 0)"/><path class="cls-4" d="M14.39,93.12s-.49,2.38,0,3,1.86,1.18,2.25,1.92a3.84,3.84,0,0,0,3,1.44c1.11,0,2.85-1.18,4.28-2.89a4,4,0,0,0,.33-5.21c-1.13-1.8-4-2.15-6.7-1.52s-2.87,2-3.15,3.3" transform="translate(-0.01 0)"/><path class="cls-4" d="M50.46,94.81s0-2.43-.57-2.91-2-.79-2.58-1.44a3.83,3.83,0,0,0-3.22-.83c-1.07.25-2.56,1.71-3.63,3.66a4,4,0,0,0,.68,5.18c1.46,1.54,4.4,1.32,6.87.19s2.43-2.53,2.45-3.85" transform="translate(-0.01 0)"/><path class="cls-4" d="M4.66,85.93s.42,0,.34.7A3.11,3.11,0,0,1,4.42,88s2.08.2,2.19-1a10.9,10.9,0,0,0,0-2.1Z" transform="translate(-0.01 0)"/><path class="cls-4" d="M6.3,95.49a1.59,1.59,0,0,1,.48,1.16c-.1.57-1,.59-1,.59L7.6,98.32l.93-.41-.46-2.42" transform="translate(-0.01 0)"/><path class="cls-3" d="M48.21,82.49A7.15,7.15,0,0,1,48.56,85a16.58,16.58,0,0,1-2.26,5.91" transform="translate(-0.01 0)"/><path class="cls-3" d="M49.45,93.6s1.35-2.51,1.27-4-1.56-2.39-2.15-5.35" transform="translate(-0.01 0)"/><path class="cls-4" d="M20,82.06s-.05-.48,2.28-.94,2.29.08,3.54-1.4,0-4,0-6.94S31,64.05,27.53,54.7,27,46.28,25,39.11s-6.75-11.22-6.61-24.32c.09-8.51,6.46-15.9,14-14.65s9.38,8.42,9.69,12.78,1.07,14-2.27,17.77a20.32,20.32,0,0,0-4.7,12.94c.12,3.59-.42,12.94,0,16.06s-1,10.13-.51,12.78,3.43,5.1,4.06,6.21,2.66,3.54,4.67,3.81-9.79,1.22-13.88,1.05-9.35-.15-9.5-1.48" transform="translate(-0.01 0)"/><path class="cls-5" d="M29.53,19.19a55.14,55.14,0,0,1,0-5.75c.1-1,.53-5.7.47-6.34a1.05,1.05,0,0,0-.38-.75.55.55,0,0,0-.14-.08,6.64,6.64,0,0,0-1.15.54,9.09,9.09,0,0,0-4.42,6.69,14.56,14.56,0,0,0,.33,7.2,5.57,5.57,0,0,0,5.29,3.81c.45,0,.45-1.46.47-1.88a10,10,0,0,0-.2-1.56c-.11-.67-.23-1.41-.27-1.88" transform="translate(-0.01 0)"/><path class="cls-5" d="M32.75,6.74a.67.67,0,0,0-.86.16,2.09,2.09,0,0,0-.17,1.67l0,0a40.56,40.56,0,0,1,.5,5.52c0,1.24-.13,4.92-.32,7.1a14.74,14.74,0,0,1-.18,1.48,3.74,3.74,0,0,0,0,1.87,5.33,5.33,0,0,0,5.38-4,15.34,15.34,0,0,0,.24-7,9.09,9.09,0,0,0-4.55-6.76" transform="translate(-0.01 0)"/><path class="cls-4" d="M42.15,24.11a57.25,57.25,0,0,1,3.37-8.92c1.67-3,2-10.22-2-11.31s-7.1-2.22-7.1-2.22L39,6.27s4.66-.52,4.59,2.6-.1,3.68-1.33,6.12a14.85,14.85,0,0,1-2.33,3.54" transform="translate(-0.01 0)"/><path class="cls-5" d="M28.83,82.24a3.3,3.3,0,0,1,0-2.82c.71-1.59.08-3-.31-4.94s2.11.61,2.27,1.5-.39,1.67.29,1.5-.22-3.41-.68-5.08,1-5.32,1.33-5.85.69,3,.67,3.66,2.51,6.17,2.6,7.29,1.66,3.64,1.28,4.33-2.78.85-4.36.41a6.27,6.27,0,0,0-3.09,0" transform="translate(-0.01 0)"/></g></g></g></svg>