<svg id="Layer_1" data-name="Layer 1" xmlns="http://www.w3.org/2000/svg" viewBox="0 0 62.86 66.36"><defs><style>.cls-1{fill:#222;}</style></defs><path class="cls-1" d="M57.58,36.76c-1.17-.6-1.79.17-2.36,1a5.29,5.29,0,0,1-2.64,2.29,1.47,1.47,0,0,1-1.88-1c0-.36,0-1,0-1.32s-.06-.55.1-.51a1.31,1.31,0,0,1,.56.37c.11.14.36.32.49.14a1.49,1.49,0,0,0,.28-.79c0-.36-.39-.81-1.29-.92a7.6,7.6,0,0,0-1.51-.11,3,3,0,0,0-1.24.63,1.47,1.47,0,0,0-.28,1,.88.88,0,0,0,1,.27c.17-.14.34-.49.42-.5s.15,0,.16.3,0,.81,0,1.18h0v.16a.25.25,0,0,0,0,.08v.05a.73.73,0,0,1-.63.76,2.12,2.12,0,0,1-1.24-.06,5.85,5.85,0,0,1-2-2c-.56-.83-1.18-1.6-2.36-1s1.62,8.11,7.19,8.11h.09C56,44.87,58.75,37.35,57.58,36.76ZM46.35,40.7c0,.5-.33.77-.58.47A4.65,4.65,0,0,1,45.22,40,5.9,5.9,0,0,1,45,39c-.08-.51.54-.17.73.1s.59.27.58.51A8.85,8.85,0,0,0,46.35,40.7Zm6.25,2.65a7.1,7.1,0,0,1-2.35.27,5.35,5.35,0,0,1-.7-.07,4.34,4.34,0,0,1-.52-.09A4.52,4.52,0,0,1,47,42.29c-.1-.29.4-.62,1.22-.83a7.87,7.87,0,0,1,1.67-.22h.26a9,9,0,0,1,3.79,1C54,42.43,53.29,43.11,52.6,43.35Zm2.22-2.18c-.25.3-.6,0-.58-.47a8.85,8.85,0,0,0,0-1.05c0-.24.39-.25.58-.51s.81-.61.73-.1a5.35,5.35,0,0,1-.19,1A4.35,4.35,0,0,1,54.82,41.17Z" transform="translate(-20.22 -12.79)"/><path class="cls-1" d="M46,35.36a1.14,1.14,0,0,0,1.37-.58h0a.51.51,0,0,0-.22-.65c-.21-.06-.79-.35-.78-.48s.52-.28.83-.62S47,32,47,32a1.1,1.1,0,0,0-.18-.14c-.52-.33-.53-.59-1.17-.2A1.38,1.38,0,0,0,45,32.92C44.91,33.92,45,35,46,35.36Z" transform="translate(-20.22 -12.79)"/><path class="cls-1" d="M50.33,59.37c-.06-.75-.08-3.68,0-4.48s.42-4.42.37-4.92a.81.81,0,0,0-.3-.58l-.1-.07a5.45,5.45,0,0,0-.9.42A7.06,7.06,0,0,0,46,54.94a11.25,11.25,0,0,0,.26,5.59,4.3,4.3,0,0,0,4.1,3c.35,0,.35-1.13.37-1.46a8.91,8.91,0,0,0-.15-1.21C50.46,60.3,50.37,59.73,50.33,59.37Z" transform="translate(-20.22 -12.79)"/><path class="cls-1" d="M52.15,49.69a.52.52,0,0,0-.66.12,1.62,1.62,0,0,0-.14,1.3l0,0a31.34,31.34,0,0,1,.39,4.29c0,1-.11,3.82-.25,5.51-.05.53-.1.94-.14,1.15a3,3,0,0,0,0,1.46,4.14,4.14,0,0,0,4.18-3.12,11.86,11.86,0,0,0,.18-5.43A7,7,0,0,0,52.15,49.69Z" transform="translate(-20.22 -12.79)"/><path class="cls-1" d="M80.28,56.68a5.12,5.12,0,0,0,2.78-4.55,2.22,2.22,0,0,0-1.52-2.2,2.29,2.29,0,0,0-1,0,6.92,6.92,0,0,0,.11-1.16c0-2.57-1.22-3.53-2.43-3.58a2.13,2.13,0,0,0-1.15.26,2.42,2.42,0,0,0-.35-.58,3,3,0,0,0-1-.78,3.78,3.78,0,0,0-2.27-.35,5,5,0,0,0-2,.76,5.46,5.46,0,0,0-1.39,1.25,6.54,6.54,0,0,0-.6.92c-.31-.16-.63-.33-.94-.51-5.73-3.29-5-11.45-5-11.45h0c.14-1.07.24-2.15.28-3.13a11,11,0,0,0-2.75-7.85c-1.16-1.37-2.25-4.31-4.77-5.79-1.3-1.2-2.58-2.9-2.6-3.71a1.32,1.32,0,0,0-2.15-1.09c-1,.83-.58,2.18-2.18,2.82A6.44,6.44,0,0,0,46.82,18c-1.4,1-3.66,3.93-5.18,4.82s-4,3.08-4.5,9.31C37,33.42,37,34.48,37,35.41c0,.14,0,1.3.2,2.5a8.07,8.07,0,0,0,.58,2.33c.68,1.33,1.41,3.19,1.3,3.8s-1.4-1.11-2.4-1.19h0c-1-.07-1.17-.15-2,.88h0a12.65,12.65,0,0,1-1,1.14,5.09,5.09,0,0,0-.4-.41,4.82,4.82,0,0,0-1.78-1.07,4.07,4.07,0,0,0-2.25-.15,3,3,0,0,0-1.11.53,2.3,2.3,0,0,0-.42.46,2.44,2.44,0,0,0-1.37-.73c-.51-.08-2.21-.12-2.73,2.76a7,7,0,0,0-.11,1.68,2.53,2.53,0,0,0-.88-.21,2,2,0,0,0-1.19.34,2.6,2.6,0,0,0-.89,1.11l-.11.3,0,.08v.07h0v0l-.05.19a3.16,3.16,0,0,0-.09.76,4.5,4.5,0,0,0,.25,1.53,6,6,0,0,0,.69,1.41,5,5,0,0,0,1.09,1.17,3.06,3.06,0,0,0,.73.41,1.92,1.92,0,0,0,.9.12c.08,0,.15,0,.24,0l.22-.09.08,0h0l0,0h0l.05,0,.08-.06,0,.15c.06.24.13.5.22.76a5,5,0,0,0,.4.8,2.48,2.48,0,0,0,.27.39l.16.19.18.17a2.32,2.32,0,0,0,.4.3l.11.07,0,0h.05l.05,0,.2.1.2.1.23.1a3.36,3.36,0,0,0,.47.17,3.51,3.51,0,0,0,.95.13,2.32,2.32,0,0,0,.46,0l.16,0a13.46,13.46,0,0,0,4,2.65c2.88,1.25,4.65.73,4.88,1.67a5.06,5.06,0,0,1,.08.78h0S39,68,41.48,69.1c1.84.86,4,1.43,5.14,2.4a3.11,3.11,0,0,1,.31.32,1.81,1.81,0,0,1,.42.84c.35,1.77,0,5.75,1.71,6.38s3.57-1.62,5.06-4.4c.93-1.71,1-2.52,1.7-3.2a8.12,8.12,0,0,1,2.65-1.3,8,8,0,0,0,5.36-5.44,3,3,0,0,0,.31-.06c1-.23,4.26-1.08,5.74-2.7a17.59,17.59,0,0,0,2.19-3.25,3.55,3.55,0,0,0,2,.63A4.2,4.2,0,0,0,75.6,59,4.07,4.07,0,0,0,78,56.49l.09.09a1.51,1.51,0,0,0,1.06.4A2.67,2.67,0,0,0,80.28,56.68ZM69.4,49.33v0l.06-.24.06-.29.11-.38a6.63,6.63,0,0,1,.6-1.38,5.85,5.85,0,0,1,.52-.74,4.3,4.3,0,0,1,1.2-1,4.43,4.43,0,0,1,1.62-.54,3.74,3.74,0,0,1,1.76.18,1.94,1.94,0,0,1,.71.48,1.47,1.47,0,0,1,.34.74,4.41,4.41,0,0,1-.26,1.9,5,5,0,0,1-.56,1.1,3.33,3.33,0,0,1-.4.51,2.48,2.48,0,0,1-1.36.85.78.78,0,0,1-.56-.09s0,0,0,0l-.08-.07a1,1,0,0,1-.09-.1.8.8,0,0,1-.16-.26,1.8,1.8,0,0,1,0-1.17,4.09,4.09,0,0,1,.19-.59l.16-.39a6.49,6.49,0,0,1,.27-.63l.08-.16,0-.06h0a.25.25,0,0,0-.41-.28l0,0-.13.15a7.15,7.15,0,0,0-.46.62,3.59,3.59,0,0,0-.22.44,6.5,6.5,0,0,0-.23.67,3.06,3.06,0,0,0-.1.64c0-.09,0,.24,0,.24s0,.46-.29.47-1-.14-1.23,0a.06.06,0,0,0,0,.06l-.26,0a3.87,3.87,0,0,0-.59,0c-.12-.12-.23-.24-.35-.35A.41.41,0,0,0,69.4,49.33ZM28,46a4.21,4.21,0,0,1,.19-.95,1.49,1.49,0,0,1,.48-.66,1.9,1.9,0,0,1,.8-.37,3.25,3.25,0,0,1,1.8.13,4.31,4.31,0,0,1,1.49.9l.36.38a4.9,4.9,0,0,1,.6.88,6.33,6.33,0,0,1,.66,2.31c0,.15,0,.28,0,.4v.32L34,49.24a5.39,5.39,0,0,0-.68-.12l-.35,0h-.32a4.14,4.14,0,0,0-.79,0v0a2.93,2.93,0,0,0,.05-.77,5.06,5.06,0,0,0-.2-1.19,2.18,2.18,0,0,0-.19-.5.75.75,0,0,0-.11-.2l-.12-.17-.05,0h0a.22.22,0,0,0-.18-.06.26.26,0,0,0-.23.27v.06s0,.11,0,.19a3.46,3.46,0,0,0,.07.34q0,.15.09.33a4.56,4.56,0,0,1,.18,1,2.37,2.37,0,0,1-.14.94,5.67,5.67,0,0,0-1.39.58,2.8,2.8,0,0,1-1.08-1.06l-.12-.23c-.05-.09-.09-.18-.14-.26a.42.42,0,0,0,0-.1A4.5,4.5,0,0,1,27.91,47,5.47,5.47,0,0,1,28,46Zm-3.59.39c.28-1.52.93-2.28,1.84-2.14.67.11,1.12.63,1.11.83a5.23,5.23,0,0,0-.13.87,6,6,0,0,0,.12,1.13,6.82,6.82,0,0,0,.28,1.1.4.4,0,0,0-.07.3.27.27,0,0,0,.07.14A1.87,1.87,0,0,1,27.36,51l-.95.35a2,2,0,0,1-.48-.17,3.07,3.07,0,0,1-1.31-1.6A5.64,5.64,0,0,1,24.36,46.4Zm9.43,9.72a3.94,3.94,0,0,1-1.58.18A4.85,4.85,0,0,1,31,56c-.32-.13-.55-.26-.72-.33l-.2-.07-.06,0a.28.28,0,1,0-.36.44,1.48,1.48,0,0,0,.24.26,2.52,2.52,0,0,0,.82.44l.06,0-.1.1a2.63,2.63,0,0,1-.33.28,2.21,2.21,0,0,1-.48.31,1.55,1.55,0,0,1-.29.14,1.61,1.61,0,0,1-.33.12,2.78,2.78,0,0,1-.6.11h-.12a3.33,3.33,0,0,1-1.17-.22l-.19-.08L27,57.41l-.19-.12,0,0h0s0,0,0,0h0l-.07-.07a2.57,2.57,0,0,1-.29-.28l-.14-.15-.11-.15a2.37,2.37,0,0,1-.22-.33,4,4,0,0,1-.31-.67,4.68,4.68,0,0,1-.18-.66,6.12,6.12,0,0,1-.13-1v0a2.6,2.6,0,0,0,0-.48,2.37,2.37,0,0,0-.17-.65,4.89,4.89,0,0,0-.46-.86l-.06-.08a5.54,5.54,0,0,0-.5-.63,3.35,3.35,0,0,0-.5-.48.21.21,0,0,0-.2,0h0a.21.21,0,0,0-.06.28l.37.54c.11.17.25.38.38.63a4.09,4.09,0,0,1,.35.85,1.39,1.39,0,0,1,0,.88.79.79,0,0,1-.26.32l-.1.07,0,0h0l-.08,0-.09,0-.09,0a1.4,1.4,0,0,1-1-.37,4.06,4.06,0,0,1-.88-1,5.46,5.46,0,0,1-.58-1.19,3.9,3.9,0,0,1-.22-1.23,2.72,2.72,0,0,1,.06-.58l0-.13v0h0v0l0-.08.11-.29a2,2,0,0,1,.55-.72,1.35,1.35,0,0,1,1.28-.09,1,1,0,0,1,.29.18s0,0,0,0h0l.12.11a4.54,4.54,0,0,0,.29.88,4,4,0,0,0,1.43,1.8l-.21-.15a8.09,8.09,0,0,0,1.46,1.35c.45.2.24.69.62,1.39s2.62.63,3.35.35c.5-.19,1-.43,1.34-.56a.46.46,0,0,0,.22-.22h0l.07,0c.3-.13.56-.26.78-.38a2.73,2.73,0,0,0,.74-.51,1.29,1.29,0,0,0,.2-.27.32.32,0,0,0,0-.14.27.27,0,0,0-.29-.25h0a1.59,1.59,0,0,0-.3.07,5,5,0,0,0-.75.37,8.08,8.08,0,0,1-1.16.52,3.52,3.52,0,0,1-1.52.24,1.28,1.28,0,0,1-.69-.27h0l0,0-.1-.09a1.58,1.58,0,0,1-.12-.15,1,1,0,0,1-.19-.34,1,1,0,0,1,.09-.76,2.49,2.49,0,0,1,.63-.77,4.8,4.8,0,0,1,.52-.36,5.06,5.06,0,0,1,1.39-.59l.1,0a4.39,4.39,0,0,1,1.14-.13h.32l.28,0a5.81,5.81,0,0,1,.58.09,3,3,0,0,1,1.83,1.18,3.52,3.52,0,0,1,.53,2.09,3,3,0,0,1-.77,1.84A3.51,3.51,0,0,1,33.79,56.12ZM57.6,59.35l.13.47,1.32,4.67.31,1.1-.76-.12L55.53,65l-1.67-.27-3,8.58-2.7-8.65-3.58.61-2,.35L44,60.39l.29-1-8.4-2.6,8.55-2.48L40.6,48.92s1.95.32,3.83.65a4.58,4.58,0,0,0,.62.15,2.73,2.73,0,0,0,.5.05,1.78,1.78,0,0,0,.8-.14c.59-.3-.25-2.1-.91-3.27a2.64,2.64,0,0,0-.4-.68v0a1.08,1.08,0,0,0-.17-.19c-1.4-1.57-4.27-2.79-4.43-6.72-.15-3.49,1.24-3,1.31-4.58s.64-4.5,2.37-4.91a23.13,23.13,0,0,0,5.26-2.38c2.08-1.09,4.49-2.46,5.79-2.35,1.07.1,1-1,1.88-1.14a2,2,0,0,1,.8.08A4.67,4.67,0,0,1,59.92,25a9.9,9.9,0,0,1,2.13,3.9c0,.1,0,.21,0,.32a4.31,4.31,0,0,1-.58,2.91c-.41.51-1,.71-2,.26a4.28,4.28,0,0,1-.42-.37h0a3.9,3.9,0,0,1-1.23-2c-.21-1.15-.59-3-.74-3.71L57,26c-.19-.14-.83-.5-1,.33S53.83,27.42,53.13,28c0,0-1.94,1.25-2,2.67s-.41,2.49,0,3.53a3.38,3.38,0,0,0,3.76,1.59,6,6,0,0,0,2.33-1.07h0a2.16,2.16,0,0,1,1.7.29c1,.88,1.42,2.8,1.62,4.21.31,2.17-2.08,4.15-2.69,4.85-.2.24-.48.51-.77.82h0a5.63,5.63,0,0,0-.58.76A7.56,7.56,0,0,0,55,48.43a1.25,1.25,0,0,0,.8,1.43,1.3,1.3,0,0,0,.68,0,2,2,0,0,0,.52-.21c2-.36,4.27-.73,4.27-.73l-3.86,5.35L66,56.75ZM55.08,34.12c-.21-.06-.78-.35-.78-.48s.52-.28.83-.62-.19-1-.21-1.05a.75.75,0,0,0-.17-.14c-.53-.33-.53-.59-1.18-.2a1.4,1.4,0,0,0-.67,1.29,2.61,2.61,0,0,0,.66,2.24c-1.46-.5-1.61-2-1.56-3.27a1.91,1.91,0,0,1,1.12-1.76c1.08-.52,1.1-.18,2,.27a3.27,3.27,0,0,1,1.39,2.8,2.3,2.3,0,0,1-1.58,2,1.41,1.41,0,0,0,.4-.44h0A.5.5,0,0,0,55.08,34.12ZM77.39,55.63a3.42,3.42,0,0,1-2.07,2.65A2.92,2.92,0,0,1,72.43,58a3.76,3.76,0,0,1-1.06-1.13l.15-.06a2.56,2.56,0,0,0,1.15-1.08.28.28,0,0,0-.06-.33.28.28,0,0,0-.38,0h0a1.9,1.9,0,0,1-1,.61c-.39.1-.79.13-1.2.2a2.4,2.4,0,0,1-1.24-.19l-.28-.13-.12-.07a.47.47,0,0,1-.12-.09l-.08-.06c-.34-.45-.59-1-1-1.5l-.11-.16c-.1-.34-.16-.7-.25-1.09a1.78,1.78,0,0,0-.12-.41,1.38,1.38,0,0,0-.28-.4,1.62,1.62,0,0,0-.81-.38,9.43,9.43,0,0,0-1.44-.1l-.33,0a1.1,1.1,0,0,1-.29,0l-.09,0h0a.17.17,0,0,1-.07,0,1.52,1.52,0,0,1-.17-.18,1.6,1.6,0,0,1-.33-1,1.19,1.19,0,0,1,.5-.9,2.62,2.62,0,0,1,.51-.3c.1,0,.17-.08.28-.11l.34-.09.08,0h.06l.16,0,.31-.05a4.42,4.42,0,0,1,.63,0,4.15,4.15,0,0,1,1.24.29,5.4,5.4,0,0,1,1.13.62,6.18,6.18,0,0,1,1,.87h0a.12.12,0,0,0,.06.06l.21.08c.21.07.41.12.61.17l.28.09a1.83,1.83,0,0,1,.28.1l.27.1.26.13.13.06.12.08c.07.05.17.09.24.15l.22.18L72,52l.18.24.14.27a3.92,3.92,0,0,1,.15.59,2.63,2.63,0,0,1,.08.3l.1.3h0a.2.2,0,0,0,.12.13A.21.21,0,0,0,73,53.7a1.25,1.25,0,0,0,.09-.37,1.54,1.54,0,0,0,0-.37,1,1,0,0,0,0-.23h0c0-.08-.09-.73.27-.73s1.26-.31,1.6,0a.92.92,0,0,0,.27.2,2.24,2.24,0,0,0,.21.36l.13.18a1.82,1.82,0,0,0,.31.31,1.12,1.12,0,0,0,.65.78c.58.29.78.4.78.63s.06.81.1.75a2.89,2.89,0,0,0,0,.29A.25.25,0,0,0,77.39,55.63Zm.25-3a1.38,1.38,0,0,1-1.58-.46s0,0,0,0a1.86,1.86,0,0,1,.22-2.36.41.41,0,0,0,.11-.25v0a5.87,5.87,0,0,0,.57-1.15,4.86,4.86,0,0,0,.28-2.05,1.17,1.17,0,0,1,.93-.32c1.09.05,1.72,1.09,1.69,2.79C79.8,51.11,78.63,52.3,77.64,52.6ZM78.58,56a1.21,1.21,0,0,1-.42-.89,4.16,4.16,0,0,1,1.18-2.32.38.38,0,0,0,0-.48,4.38,4.38,0,0,0,.87-1.49,1.4,1.4,0,0,1,1.12-.14,1.61,1.61,0,0,1,.92,1.52A4.39,4.39,0,0,1,79.93,56C79.6,56.15,79,56.38,78.58,56Z" transform="translate(-20.22 -12.79)"/></svg>